<?xml version="1.0" encoding="utf-8"?>
<!-- Generator: Adobe Illustrator 27.5.0, SVG Export Plug-In . SVG Version: 6.00 Build 0)  -->
<svg version="1.1" xmlns="http://www.w3.org/2000/svg" xmlns:xlink="http://www.w3.org/1999/xlink" x="0px" y="0px"
	 viewBox="0 0 2000 2000" style="enable-background:new 0 0 2000 2000;" xml:space="preserve">
<g id="Layer_2">
	<rect style="fill:#FFFFFF;" width="1999.989" height="1999.989"/>
</g>
<g id="Layer_3">
	<g>
		<path d="M577.111,420.357c0.916,2.222,3.337,3.231,5.563,2.6c-0.378,0.136-0.795,0.176-1.201,0.195
			c2.563,0.413,5.623-0.97,5.94-3.896C588.137,411.49,574.418,412.697,577.111,420.357z"/>
		<path d="M575.831,408.023c-0.052,3.091,3.048,5.233,5.952,4.437c2.946,0.424,6.049-1.31,6.062-4.523
			C587.943,401.476,575.86,401.769,575.831,408.023z"/>
		<path d="M588.142,391.349c-1.385-0.342-2.816-0.541-4.241-0.641c-2.509-0.072-5.418-0.37-7.56,1.182
			c-1.933,1.599-2.158,4.473-0.609,6.41c2.58,3.126,6.961,0.569,10.327,1.913C591.881,401.462,593.936,392.873,588.142,391.349z"/>
		<path d="M590.985,380.721c-2.112-0.684-4.266-1.317-6.467-1.642c-3.903-0.7-9.982-0.269-9.301,5.306
			c0.442,2.582,3.229,4.417,5.78,3.588c2.31-0.113,4.56,0.595,6.748,1.262C593.39,391.261,596.522,382.899,590.985,380.721z"/>
		<path d="M584.173,376.8c4.18,0.645,7.929,2.778,11.091,5.522c4.494,3.954,10.501-2.495,6.221-6.649
			c-4.844-4.327-10.873-7.425-17.392-8.065c-1.578-0.098-3.204-0.347-4.754,0.049c-2.372,0.73-3.721,3.358-2.977,5.712
			C577.569,377.033,580.943,376.377,584.173,376.8z"/>
		<path d="M584.903,361.579c2.176,0.744,4.309,1.614,6.379,2.62c6.275,3.172,11.879,8.089,14.848,14.555
			c2.443,5.498,10.571,2.121,8.436-3.426c-4.857-10.95-15.186-18.596-26.393-22.243c-3.977-2.141-8.771,0.985-7.123,5.543
			C581.694,360.284,583.251,361.186,584.903,361.579z"/>
		<path d="M625.438,371.136c-3.549-11.793-12.508-21.497-23.385-27.042c-3.856-1.688-7.965-4.419-12.307-3.943
			c-4.67,1.219-4.338,8.282,0.487,8.898c11.84,3.528,22.625,12.391,26.398,24.408C618.364,379.23,626.842,376.901,625.438,371.136z"
			/>
		<path d="M600.554,338.085c3.295,1.354,6.347,3.208,9.213,5.313c8.386,6.394,14.8,15.312,17.691,25.491
			c1.132,3.771,6.848,4.03,8.4,0.463c1.62-3.686-3.181-11.825-4.871-15.469c-5.628-9.639-13.985-17.835-23.984-22.861
			c-2.65-1.029-5.497-3.224-8.411-1.838c-2.272,1.14-3.062,3.864-2.023,6.114C597.349,336.988,598.981,337.488,600.554,338.085z"/>
		<path d="M610.927,326.96c3.981,2.025,7.665,4.578,11.034,7.51c8.827,7.461,13.986,18.155,16.151,29.374
			c0.784,3.855,6.502,4.583,8.333,1.161c2.365-3.993-4.779-20.264-7.325-24.286c-5.984-9.65-14.912-17.388-25.087-22.352
			c-1.896-0.851-4.46-0.189-5.684,1.895C606.87,322.738,608.18,326.078,610.927,326.96z"/>
		<path d="M641.157,332.775c3.606,5.648,6.344,11.89,7.694,18.467c0.481,2.735,0.92,5.513,1.132,8.285
			c-0.198,2.662,1.796,5.12,4.538,5.126c7.051-0.533,3.946-9.143,3.504-13.702c-1.489-9.063-5.406-17.616-10.59-25.144
			c-4.807-6.976-11.259-12.761-18.326-17.371c-1.739-1.316-4.324-1.17-5.913,0.378c-1.798,1.748-1.795,4.636-0.093,6.438
			C630.069,319.965,636.61,325.575,641.157,332.775z"/>
		<path d="M657.339,329.028c3.28,6.577,5.509,13.709,5.996,21.068c0.19,2.566,0.432,5.748,0.303,8.907
			c-0.496,2.56,1.387,5.09,3.967,5.383c4.067,0.444,5.567-3.661,5.167-7.072c-0.041-3.376-0.229-6.756-0.566-10.117
			c-1.155-10.655-5.023-20.723-11.256-30.005c-4.744-7.019-10.391-13.515-17.106-18.716c-4.479-3.772-10.268,2.576-6.154,6.715
			C645.869,311.573,652.571,319.821,657.339,329.028z"/>
		<path d="M657.149,300.93c4.602,5.076,8.558,10.702,11.702,16.791c3.957,8.144,6.558,16.964,7.359,26.004
			c0.208,3.203,0.136,6.4-0.017,9.606c-0.461,3.221-0.31,7.194,3.818,7.763c2.39,0.28,4.845-1.526,5.042-4.003
			c0.292-3.614,0.47-7.264,0.392-10.889c-0.62-13.37-4.308-26.209-11.488-38.006c-3.634-5.853-7.867-11.322-12.749-16.192
			c-2.836-2.78-5.959-6.807-9.939-3.187C647.022,293.795,654.49,297.429,657.149,300.93z"/>
		<path d="M675.775,285.886c-1.163-1.368-3.796-1.851-5.445-0.841c-3.532,2.229-2.868,6.043,0.15,8.4
			c2.59,2.768,4.854,5.837,6.908,9.02c3.807,5.999,6.949,12.418,9.038,19.218c2.537,8.535,3.404,17.504,2.607,26.371
			c-0.043,4.289-3.338,11.169,2.856,12.476c5.67,0.68,5.593-6.188,6.057-10.152c0.875-8.822,0.528-17.763-1.51-26.411
			c-2.129-9.308-6.081-18.113-11.23-26.14C682.491,293.556,679.432,289.414,675.775,285.886z"/>
		<path d="M688.361,292.301c7.256,8.622,11.273,19.599,13.285,30.635c1.034,6.484,1.493,13.067,0.916,19.622
			c-0.362,3.858-0.845,7.712-1.414,11.543c-0.367,2.453,1.35,4.814,3.81,5.192c3.523,0.539,5.465-2.677,5.48-5.837
			c2.103-13.066,2.108-26.558-1.389-39.391c-3.075-10.325-7.119-21.07-15.083-28.841
			C689.69,282.474,684.618,288.521,688.361,292.301z"/>
		<path d="M713.682,286.91c-2.933-5.227-10.696-1-7.989,4.331c3.887,5.499,6.658,11.737,8.735,18.135
			c1.779,6.039,2.853,12.257,3.12,18.548c0.241,7.576-0.772,15.121-2.338,22.521c-0.977,2.581,0.085,5.747,2.914,6.506
			c2.303,0.662,5.053-0.702,5.633-3.116c1.189-4.946,2.019-10.024,2.507-15.088c1.81-18.208-2.451-37.25-12.901-52.375
			c0.11,0.174,0.224,0.349,0.335,0.523c0,0,0,0-0.003,0C713.691,286.901,713.686,286.905,713.682,286.91z"/>
		<path d="M701.116,257.991c16.578,18.938,26.579,43.382,28.431,68.461c0.304,8.614-0.019,16.418-1.528,25.156
			c-0.439,4.113-4.116,10.859,1.737,12.676c2.339,0.618,4.975-0.836,5.555-3.255c1.628-6.682,2.826-13.489,3.134-20.369
			c2.462-32.999-10.289-66.738-32.59-91.004C700.798,244.449,693.407,251.847,701.116,257.991z"/>
		<path d="M714.527,252.536c15.484,19.68,24.476,44.219,26.657,69.089c0.912,9.815,0.359,19.671-1.406,29.361
			c-0.443,4.124-3.84,10.625,1.962,12.321c2.358,0.584,4.931-0.921,5.498-3.347c1.115-4.679,1.955-9.462,2.564-14.233
			c4.256-36.795-7.793-75.649-32.141-103.564c-3.878-4.592-10.728,0.989-7.112,5.687
			C711.85,249.435,713.242,250.941,714.527,252.536z"/>
		<path d="M686.009,260.69c-0.13-0.136-0.263-0.273-0.396-0.405c5.96,6.037,10.648,13.27,13.97,21.063
			c2.112,5.643,10.421,2.774,8.639-2.885c-2.766-6.847-6.617-13.296-11.196-19.083c-1.722-2.007-3.396-4.142-5.413-5.844
			c-4.792-3.142-9.79,3.556-5.462,7.267C686.104,260.766,686.056,260.728,686.009,260.69z"/>
		<path d="M684.573,280.42c1.512,3.643,7.313,3.22,8.411-0.52c1.592-4.214-8.669-18.417-12.096-21.312
			c-2.287-2.514-5.383-3.92-8.116-1.153c-1.693,1.814-1.47,4.788,0.342,6.431C678.348,268.196,681.793,274.31,684.573,280.42z"/>
		<path d="M664.499,271.489c3.233,2.666,5.824,5.995,8.304,9.351c0.99,1.422,2.013,2.985,3.854,3.303
			c3.753,0.928,7.009-3.735,4.75-6.919c-3.528-4.828-7.116-9.836-11.993-13.39C664.326,260.646,659.503,268.248,664.499,271.489z"/>
		<path d="M667.761,277.681c-1.089-1.776-2.473-3.36-3.996-4.775c-1.737-1.883-4.978-1.905-6.676,0.046
			c-3.364,4.456,0.904,6.311,3.005,9.646C663.433,287.56,670.845,282.796,667.761,277.681z"/>
		<path d="M729.759,396.94c-1.68,2.474-1.664,6.035,1.261,7.536c7.339,3.164,8.822-9.742,10.451-14.429
			c1.451-5.369,2.262-10.893,2.35-16.459c0.477-3.63-1.097-7.842-5.463-7.143c-2.961,0.544-4.108,3.574-3.615,6.284
			c-0.043,2.682-0.236,5.376-0.601,8.034C733.201,386.265,731.857,391.759,729.759,396.94z"/>
		<path d="M723.138,369.34c-0.167,6.762-1.429,13.432-3.216,19.961c-0.948,4.147-4.859,9.074,0.741,11.614
			c6.803,1.892,7.327-8.038,8.856-12.467c1.423-5.809,2.584-11.725,2.607-17.727C732.571,365.091,724.419,363.829,723.138,369.34z"
			/>
		<path d="M704.605,392.989c-0.887,2.318,0.438,5,2.742,5.826c4.998,1.616,6.392-3.861,7.41-7.546
			c2.901-9.266,5.234-19.118,3.692-28.857c-1.271-6.6-10.82-4.147-8.823,2.333c0.656,6.632-0.479,13.289-2.314,19.654
			C706.606,386.882,705.745,389.998,704.605,392.989z"/>
		<path d="M690.846,390.811c-0.946,1.911,0,4.864,2.084,5.819c2.111,1.09,5.144,0.32,6.139-1.944
			c1.634-3.718,2.841-7.688,3.775-11.634c1.472-6.091,2.278-12.397,1.602-18.656c-0.253-2.468-2.258-4.427-4.815-4.277
			c-2.396,0.143-4.529,2.35-4.277,4.818c0.133,1.308,0.245,2.607,0.261,3.923c-0.041,2.179-0.208,4.354-0.494,6.513
			C694.287,380.644,692.884,385.877,690.846,390.811z"/>
		<path d="M678.344,389.272c-1.058,2.434-0.105,5.397,2.475,6.364c7.189,2.089,7.202-8.474,8.294-13.101
			c0.668-6.076,1.614-12.41,0.41-18.446c-1.433-3.595-7.227-3.501-8.408,0.249c-0.599,2.84,0.029,5.789-0.237,8.677
			C680.62,378.498,679.956,384.011,678.344,389.272z"/>
		<path d="M666.369,390.934c-0.677,2.39,1.086,4.922,3.415,5.463c2.395,0.6,4.912-1.027,5.459-3.412
			c1.476-5.874,2.109-12.008,2.137-18.061c-0.027-2.428-0.149-4.858-0.723-7.218c-0.933-3.804-6.649-4.32-8.354-0.858
			c-0.844,1.417-0.456,2.945-0.217,4.459c0.494,5.165-0.024,10.358-0.842,15.464C667.014,388.17,666.757,389.569,666.369,390.934z"
			/>
		<path d="M656.466,366.46c-4.548,2.121-1.713,7.047-1.567,10.737c0.264,3.032,0.302,6.055,0.217,9.097
			c-0.023,3.407-1.999,8.56,3.02,9.85c2.333,0.541,5.014-0.969,5.462-3.411c1.059-7.907,1.137-16.284-1.114-23.987
			C661.477,366.482,658.724,365.449,656.466,366.46z"/>
		<path d="M643.159,390.089c-0.292,2.464,1.681,4.733,4.106,4.96c2.467,0.249,4.679-1.634,4.961-4.106
			c0.618-5.277,0.29-10.741-1.061-15.886c-0.63-2.229-1.531-5.096-3.931-5.965c-2.336-0.84-4.982,0.292-5.875,2.639
			c-0.653,1.592-0.101,3.174,0.642,4.574c0.776,2.08,1.032,4.302,1.299,6.493C643.479,385.222,643.435,387.674,643.159,390.089z"/>
		<path d="M637.484,376.073c-0.052-0.142-0.122-0.268-0.187-0.399c-0.042-0.072-0.073-0.148-0.115-0.22
			c0.035,0.068,0.071,0.135,0.107,0.203c-1.642-3.296-6.991-3.083-8.251,0.538c-0.939,2.118,0.478,3.999,1.261,5.882
			c1.009,3.057,1.186,6.326,1.289,9.523c0.339,5.964,9.152,5.642,9.102-0.335c-0.165-5.223-0.674-10.646-3.234-15.288
			C637.465,376.008,637.475,376.04,637.484,376.073z"/>
		<path d="M637.455,375.976c-0.001-0.004-0.002-0.007-0.003-0.011c-0.054-0.103-0.108-0.206-0.163-0.309
			c0.003,0.006,0.005,0.012,0.008,0.018C637.354,375.773,637.4,375.876,637.455,375.976z"/>
		<path d="M618.849,379.429c-2.108,1.66-2.016,4.558-0.739,6.686c0.909,2.725,1.53,5.575,1.679,8.447
			c0.352,5.972,9.157,5.642,9.102-0.331c-0.126-3.568-0.924-7.124-1.983-10.523C626.173,379.888,622.502,376.66,618.849,379.429z"/>
		<path d="M605.568,389.617c-0.104-0.148-0.211-0.299-0.316-0.45c-0.073-0.137-0.144-0.276-0.218-0.412
			c0.953,2.2,1.497,4.577,1.82,6.947c0.473,6.007,9.171,5.635,9.102-0.335c-0.268-2.813-0.891-5.577-1.798-8.251
			C612.371,378.512,601.302,382.545,605.568,389.617z"/>
		<path d="M602.69,389.606c-0.683-3.643-6.057-4.832-8.109-1.663c-2.108,2.829,0.396,5.846,0.634,8.842
			c1.122,5.872,9.801,4.412,8.984-1.507C603.915,393.335,603.38,391.44,602.69,389.606z"/>
		<path d="M731.447,254.664c8.844,12.782,14.481,27.355,18.093,42.406c1.656,5.779,10.166,3.506,8.817-2.28
			c-1.626-6.21-3.422-12.376-5.505-18.449c-5.049-13.849-12.974-26.423-22.035-37.981c-3.684-6.061-12.132-0.284-7.562,5.105
			C726.141,247.079,728.818,250.859,731.447,254.664z"/>
		<path d="M741.321,246.788c9.985,14.211,16.016,30.799,19.37,47.757c0.385,2.463,2.722,4.223,5.156,3.86
			c5.72-1.167,3.539-7.052,2.61-11.014c-1.765-7.616-4.025-15.119-7.001-22.352c-4.853-11.95-11.503-23.328-20.189-32.903
			c-3.861-4.311-10.526,1.23-6.963,5.847C736.884,240.717,739.182,243.699,741.321,246.788z"/>
		<path d="M769.509,278.524c0.812,4.05,1.237,8.148,1.587,12.259c0.106,1.054,0.516,2.098,1.382,2.924
			c2.681,2.789,7.959,0.541,7.695-3.358c-0.752-13.765-4.719-27.23-10.754-39.584c-3.844-7.745-8.142-15.472-14.065-21.838
			c-4.597-4.861-11.316,2.415-6.152,6.721C759.332,247.956,765.968,263.043,769.509,278.524z"/>
		<path d="M771.183,246.081c6.743,13.237,10.241,27.966,10.001,42.826c0.035,2.479,2.146,4.52,4.619,4.483
			c2.482-0.032,4.522-2.14,4.487-4.618c-0.081-8.516-0.669-17.084-2.909-25.336c-3.323-12.852-9.022-25.156-16.996-35.788
			c-3.849-4.594-10.729,0.925-7.129,5.669C766.298,237.302,768.815,241.671,771.183,246.081z"/>
		<path d="M747.021,382.188c-1.864,5.992-4.242,11.851-6.782,17.583c-1.492,2.331-1.509,5.907,1.361,7.347
			c2.127,1.118,5.085,0.328,6.146-1.916c1.467-3.102,2.76-6.281,4.038-9.461c1.788-4.441,3.394-8.92,4.704-13.525
			c3.923-13.652,5.726-27.896,5.719-42.087c-0.082-4.026-0.099-8.126-0.755-12.097c-1.751-5.323-9.655-3.395-8.837,2.083
			c1.025,11.592,0.329,23.311-1.523,34.798C750.077,370.755,748.713,376.506,747.021,382.188z"/>
		<path d="M756.587,392.722c-1.346,4.256-7.365,10.236-1.726,13.646c2.169,1.146,4.982,0.29,6.147-1.919
			c3.315-6.257,6.157-12.809,8.115-19.621c4.406-15.355,5.795-31.495,5.003-47.418c-0.134-1.805-0.107-3.653-0.541-5.42
			c-1.771-5.384-9.776-3.332-8.815,2.197c0.993,11.301,0.413,22.731-1.269,33.941C762.094,376.547,760.067,384.898,756.587,392.722z
			"/>
		<path d="M770.864,389.158c-2.044,4.933-4.189,9.835-6.5,14.649c-1.101,2.225-0.014,5.021,2.193,6.053
			c2.227,1.059,4.95,0.052,6.054-2.194c1.702-3.444,3.215-6.987,4.75-10.509c5.857-13.001,8.773-27.165,9.376-41.382
			c0.231-8.655,0.589-17.656-1.356-26.113c-2.517-4.628-9.167-1.956-8.539,2.665c-0.001-0.006-0.004-0.012-0.005-0.019
			c0.003,0.029,0.006,0.058,0.009,0.087c0.004,0.029,0.004,0.056,0.009,0.085C779.045,351.451,777.728,371.218,770.864,389.158z"/>
		<path d="M796.899,364.58c1.127-9.269,1.405-18.663,0.42-27.957c-0.442-4.056-0.904-8.193-1.989-12.136
			c-0.469-2.164-2.527-3.786-4.813-3.601c-2.468,0.196-4.38,2.429-4.181,4.9c2.889,12.355,2.986,25.27,1.52,37.856
			c-1.307,10.74-3.667,21.358-7.61,31.45c-1.314,3.307-2.725,6.582-4.207,9.818c-1.033,2.254-0.064,4.996,2.197,6.054
			c2.203,1.039,5.016,0.073,6.05-2.197c2.037-4.44,3.956-8.945,5.612-13.539C793.477,385.349,795.708,375.012,796.899,364.58z"/>
		<path d="M784.643,244.418c16.557,37.961,21.217,80.952,15.558,121.844c-1.864,11.366-4.551,22.639-8.497,33.468
			c-1.168,3.916-5.398,9.635-0.089,12.252c2.215,0.98,5.045-0.035,6-2.336c2.325-5.73,4.458-11.55,6.153-17.502
			c14.265-50.526,9.116-111.867-14.457-158.873c-0.852-1.609-1.664-3.29-2.7-4.793c-3.483-4.778-10.687,0.45-7.435,5.244
			C781.216,237.163,782.949,240.796,784.643,244.418z"/>
		<path d="M793.209,234.225c-0.097-0.153-0.193-0.306-0.29-0.459c20.324,37.178,27.225,89.666,20.996,131.36
			c-1.266,8.172-3.305,16.189-5.898,24.037c-1.294,4.045-2.622,8.087-4.066,12.082c-1.277,3.6-4.421,8.557,0.431,10.89
			c2.22,0.983,5.038-0.036,6.004-2.336c2.357-5.602,4.244-11.42,6.093-17.207c9.067-26.764,10.49-55.633,7.375-83.573
			c-2.192-19.332-5.804-38.651-12.602-56.933c-3.105-8.131-6.39-16.368-11.092-23.713c-4.017-4.198-10.478,1.694-6.749,6.09
			C793.343,234.385,793.276,234.306,793.209,234.225z"/>
		<path d="M826.305,366.849c-2.243,12.622-5.518,25.045-9.967,37.073c-0.844,2.333,0.816,4.986,3.088,5.651
			c6.597,1.728,7.066-9.027,9.095-13.322c2.804-8.638,4.828-17.5,6.488-26.426c4.12-23.716,4.244-48.208,1.414-72.085
			c-2.99-21.318-9.638-42.12-18.841-61.558c-0.734-1.492-1.471-2.987-2.365-4.391c-3.546-4.828-10.799,0.504-7.371,5.345
			C828.287,276.819,833.439,323.022,826.305,366.849z"/>
		<path d="M825.801,244.679c17.832,40.084,23.69,86.104,13.688,129.21c-1.96,8.629-4.514,17.13-7.383,25.5
			c-1.389,2.506-0.918,5.839,1.907,7.072c6.976,2.281,7.447-7.62,9.312-12.089c1.596-5.152,3.089-10.337,4.358-15.579
			c11.987-48.56,4.967-101.631-17.691-146.16c-1.447-3.378-6.311-3.887-8.219-0.683c-0.946,1.567-0.812,3.517,0.171,4.951
			C823.415,239.389,824.595,242.056,825.801,244.679z"/>
		<path d="M840.635,244.139c14.72,32.58,20.695,68.785,17.896,104.54c-1.099,12.166-3.624,25.48-7.158,37.561
			c-1.179,4.17-2.357,8.35-3.746,12.456c-0.791,2.35,0.776,4.975,3.088,5.655c5.204,1.397,6.261-4.86,7.367-8.557
			c2.536-8.44,4.904-16.961,6.56-25.621c8.709-46.039,1.844-95.333-19.35-137.141c-1.123-3.155-5.241-4.668-7.774-2.179
			c-1.618,1.544-1.911,4.362-0.448,6.11C838.366,239.302,839.509,241.717,840.635,244.139z"/>
		<path d="M871.043,362.487c-1.616,8.834-3.658,17.605-6.18,26.22c-0.97,3.939-4.926,9.916,0.499,12.26
			c6.08,1.937,6.804-5.909,8.3-9.956c2.134-7.215,4.196-15.786,5.683-23.435c9.261-45.488,1.883-94.125-19.311-135.328
			c-3.662-7.365-12.809-1.528-7.353,5.53C871.714,275.809,878.887,320.529,871.043,362.487z"/>
		<path d="M888.171,350.383c-1.091,8.899-2.718,17.777-5.317,26.366c-1.282,4.113-2.717,8.835-4.537,13.379
			c-0.922,2.3,0.327,5.003,2.617,5.883c2.284,0.893,4.963-0.296,5.883-2.621c2.982-7.882,5.52-15.955,7.382-24.179
			c9.309-43.247,2.046-98.982-18.552-138.12c-4.29-4.672-10.779,1.364-6.904,6.139C885.573,271.989,891.405,312.025,888.171,350.383
			z"/>
		<path d="M902.209,358.456c-1.018,5.417-2.434,10.705-4.046,15.972c-1.304,4.07-2.741,8.117-4.374,12.066
			c-0.947,2.293,0.345,5.014,2.617,5.883c2.291,0.9,4.938-0.299,5.883-2.617c3.189-7.917,5.895-16.061,7.802-24.389
			c9.583-44.712,1.686-91.742-16.526-133.316c-2.829-5.985-12.241-1.524-7.261,6.018
			C902.161,275.439,909.562,318.027,902.209,358.456z"/>
		<path d="M918.206,352.524c-1.335,7.302-2.908,14.53-5.095,21.629c-0.803,4.234-5.829,11.09,0.036,13.746
			c2.249,0.868,5.068-0.269,5.883-2.617c2.161-6.196,4.156-12.481,5.63-18.877c10.778-44.643,4.02-92.822-14.956-134.334
			c-3.278-5.067-10.793-0.342-7.769,4.755C917.89,272.715,924.825,313.6,918.206,352.524z"/>
		<path d="M932.29,350.043c-0.993,5.556-2.189,11.074-3.827,16.474c-1.072,3.435-2.144,6.878-3.48,10.219
			c-0.919,2.304,0.328,5.003,2.621,5.883c5.975,1.925,6.927-5.904,8.435-9.917c2.698-8.056,4.581-16.381,5.815-24.785
			c5.58-37.41-0.314-76.126-15.294-110.746c-1.296-2.115-4.131-2.817-6.253-1.524c-4.364,2.789-0.771,7.607,0.381,11.199
			C933.578,279.411,938.153,315.427,932.29,350.043z"/>
		<path d="M945.786,347.641c-1.286,6.991-2.949,13.908-4.626,20.817c-0.743,4.171-4.236,10.065,1.684,11.926
			c6.915,1.233,6.378-9.013,8.062-13.489c0.851-3.568,1.716-7.137,2.471-10.726c7.309-34.652,4.216-78.883-9.247-111.683
			c-1.268-2.136-4.156-2.802-6.257-1.524c-4.055,2.544-1.194,6.679-0.076,10.014C947.892,283.204,950.655,316.149,945.786,347.641z"
			/>
		<path d="M960.124,308.155c0.233,5.98,9.05,5.795,9.105-0.164c-0.02-18.72-1.649-37.651-8.019-55.377
			c-1.479-7.071-11.483-4.327-8.803,2.366C958.605,271.972,960.096,290.192,960.124,308.155z"/>
		<path d="M972.151,286.028c0.097,2.48,2.125,4.515,4.636,4.469c2.439-0.042,4.569-2.158,4.469-4.633
			c-0.533-10.342-2.889-20.52-5.744-30.443c-1.226-7.931-11.654-5.94-9.091,1.469C969.295,266.356,971.566,276.131,972.151,286.028z
			"/>
		<path d="M977.502,255.445c0.221,0.663,0.345,1.367,0.502,2.051c2.69,6.93,12.72,2.209,7.374-6.239
			c-3.413-4.103-9.442-0.024-7.796,4.396C977.558,255.583,977.526,255.516,977.502,255.445z M978.137,256.751
			c-0.184-0.246-0.319-0.519-0.438-0.8C977.819,256.217,977.957,256.485,978.137,256.751z"/>
		<path d="M706.728,400.32c-2.268-1.004-5,0.053-6.007,2.322c-0.473,1.375-1.114,2.672-1.953,3.871
			c-1.361,1.755-2.884,3.439-4.753,4.665c-2.083,1.346-2.475,4.387-1.086,6.346c3.965,4.939,9.317-0.972,12.086-4.248
			C707.709,409.869,712.336,403.239,706.728,400.32z"/>
		<path d="M690.426,433.269c2.547,5.769,8.597,1.583,12.007-0.955c2.902-2.139,5.805-4.306,8.411-6.805
			c5.012-4.79,8.966-10.642,12.009-16.851c2.539-6.671-6.99-9.313-8.906-2.495c-4.316,8.497-11.155,15.347-19.204,20.359
			C691.953,427.741,689.173,429.846,690.426,433.269z"/>
		<path d="M687.747,449.055c3.523,1.759,7.523-0.729,10.932-1.805c14.969-5.842,27.014-18.125,33.968-32.48
			c2.023-3.321,2.036-7.563-2.436-8.575c-2.149-0.336-4.45,1.022-5.072,3.116c-1.471,3.423-3.32,6.672-5.5,9.693
			c-5.693,8.06-13.212,14.982-22.319,18.955c-2.658,1.137-5.367,2.259-8.223,2.777C685.205,441.445,684.343,447.143,687.747,449.055
			z"/>
		<path d="M681.614,463.932c18.814-0.094,35.696-10.88,47.784-24.678c6.249-6.757,10.526-14.959,14.949-22.943
			c-0.023,0.032-0.046,0.065-0.07,0.097c2.178-3.091-0.825-7.997-4.827-6.924c-2.721,0.639-3.63,3.493-4.839,5.682
			c-3.678,6.776-7.646,13.448-12.96,19.085c-6.4,6.726-13.612,12.927-22.176,16.7c-5.354,1.928-11.759,3.907-17.602,3.878
			C675.89,454.777,675.657,463.573,681.614,463.932z M744.132,416.612c-0.048,0.067-0.095,0.133-0.143,0.2
			c-0.117,0.11-0.234,0.219-0.351,0.329C743.825,416.974,743.985,416.796,744.132,416.612z"/>
		<path d="M749.621,411.943c-2.636,5.652-5.644,11.1-8.95,16.388c-11.368,17.869-27.984,34.026-49,39.331
			c-6.103,1.403-12.366,1.948-18.622,1.773c-0.919-0.028-2.037,0.217-2.998,0.983c-3.161,2.31-1.555,7.921,2.397,8.091
			c30.866,2.074,58.144-17.773,74.264-42.807c3.953-5.82,7.375-12.004,10.412-18.349c2.198-3.569,3.017-8.696-2.286-9.583
			C752.128,407.453,750.333,409.607,749.621,411.943z"/>
		<path d="M664.76,489.704c4.085,0.505,8.21,0.751,12.324,0.862c24.393,0.759,48.135-10.588,65.073-27.772
			c9.69-9.792,17.367-21.404,23.498-33.701c1.768-3.539,3.435-7.1,4.809-10.807c1.06-2.02,0.212-4.696-1.703-5.88
			c-3.005-1.946-6.667,0.445-7.173,3.725c-1.76,4.501-3.983,8.837-6.244,13.101c-8.341,15.576-20.463,30.737-35.865,40.105
			c-15.706,10.256-34.813,14.012-53.313,11.368C660.213,479.951,658.902,488.651,664.76,489.704z"/>
		<path d="M651.763,500.469c-0.416,7.584,9.951,5.198,14.845,5.773c53.142,2.633,98.734-38.662,115.902-86.693
			c-0.014,0.026-0.027,0.052-0.042,0.078c0.049-0.095,0.078-0.19,0.119-0.286c0.022-0.061,0.047-0.122,0.069-0.184
			c-0.018,0.052-0.038,0.104-0.057,0.156c1.479-3.495-2.239-7.351-5.818-5.928c-2.087,0.664-2.689,2.666-3.327,4.493
			c-1.973,5.224-4.338,10.327-6.895,15.289c-8.355,15.616-19.577,29.77-33.29,41.015c-18.84,15.58-43.125,24.164-67.616,22.942
			c-2.626-0.037-5.255-0.107-7.871-0.324C655.105,496.004,652.2,497.677,651.763,500.469z"/>
		<path d="M782.51,419.549c0.003-0.006,0.006-0.012,0.01-0.018c0.027-0.072,0.053-0.145,0.08-0.217
			c-0.004,0.009-0.008,0.018-0.011,0.027C782.563,419.411,782.535,419.48,782.51,419.549z"/>
		<path d="M790.285,413.836c-3.489,0.785-3.66,4.78-4.862,7.522c-1.993,5.284-4.337,10.4-6.936,15.412
			c-11.802,23.435-29.793,43.681-52.35,57.351c-16.23,10.091-35.073,16.04-54.203,16.585c-5.108,0.182-10.25,0.258-15.352-0.013
			c-6.013-0.015-6.168,8.765-0.238,9.105c60.407,4.625,111.633-34.573,134.914-88.58c1.582-3.582,2.863-7.267,4.174-10.951
			C797.177,417.006,793.839,412.868,790.285,413.836z"/>
		<path d="M803.057,414.347c-3.297,0.687-3.435,4.2-4.426,6.774c-3.331,8.824-7.396,17.369-11.99,25.599
			c-14.548,26.412-36.603,48.42-63.232,62.609c-16.77,9.227-35.85,12.739-54.825,13.19c-1.614,0.048-3.234,0.056-4.85,0.033
			c-6.027,0.021-6.149,8.803-0.235,9.102c64.606,2.287,117.218-43.302,141.036-100.801c1.477-4.241,4.257-8.531,3.996-13.115
			C807.928,415.334,805.496,413.774,803.057,414.347z"/>
		<path d="M820.044,411.216c-2.541-0.792-5.425,1.035-5.796,3.657c-1.17,4.487-2.664,8.872-4.245,13.225
			c-2.791,7.565-6.152,14.896-9.922,22.02c-14.139,27.022-35.362,50.174-61.605,65.827c-18.28,11.465-39.053,19.026-60.792,19.235
			c-4.878,0.164-9.86,0.224-14.817,0.004c-6.025-0.006-6.149,8.774-0.235,9.105c17.207,0.553,34.754-0.412,51.093-6.253
			c45.293-16.413,81.896-52.814,100.825-96.876c2.906-6.61,5.379-13.411,7.496-20.315
			C823.227,417.432,824.57,412.667,820.044,411.216z"/>
		<path d="M829.579,409.904c-0.815,0.751-1.266,1.717-1.4,2.706c-1.579,6.447-3.762,12.747-6.029,18.978
			c-3.678,9.909-7.944,19.601-12.814,28.982c-17.105,33.437-44.511,61.758-79.211,76.818c-19.612,8.956-40.935,13.193-62.438,13.608
			c-2.681,0.435-5.933-0.853-8.397,0.742c-3.299,2.144-1.989,7.781,1.93,8.215c86.776,2.294,149.178-56.797,173.436-136.823
			c0.721-4.044,4.338-9.269,1.358-12.976C834.401,408.269,831.346,408.269,829.579,409.904z"/>
		<path d="M848.307,407.248c-5.712,0.174-4.79,7.875-6.719,11.833c-4.42,14.479-10.353,28.456-17.22,41.937
			c-21.941,43.719-58.583,83.105-105.79,98.929c-16.959,5.603-34.999,6.568-52.713,5.366c-6.863-1.799-9.712,7.216-2.852,8.889
			c33.487,3.524,67.006-4.479,95.039-23.215c40.832-27.026,69.91-68.637,87.023-114.075c2.511-6.642,4.796-13.379,6.713-20.219
			C853.198,412.799,853.65,407.698,848.307,407.248z"/>
		<path d="M865.167,405.072c-2.408-0.686-5.308,0.91-5.673,3.491c-1.787,8.277-4.397,16.342-7.198,24.323
			c-3.924,11.055-8.609,21.816-13.926,32.273c-12.89,25.388-29.531,48.883-50.347,68.4c-16.047,15.309-34.257,28.5-55.07,36.493
			c-22.382,9.225-46.821,12.205-70.888,10.914c-7.326-2.005-10.31,6.955-3.309,8.829c3.622,0.409,7.272,0.498,10.911,0.516
			c92.283,3.594,161.784-72.371,190.943-153.681c2.479-6.809,4.71-13.725,6.506-20.746
			C868.08,412.225,870.212,406.667,865.167,405.072z"/>
		<path d="M875.665,404.267c-8.705,46.667-29.163,92.711-62.857,126.804c-5.802,5.613-12.204,10.538-18.653,15.376
			c-3.866,2.885-7.803,5.678-11.857,8.288c-2.341,1.157-3.487,4.087-2.148,6.426c1.156,2.082,4.107,3.091,6.193,1.773
			c5.773-3.647,11.292-7.664,16.726-11.798c23.398-17.092,40.734-41.067,54.479-66.302c9.261-17.11,16.067-35.47,21.248-54.194
			c2.177-8.892,5.612-17.896,5.808-27.078C883.231,398.341,876.014,399.695,875.665,404.267z M875.66,404.987
			c0.022,0.272,0.049,0.547,0.12,0.838C875.717,405.549,875.677,405.269,875.66,404.987z"/>
		<path d="M718.91,588.971c-7.594,2.958-15.64,4.636-23.657,6.019c-12.155,1.785-24.428,0.918-36.521-1.117
			c-3.832-0.839-6.825,4.012-4.49,7.097c2.41,3.312,12.519,2.802,16.719,3.568c13.781,1.474,27.687-0.143,41.015-3.793
			c4.008-1.245,8.392-1.998,11.937-4.319C727.736,593.081,723.426,586.694,718.91,588.971z"/>
		<path d="M707.274,607.51c-4.673,1.705-9.591,2.655-14.483,3.484c-10.857,1.5-21.902,0.317-32.607-1.745
			c-2.425-0.509-4.846,1.357-5.245,3.728c-0.686,4.002,3.336,5.552,6.606,5.79c16.753,2.836,35.282,3.508,50.925-3.898
			C716.352,611.356,711.819,605.035,707.274,607.51z"/>
		<path d="M699.558,625.215c-5.308,1.798-10.925,2.46-16.505,2.675c-6.732,0.154-13.439-0.935-19.942-2.614
			c-5.781-1.572-8.321,6.873-2.653,8.714c3.354,0.897,6.769,1.585,10.198,2.126c9.941,1.561,25.332,1.349,34.203-3.571
			C708.742,628.929,704.148,622.666,699.558,625.215z"/>
		<path d="M659.951,647.942c6.178,1.853,12.54,3.425,19.008,3.679c4.091-0.217,12.046,0.313,14.949-2.685
			c2.861-3.254-0.665-8.595-4.741-7.259c-6.678,1.38-13.731,0.951-20.341-0.76c-4.006-0.726-9.936-4.262-11.906,1.342
			C656.194,644.651,657.587,647.183,659.951,647.942z"/>
		<path d="M670.222,663.81c3.762,0.113,8.883,1.22,11.438-2.286c1.307-2.109,0.644-4.961-1.464-6.271
			c-1.672-1.159-3.486-0.398-5.28-0.332c-2.423,0.012-4.861-0.171-7.232-0.687c-3.844-0.975-8.39-3.514-10.371,1.649
			C655.801,662.718,665.665,662.895,670.222,663.81z"/>
		<path d="M662.81,674.445c2.908,0.62,6.869,0.57,8.29-2.542c1.168-2.19-0.121-5.056-2.272-6.029
			c-1.381-0.784-2.887-0.025-4.321-0.368c-3.325-0.95-7.503-3.032-9.51,1.219C652.955,672.144,658.785,673.545,662.81,674.445z"/>
		<path d="M660.224,685.667c7.054,0.821,7.536-9.69,0.395-9.096C654.626,676.409,654.229,685.262,660.224,685.667z"/>
		<path d="M891.661,394.79c-2.058,1.386-1.764,4.037-1.926,6.211c-0.62,8.543-1.96,17.047-3.607,25.447
			c-4.098,21.125-12.071,41.237-21.702,60.412c-7.275,14.301-15.556,28.234-26.041,40.437c-5.131,5.914-11.323,11.987-17.37,17.229
			c-3.943,3.436-8.087,6.655-12.275,9.781c-1.987,1.481-2.322,4.447-0.822,6.385c1.541,1.994,4.409,2.299,6.385,0.823
			c5.249-3.914,10.348-8.005,15.212-12.389c33.238-28.825,57.79-80.701,66.046-123.537c1.643-8.792,2.852-17.644,3.393-26.569
			C899.579,395.076,894.798,392.329,891.661,394.79z"/>
		<path d="M904.009,425.067c-6.25,39.305-21.183,78.336-47.397,108.698c-7.173,8.216-14.76,15.23-23.585,21.873
			c-2.816,2.169-5.663,4.301-8.597,6.307c-2.315,1.218-3.395,4.165-2,6.477c1.199,2.051,4.175,3.005,6.228,1.631
			c6.96-4.721,13.62-9.896,19.992-15.384c40.921-36.811,63.011-93.332,65.992-147.629c0.127-4.529,0.272-9.08-0.015-13.609
			c-0.004-2.421-2.08-4.509-4.551-4.499c-2.67-0.022-4.872,2.454-4.515,5.102c0.168,3.24,0.127,6.49,0.06,9.73
			C905.468,410.887,905.045,418.011,904.009,425.067z"/>
		<path d="M854.823,561.01c-3.139,2.295-6.238,4.686-9.714,6.459c-2.807,0.941-5.106,3.564-3.806,6.628
			c2.395,5.089,7.748,1.817,11.121-0.285c4.162-2.72,8.18-5.646,12.011-8.82c35.811-30.035,56.346-74.895,63.446-120.489
			c2.677-18.561,5.032-38.334,1.689-56.858c-2.743-4.595-9.294-1.435-8.394,3.109c-0.008-0.041-0.021-0.081-0.028-0.121
			c4.164,52.338-10.923,110.499-45.633,150.673C869.138,548.386,862.449,555.264,854.823,561.01z M921.261,391.129
			c0.076,0.265,0.162,0.531,0.291,0.803C921.42,391.677,921.333,391.405,921.261,391.129z"/>
		<path d="M896.609,545.023c-7.265,8.224-15.493,15.492-24.098,22.276c-3.693,2.959-7.41,5.929-11.317,8.604
			c-3.231,2.24-1.673,7.729,2.165,8.115c4.138,0.209,9.587-5.971,13.204-8.303c3.262-2.593,6.523-5.192,9.682-7.906
			c48.636-40.735,64.822-109.493,60.402-170.624c-0.753-4.248,0.09-9.393-2.504-13.027c-1.731-1.777-4.704-1.734-6.442,0
			c-2.619,2.973-0.446,5.829-0.495,9.721c1.399,13.358,1.244,26.809,0.534,40.201C934.817,473.616,922.319,514.277,896.609,545.023z
			"/>
		<path d="M896.466,568.098c-5.729,5.018-11.641,9.883-17.838,14.312c-2.019,1.442-2.297,4.476-0.823,6.385
			c1.565,2.022,4.38,2.259,6.385,0.822c11.607-8.475,22.645-17.854,32.28-28.541c12.693-14.57,23.199-31.102,31.034-48.764
			c6.304-16.499,10.714-33.996,11.872-51.659c0.397-8.311-10.507-6.984-9.15,0.988c-2.764,35.03-17.343,66.811-40.393,93.217
			C905.643,559.542,901.158,563.914,896.466,568.098z"/>
		<path d="M964.681,486.667c-3.558,1.515-2.678,5.909-3.644,8.989c-5.465,25.264-17.654,48.918-34.778,68.25
			c-5.543,6.479-12.012,12.049-18.657,17.362c-2.827,2.29-5.648,4.629-8.621,6.727c-2.026,1.432-2.289,4.487-0.822,6.389
			c3.938,4.578,8.677-1.083,12.05-3.533c5.438-4.396,10.959-8.737,15.982-13.61c17.036-16.976,30.256-37.694,38.227-60.398
			c2.496-6.846,4.487-13.857,5.854-21.017c0.297-2.196,1.251-4.577,0.374-6.737C969.694,486.834,966.939,485.671,964.681,486.667z"
			/>
		<path d="M986.366,500.07c-1.283-2.119-4.064-2.902-6.229-1.635c-2.659,1.465-2.104,4.622-2.788,7.117
			c-4.945,22.557-15.346,43.978-30.497,61.449c-3.278,3.642-6.662,7.114-10.366,10.332c-3.326,2.906-7.165,6.1-11.196,9.063
			c-1.994,1.467-2.311,4.458-0.819,6.385c1.548,2.006,4.399,2.287,6.385,0.823c4.227-3.109,8.251-6.47,12.185-9.935
			c17.336-15.369,30.009-35.691,37.807-57.432C982.54,520.767,988.613,504.761,986.366,500.07z"/>
		<path d="M965.922,571.602c-1.592,1.905-1.082,4.914,0.823,6.388c1.996,1.547,4.785,1.092,6.388-0.822
			c4.123-4.929,7.799-10.199,11.356-15.544c8.674-13.631,14.842-28.858,18.589-44.559c0.544-2.286,1.534-5.081-0.15-7.14
			c-1.57-1.919-4.383-2.371-6.388-0.822c-1.185,0.887-1.687,2.294-1.816,3.697c-1.097,5.082-2.526,10.122-4.172,15.05
			c-3.735,10.46-8.322,20.673-14.447,29.963C972.895,562.547,969.597,567.213,965.922,571.602z"/>
		<path d="M1001.191,564.355c6.76,2.676,7.99-7.942,10.505-12.093c3.095-6.879,5.662-13.978,7.314-21.348
			c0.843-3.385,1.332-6.844,1.838-10.288c0.218-5.177-7.376-6.556-8.881-1.588c-1.249,7.865-2.948,15.677-5.881,23.116
			c-2.209,5.431-4.553,10.82-7.038,16.13C997.993,560.531,998.94,563.283,1001.191,564.355z"/>
		<path d="M1021.112,566.336c7.049,2.727,7.981-8.441,10.245-12.812c2.338-6.682,4.545-13.521,5.149-20.611
			c0.01-5.994-8.658-6.334-9.102-0.37c-0.263,2.508-0.728,5-1.339,7.445c-1.494,5.672-3.485,11.337-5.681,16.898
			C1018.882,559.964,1017.065,564.374,1021.112,566.336z"/>
		<path d="M1039.362,566.647c2.208,1.068,4.982,0.104,6.074-2.144c1.798-3.696,3.418-7.446,4.857-11.295
			c1.152-4.35,5.101-11.727-0.776-14.169c-4.897-1.087-5.939,2.711-6.402,6.639c-0.755,2.822-1.776,5.536-2.85,8.253
			C1039.105,557.454,1033.825,563.867,1039.362,566.647z"/>
		<path d="M1055.539,573.379c6.326,2.488,7.507-6.303,9.472-10.362c1.352-4.139,4.682-11.675-1.581-13.186
			c-3.856-0.707-5.545,3.064-5.771,6.279c-0.553,2.07-1.286,4.065-2.073,6.055C1054.204,565.729,1050.685,570.91,1055.539,573.379z"
			/>
		<path d="M1071.074,578.322c6.499,2.536,8.127-7.224,10.014-11.484c1.064-2.724-1.099-6.106-4.096-6.092
			c-3.88-0.258-4.76,3.859-5.807,6.73C1069.653,571.072,1066.169,575.69,1071.074,578.322z"/>
		<path d="M1083.278,582.425c5.856,3.662,11.042-6.842,4.448-9.148C1082.69,571.568,1078.709,579.537,1083.278,582.425z"/>
		<path d="M741.753,590.657c12.718-5.077,24.492-12.252,35.392-20.494c4.634-3.793-0.851-10.705-5.637-7.154
			c-2.177,1.598-4.361,3.194-6.578,4.738c-10.555,7.372-22.182,13.154-34.304,17.467c-2.914,0.451-5.253,3.571-3.889,6.461
			C729.772,597.66,737.276,591.906,741.753,590.657z"/>
		<path d="M719.32,603.798c0.125,0.014,0.25,0.028,0.375,0.042c-1.715-0.11-3.414,0.702-4.302,2.333
			c-1.154,2.119-0.395,5.067,1.823,6.175c2.327,1.119,4.837,0.114,7.218-0.256c25.414-5.766,49.555-17.323,70.151-33.27
			c3.903-3.017,7.788-6.165,11.292-9.651c1.763-1.748,1.642-4.74-0.114-6.435c-2.719-2.656-6.135-0.656-8.165,1.755
			c-22.192,19.581-49.705,33.842-78.85,39.353C718.941,603.83,719.131,603.812,719.32,603.798z"/>
		<path d="M810.078,576.404c-2.783,2.51-5.724,4.843-8.647,7.19c-15.958,12.824-34.236,22.619-53.545,29.357
			c-9.702,3.251-19.623,5.988-29.828,7.011c-3.489,0.486-8.602-0.919-9.742,3.651c-0.581,2.403,0.937,4.925,3.351,5.502
			c12.69,0.584,25.337-3.142,37.344-6.94c22.199-7.377,42.961-18.865,60.978-33.787c3.956-3.208,7.873-6.516,11.352-10.248
			c1.688-1.816,1.692-4.694-0.118-6.438C816.717,567.729,813.29,573.818,810.078,576.404z"/>
		<path d="M702.496,647.237c0.028-0.005,0.056-0.01,0.084-0.016c-0.207,0.013-0.412,0.033-0.619,0.045
			C702.137,647.256,702.316,647.246,702.496,647.237z"/>
		<path d="M836.134,577.813c-0.88,0.841-1.781,1.659-2.698,2.462c-21.079,17.789-44.463,33.141-70.116,43.464
			c-19.504,7.541-40.057,13.309-61.017,14.412c-7.251-0.093-5.867,10.674,1.016,8.897c-0.083,0.027-0.167,0.055-0.25,0.083
			c-0.163,0.03-0.326,0.06-0.488,0.091c52.254-3.272,101.267-28.622,139.996-62.97C846.74,579.917,840.419,573.726,836.134,577.813z
			"/>
		<path d="M854.681,588.608c-1.649,1.618-3.353,3.167-5.088,4.686c-43.388,38.726-101.227,61.282-159.528,60.113
			c0.182,0.038,0.368,0.076,0.55,0.113c0.044,0.019,0.087,0.036,0.131,0.055c-7.414-1.652-7.997,9.462-0.346,8.994
			c62.899,1.001,125.234-24.263,170.723-67.523C865.33,590.769,858.855,584.493,854.681,588.608z"/>
		<path d="M871.123,594.187c-28.392,28.228-63.233,50.029-101.407,62.264c-26.698,8.536-54.906,12.885-82.947,11.598
			c-1.732-0.175-3.487-0.272-5.175-0.723c-5.188-2.138-8.777,5.338-4.021,8.132c5.614,2.289,11.997,1.696,17.956,1.985
			c65.952,0.043,130.596-27.32,178.03-72.862c1.364-1.285,2.724-2.585,4.003-3.956C881.723,596.226,875.311,590.079,871.123,594.187
			z"/>
		<path d="M887.047,600.916c-29.495,31.93-67.481,55.725-108.699,69.357c-29.903,9.561-61.615,14.37-93.015,12.695
			c-3.274-0.282-6.535-0.639-9.765-1.263c-2.253-0.888-5.026-0.408-6.299,1.837c-1.271,2.214-0.42,4.9,1.677,6.217
			c7.463,2.456,15.637,2.392,23.442,2.7c67.766,0.567,135.384-25.072,185.164-71.167c4.768-4.505,9.558-9.052,13.938-13.938
			c0.812-0.901,1.325-1.948,1.332-3.184C895.034,600.263,889.666,598,887.047,600.916z"/>
		<path d="M656.343,700.891c2.331,4.194,19.193,4.679,24.26,5.41c85.032,4.463,170.649-30.28,232.426-88.134
			c4.049-3.864,8.033-7.814,11.84-11.916c1.685-1.82,1.841-4.615,0.043-6.442c-1.684-1.706-4.754-1.863-6.442-0.043
			c-2.574,2.777-5.252,5.459-7.944,8.126c-4.595,4.543-9.298,8.992-14.176,13.231c-59.26,49.937-137.254,80.336-215.29,76.096
			l0.008,0.013c-5.883-0.487-11.758-1.218-17.542-2.424c-1.755-0.396-3.684-1.198-5.427-0.11
			C655.915,695.916,655.157,698.715,656.343,700.891z"/>
		<path d="M668.381,720.352c92.549,8.466,197.178-32.076,261.832-98.4c6.164-6.247,12.217-12.606,18.267-18.966
			c4.295-4.516,8.614-9.027,12.631-13.795c1.599-1.894,1.104-4.911-0.794-6.389c-3.434-2.671-6.59,0.671-8.611,3.356
			c-2.906,3.256-5.902,6.424-8.906,9.588c-43.19,48.832-95.219,83.708-158.025,102.013c-37.457,11.488-77.421,17.772-116.554,13.399
			c-3.365-0.017-7.021-1.941-10.227-0.568c-2.19,1.225-2.93,4.014-1.752,6.197C658.678,720.498,664.469,719.343,668.381,720.352z"/>
		<path d="M654.409,736.589c6.886,1.29,13.828,2.312,20.821,2.849c78.327,6.616,158.75-17.724,224.081-60.542
			c29.746-20.071,55.453-45.762,78.986-72.705c3.972-4.586-3.015-10.389-6.817-6.04c-8.594,10.35-17.999,19.987-27.548,29.451
			c-49.703,51.777-117.165,83.366-187.082,96.913c-33.3,5.709-67.766,7.14-101.106,1.086
			C650.085,727.158,649.039,735.392,654.409,736.589z"/>
		<path d="M649.062,752.477c3.13,3.412,8.51,2.815,12.72,3.953c13.132,2.224,26.391,3.682,39.712,3.966
			c49.363,1.059,98.691-8.093,145.184-24.432c45.968-16.128,87.799-43.439,120.745-79.357
			c11.071-12.306,22.052-24.835,31.226-38.643c3.368-5.046-4.341-9.916-7.539-5.11c-52.464,76.469-126.096,117.168-216.536,132.716
			c-28.801,4.829-58.193,7.227-87.361,4.979c-8.365-0.797-16.701-1.819-24.98-3.273c-3.902-0.08-8.219-3.009-11.872-1.112
			C648.382,747.47,647.577,750.486,649.062,752.477z"/>
		<path d="M647.228,770.125c1.266,3.626,5.749,3.522,8.884,4.522c19.148,4.563,38.82,6.52,58.478,6.919
			c96.287,1.586,199.198-34.595,267.857-103.16c12.448-13.168,23.372-27.729,33.601-42.665c3.4-5.043-4.359-9.891-7.539-5.11
			c-4.931,7.375-10.245,14.493-15.646,21.529c-55.066,70.05-143.952,106.768-230.516,118.291
			c-36.27,3.558-73.516,3.315-108.966-5.902C649.97,762.915,645.974,766.575,647.228,770.125z"/>
		<path d="M645.519,789.846c4.898,10.012,67.653,15.747,80.929,15.573c110.339,2.289,214.931-35.444,286.971-121.31
			c8.005-9.521,15.811-19.229,23.029-29.363c3.39-5.017-4.299-9.901-7.539-5.11c-6.785,9.551-14.141,18.676-21.654,27.665
			c-60.722,72.611-145.71,111.272-239.458,117.824c-38.432,2.637-78.148,1.81-115.058-10.203
			C649.305,782.101,644.174,785.645,645.519,789.846z"/>
		<path d="M664.303,821.606c19.37,4.161,39.063,6.776,58.849,7.783c92.107,4.076,186.451-22.729,261.465-76.596
			c29.902-22.058,56.746-48.766,79.63-78.114c3.712-4.681-3.739-10.216-7.201-5.576c-6.174,8.211-12.933,15.987-19.82,23.598
			c-52.008,58.872-120.04,96.614-195.815,115.723c-62.653,15.56-129.464,17.256-191.97,0.129c-3.579-2.039-7.996,1.973-6.35,5.726
			C645.3,818.9,658.875,819.81,664.303,821.606z"/>
		<path d="M740.39,856.109c118.7,2.401,230.79-40.799,313.579-126.793c6.4-6.768,12.738-13.587,18.892-20.585
			c5.135-5.837,10.238-11.719,14.91-17.94c1.488-1.98,1.172-4.854-0.812-6.389c-1.941-1.499-4.896-1.171-6.388,0.812
			c-4.672,6.221-9.775,12.1-14.91,17.94c-4.331,4.924-8.904,9.948-13.443,14.746c-73.064,78.462-172.419,123.677-279.43,128.426
			c-41.164,1.847-83.212,0.06-123.082-11.523c-3.559-2.375-8.259,1.631-6.611,5.555c2.188,4.921,20.009,6.857,26.019,8.732
			C692.594,853.484,716.51,855.719,740.39,856.109z"/>
		<path d="M742.967,883.227c95.344,0.57,200.627-27.373,277.396-85.103c23.124-17.474,45.326-36.244,65.489-57.097
			c5.975-6.122,11.836-12.352,17.5-18.764c2.723-2.495,5.256-6.249,1.746-9.311c-5.542-4.217-10.771,7.055-14.927,10.333
			c-12.574,13.599-25.817,26.604-39.751,38.808c-29.608,25.936-61.934,49.514-97.632,66.463
			c-57.508,26.136-120.053,42.08-183.207,45.098c-39.702,1.557-80.294-1.031-118.503-12.42c-3.656-1.61-7.503,2.225-6.007,5.907
			c2.589,4.68,12.772,4.965,17.911,6.809C689.202,879.972,716.103,882.612,742.967,883.227z"/>
		<path d="M1073.443,798.328c13.752-13.516,26.568-27.93,39.049-42.615c4.763-5.689,9.311-11.554,13.813-17.449
			c1.524-1.955,1.15-4.875-0.812-6.388c-1.962-1.517-4.864-1.147-6.388,0.812c-3.312,4.259-6.57,8.553-9.967,12.752
			c-4.202,5.193-8.557,10.254-12.967,15.272c-23.213,26.88-48.094,51.335-78.246,70.806
			c-51.131,32.473-109.228,53.883-168.521,65.643c-61.508,11.173-125.22,11.111-186.292-2.752
			c-4.512-1.163-10.119-3.115-10.363,3.754c0.783,4.834,6.631,4.455,10.391,5.57c24.698,5.476,49.88,8.741,75.137,10.077
			C852.34,919.771,990.986,879.58,1073.443,798.328z"/>
		<path d="M771.759,951.169c49.689,0.367,98.97-9.189,145.789-25.54c83.091-26.97,159.35-77.025,209.085-149.776
			c4.431-6.237,8.732-12.586,12.585-19.196c2.949-5.226-5.543-9.417-8.063-4.234c-12.358,20.133-26.701,39.124-42.766,56.448
			C1045.98,856,990.743,889.288,931.512,910.93c-42.924,16.147-87.845,27.915-133.787,30.339
			c-36.315,1.797-73.354,0.638-108.806-7.953c-4.045-2.067-8.318,2.721-5.907,6.514c1.661,2.468,4.988,2.539,7.623,3.354
			c7.14,1.668,14.38,2.944,21.64,3.96C731.986,949.834,751.871,951.069,771.759,951.169z"/>
		<path d="M1015.612,927.049c17.157-9.895,33.351-21.372,48.511-34.119c37.375-31.154,69.401-68.667,93.326-111.092
			c2.869-5.388-5.449-9.307-8.062-4.233c-14.485,25.069-31.215,48.918-51.011,70.108c-41.571,45.86-91.501,79.23-149.659,100.511
			c-68.782,26.188-142.899,39.931-216.527,33.392c-7.591-0.702-15.192-1.482-22.709-2.786c-2.6-0.43-5.184-0.963-7.741-1.579
			c-3.426-0.379-6.07,3.313-4.586,6.449c2.677,4.432,11.438,3.622,16.312,4.962c15.091,2.166,30.32,3.016,45.545,3.453
			C848.158,994.028,937.585,969.678,1015.612,927.049z"/>
		<path d="M727.467,1031.76c13.595,1.676,27.282,2.635,40.98,2.878c70.003,1.703,140.446-11.562,203.869-41.607
			c57.66-26.894,112.56-62.945,153.898-111.831c15.194-17.74,27.708-37.583,39.32-57.798c3.333-5.815,6.406-11.773,9.251-17.841
			c1.05-2.243,0.356-4.957-1.913-6.15c-2.126-1.111-5.096-0.334-6.15,1.916c-11.417,23.448-25.359,45.698-41.21,66.431
			c-35.34,44.542-82.504,78.577-132.504,104.97c-70.459,38.091-150.73,55.89-230.677,52.649c-13.98-0.65-28.043-1.438-41.843-3.861
			c-1.744-0.812-4.001-0.362-5.31,1.068C710.136,1030.56,722.148,1031.23,727.467,1031.76z"/>
		<path d="M990.081,1034.228c60.915-27.705,117.805-70.262,156.353-125.42c14.631-23.062,26.983-47.641,37.108-72.997
			c2.25-5.553,4.167-11.24,6.477-16.765c0.345-0.769,0.534-1.909,0.175-3.095c-0.352-1.161-1.168-2.151-2.24-2.714
			c-7.843-3.302-8.814,11.313-11.777,16.409c-5.865,15.24-12.716,30.082-20.361,44.509
			c-37.81,76.825-119.664,134.944-198.78,163.627c-65.233,24.027-135.838,32.498-205.088,28.947
			c-3.083-0.295-6.793-1.024-8.19,2.624c-0.774,2.041,0.113,4.658,2.15,5.615c7.804,1.723,16.054,1.174,24.037,1.664
			C845.11,1077.743,921.287,1065.341,990.081,1034.228z"/>
		<path d="M826.071,1114.165c44.918,0.085,89.207-10.218,131.849-23.652c89.152-27.269,173.548-83.556,217.132-167.948
			c10.196-21.17,18.887-43.107,26.129-65.461c2.012-6.346,3.757-12.752,5.359-19.211c0.595-2.407-0.698-4.929-3.144-5.623
			c-2.329-0.659-5.021,0.734-5.62,3.144c-1.203,4.857-2.457,9.693-3.895,14.49c-4.444,14.62-9.461,28.188-15.451,42.6
			c-29.333,77.321-95.463,135.24-169.524,168.925c-59.985,25.743-133.554,47.771-199.187,42.578
			c-3.726-1.073-7.016,3.365-5.066,6.646C807.88,1115.192,820.372,1113.468,826.071,1114.165z"/>
		<path d="M1210.216,927.105c6.84-17.276,11.337-35.428,14.554-53.703c-0.084-4.846,6.051-21.684-1.933-22.389
			c-2.387-0.249-4.855,1.574-5.004,4.053c-0.348,5.61-1.092,11.189-2.01,16.734c-3.874,23.765-11.479,48.08-21.672,70.203
			c-44.099,93.698-147.592,158.88-244.673,186.708c-28.333,7.678-57.317,13.501-86.733,16.089c-8.311,0.7-16.647,1.384-24.991,1.254
			c-2.698-0.528-5.931-0.421-7.045,2.627c-1.356,3.39,1.79,6.444,5.096,6.367C978.803,1154.082,1158.029,1066.987,1210.216,927.105z
			"/>
		<path d="M865.324,1199.31c45.186-2.14,89.799-13.499,132.112-29.156c56.525-20.249,107.409-53.78,149.656-96.319
			c37.844-37.637,70.4-82.135,86.055-133.675c4.089-13.394,7.01-27.123,9.676-40.866c1.627-8.607,3.165-17.26,3.967-25.988
			c0.228-2.471-1.56-4.743-4.049-5.007c-2.443-0.257-4.779,1.581-5.007,4.052c-0.502,5.459-1.314,10.886-2.225,16.292
			c-3.759,21.384-8.422,43.543-16.317,63.98c-18.214,48.738-52.181,90.277-89.832,125.578
			c-41.293,39.54-91.463,68.77-145.473,87.239c-26.969,9.4-54.744,16.616-82.963,21.082c-8.831,1.337-17.686,2.535-26.585,3.327
			c-3.971,1.066-12.454-1.362-14.655,1.982C856.873,1195.835,861.22,1199.809,865.324,1199.31z"/>
		<path d="M1251.154,963.852c5.566-17.469,9.658-35.369,13.097-53.369c1.262-6.62,2.243-13.295,2.995-19.991
			c0.303-2.461-1.688-4.732-4.106-4.96c-7.371-0.115-4.852,11.157-6.61,16.344c-4.55,25.825-10.386,50.669-19.574,75.447
			c-36.319,101.69-133.104,190.626-232.917,229.098c-14.729,5.316-29.649,10.148-44.883,13.797
			c-11.584,2.553-23.276,4.856-35.12,5.721c-4.96-0.328-6.087,7.873-0.865,8.992
			C1063.055,1222.863,1211.639,1098.137,1251.154,963.852z"/>
		<path d="M957.832,1269.389c5.315,1.362,11.009-1.637,16.373-2.357c14.013-3.446,27.85-7.647,41.4-12.61
			c30.121-10.787,59.911-25.839,86.563-43.928c48.79-33.451,93.359-74.788,124.154-125.691
			c20.53-33.493,38.864-69.128,48.255-107.463c4.086-17.369,6.941-35.047,8.371-52.834c0.473-5.772,0.655-11.548,0.89-17.335
			c0.233-2.46-1.654-4.744-4.109-4.96c-2.368-0.221-4.857,1.627-4.957,4.106c-0.235,5.79-0.42,11.563-0.891,17.339
			c-1.184,14.869-3.431,29.655-6.516,44.245c-8.182,39.156-26.602,75.355-47.094,109.408
			c-37.911,62.715-95.557,112.463-159.511,147.409c-28.656,14.856-59.08,26.282-90.451,33.895
			c-3.89,1.481-12.337,1.023-14.401,4.631C954.73,1265.493,955.674,1268.167,957.832,1269.389z"/>
		<path d="M1287.497,1026.847c-15.811,56.195-49.222,105.966-89.847,147.404c-33.763,35.444-72.398,66.451-115.881,89.167
			c-21.479,11.037-43.859,20.092-66.932,27.192c-9.117,2.709-18.292,5.325-27.644,7.069c-5.7,0.832-4.373,9.456,1.036,9.013
			c77.91-16.085,148.855-58.63,204.714-114.713c49.574-47.933,90.47-106.81,106.511-174.652c4.771-19.065,7.422-38.594,9.352-58.139
			c0.83-8.461,1.339-16.936,1.524-25.432c0.053-2.482-2.329-4.477-4.704-4.398c-4.16,0.098-4.685,4.496-4.469,7.765
			c-0.258,8.221-0.895,16.426-1.759,24.608C1297.196,983.755,1293.698,1005.435,1287.497,1026.847z"/>
		<path d="M988.462,1306.685c-0.082,0.01-0.154,0-0.233,0.006c-0.049,0.01-0.097,0.022-0.146,0.032
			C988.211,1306.71,988.336,1306.698,988.462,1306.685z"/>
		<path d="M1325.548,1032.354c-18.119,101.506-86.025,190.7-173.17,244.1c-16.459,10.062-33.409,19.363-51.069,27.163
			c-7.574,3.361-15.224,6.52-22.975,9.444c-5.531,1.982-11.082,4.024-16.786,5.451c-4.465,0.626-5.003,7.281-0.762,8.731
			c4.335,0.761,8.598-1.822,12.762-2.863c9.44-3.205,18.66-6.923,27.829-10.829c15.996-6.946,31.455-14.992,46.521-23.791
			c93.161-53.797,166.507-147,186.271-253.79c2.703-17.918,3.957-36.082,4.009-54.199c-0.795-5.164,2.588-16.175-5.544-15.889
			c-6.55,1.774-2.684,10.151-3.562,15.137C1329.124,998.184,1327.854,1015.352,1325.548,1032.354z"/>
		<path d="M1225.71,1283.413c-14.143,10.15-29.046,19.4-44.363,27.706c-4.604,2.378-9.241,4.677-14.076,6.545
			c-2.993,0.847-6.585,2.122-6.014,5.943c2.52,8.692,13.626,0.112,18.983-1.728c17.901-9,34.86-19.792,51.185-31.38
			c76.737-53.745,134.326-139.635,137.57-235.06c0.705-17.962,0.315-35.997-1.772-53.859c-0.432-3.961-6.103-5.125-8.212-1.894
			c-1.688,2.593-0.223,5.765-0.22,8.633c0.659,6.843,1.112,13.682,1.256,20.556c0.674,19.845-0.462,39.717-3.732,59.308
			C1343.287,1168.332,1290.938,1237.198,1225.71,1283.413z"/>
		<path d="M1161.259,1323.668c-0.003-0.022,0.001-0.038-0.002-0.06c-0.001-0.005-0.004-0.01-0.005-0.015
			C1161.252,1323.593,1161.258,1323.668,1161.259,1323.668z"/>
		<path d="M1398.28,1073.036c0.299,11.257-0.336,22.545-1.391,33.749c-5.767,78.258-52.252,148.952-112.787,196.993
			c-10.028,7.945-20.462,15.365-31.355,22.081c-6.088,3.666-12.266,7.254-18.73,10.226c-4.762,0.865-6.507,6.533-1.968,9.032
			c6.563,1.973,29.75-14.528,36.799-18.819c16.437-11.203,31.994-23.762,46.317-37.573c52.721-50.679,89.532-119.81,91.758-193.856
			c1.145-18.646,0.287-37.438-2.071-55.96c-0.227-2.452-2.525-4.357-4.972-4.092c-2.386,0.232-4.448,2.511-4.091,4.971
			C1397.369,1050.79,1397.886,1061.939,1398.28,1073.036z"/>
		<path d="M1341.729,1311.11c-10.244,9.745-21.474,18.416-33.475,25.894c-4.383,2.271-10.554,5.293-4.943,10.407
			c4.861,2.358,9.422-3.106,13.592-5.12c20.845-13.353,38.54-30.911,54.957-49.299c42.994-48.238,68.239-109.475,75.598-173.544
			c1.056-5.872-8.206-7.206-8.991-1.459C1430.58,1191.619,1396.523,1260.941,1341.729,1311.11z"/>
		<path d="M1470.781,1174.826c-6.084,51.592-30.167,99.617-65.907,137.078c-7.166,7.587-14.935,14.688-23.035,21.277
			c-3.215,2.559-6.919,5.548-10.921,8.037c-3.816,1.272-3.973,6.805-0.349,8.425c6.838,3.145,35.366-25.863,41.236-31.834
			c20.002-21.362,37.344-46.711,49.683-73.406c8.724-21.826,15.195-44.798,18.286-68.115
			C1480.826,1170.428,1471.578,1169.056,1470.781,1174.826z"/>
		<path d="M988.774,573.658c-4.873,4.886-11.632,13.287-12.231,20.385c0.612,4.824,7.668,5.279,8.897,0.586
			c1.581-4.227,3.954-8.145,6.919-11.551c1.922-2.154,3.997-4.189,6.153-6.105c2.378-1.57,3.617-4.694,1.707-7.137
			C996.228,565.172,991.78,570.792,988.774,573.658z"/>
		<polygon points="976.541,594.052 976.542,594.044 976.541,594.037 		"/>
		<path d="M1024.985,569.308c-2.977,1.196-5.865,2.632-8.482,4.497c-10.368,7.412-17.373,19.424-20.244,31.699
			c0,2.482,2.073,4.555,4.555,4.555c3.278,0.059,4.466-3.001,5.04-5.677c3.334-9.013,8.142-18.014,16.342-23.453
			c2.653-1.764,5.594-3.054,8.591-4.108c2.14-0.676,3.577-3.273,2.888-5.498C1032.168,567.029,1028.352,567.622,1024.985,569.308z"
			/>
		<path d="M1016.54,613.039c-1.314,3.618-3.753,7.268-3.553,11.204c1.89,5.873,8.646,4.211,9.397-1.447
			c5.414-14.166,14.38-29.794,29.57-35.202c3.909-1.591,11.359-1.461,10.013-7.565c-0.669-2.428-3.197-3.785-5.601-3.18
			c-3.649,0.955-7.328,1.916-10.74,3.554C1031.731,586.378,1022.706,599.74,1016.54,613.039z"/>
		<path d="M1032.736,641.087c0,2.482,2.073,4.551,4.552,4.551c3.515,0.033,4.434-3.21,5.146-5.981
			c1.336-3.668,2.921-7.233,4.634-10.74c7.01-14.257,18.241-26.36,32.733-33.135c1.548-0.767,3.127-1.457,4.755-2.038
			c3.675-1.33,3.601-7.035,0-8.39c-4.124-1.501-12.223,4.357-16.127,6.331C1050.903,602.299,1037.845,621.418,1032.736,641.087z"/>
		<path d="M1073.049,636.627c-3.458,5.384-7.093,12.22-9.562,18.542c-1.716,3.988-3.534,9.101,2.322,10.33
			c2.235,0.229,4.417-1.339,4.894-3.533c0.936-2.897,2.151-5.699,3.41-8.467c1.737-3.658,3.63-7.247,5.775-10.684
			c9.382-14.998,22.075-29.357,39.347-35.18c2.785-1.475,6.587-1.345,8.719-3.804c2.428-3.082-0.6-8.021-4.459-7.162
			C1101.205,602.31,1084.993,617.527,1073.049,636.627z"/>
		<path d="M1099.278,655.473c-4.161,5.701-7.956,11.698-10.993,18.079c-1.3,2.379-2.307,5.566,0.032,7.667
			c2.926,2.742,7.238,0.473,7.893-3.137c1.605-3.429,3.477-6.717,5.443-9.949c10.279-16.475,25.527-30.799,44.618-35.949
			c2.387-0.586,4.886-1.145,7.419-1.455c1.108-0.119,2.165-0.544,3-1.437c2.779-2.755,0.374-8.041-3.558-7.649
			C1131.229,624.14,1112.15,638.077,1099.278,655.473z"/>
		<path d="M1129.805,671.886c-8.834,8.363-16.612,17.884-22.612,28.488c-0.976,1.844-2.227,3.633-2.586,5.722
			c-0.36,2.458,1.795,4.719,4.156,4.922c2.017,0.209,3.873-1.09,4.596-2.904c-0.049,0.123-0.086,0.25-0.145,0.369
			c10.802-20.584,28.21-38.715,49.957-47.568c4.445-1.726,8.927-3.443,13.549-4.634c3.497-0.447,6.593-1.602,6.123-5.774
			c-1.137-5.34-7.268-3.532-10.968-2.325c-6.985,2.219-13.924,4.729-20.447,8.097
			C1143.572,660.488,1136.282,665.766,1129.805,671.886z M1113.503,707.748c0.081-0.269,0.141-0.545,0.169-0.83
			C1113.643,707.2,1113.585,707.477,1113.503,707.748z"/>
		<path d="M1134.78,714.015c-3.072,4.12-13.102,11.77-5.253,15.974c4.089,1.583,5.92-2.903,8.106-5.411
			c9.661-11.524,21.187-21.563,34.42-28.779c7.914-4.163,15.653-6.753,24.634-8.961c3.871-1.024,10.033-0.639,9.344-6.354
			c-0.434-2.496-2.806-4.063-5.263-3.714c-11.25,1.939-22.323,5.517-32.487,10.739
			C1155.653,694.237,1144.373,703.425,1134.78,714.015z"/>
		<path d="M1142.356,738.846c-1.216,1.607-2.975,3.004-3.483,5.021c-0.548,2.387,1.021,4.943,3.437,5.445
			c2.508,0.632,4.48-1.174,5.738-3.111c5.074-6.06,10.891-11.44,17.262-16.113c13.144-9.591,28.786-15.389,44.961-16.987
			c3.744-0.519,9.401,0.95,10.012-4.334c0.221-2.439-1.656-4.761-4.131-4.942c-21.146,0.077-42.065,7.944-58.749,20.814
			C1151.949,728.875,1146.867,733.615,1142.356,738.846z"/>
		<path d="M1188.297,739.544c-10.232,5.946-19.401,13.743-27.213,22.619c-1.251,1.616-2.866,3.048-3.721,4.922
			c-0.815,2.343,0.303,4.975,2.667,5.858c2.961,1.194,5.192-1.2,6.731-3.413c2.354-2.833,5.183-5.777,8.145-8.602
			c6.004-5.5,12.46-10.509,19.612-14.436c6.604-3.598,13.706-6.18,21.023-7.894c4.556-1.052,9.156-2.047,13.802-2.594
			c2.694,0.101,5.104-2.007,4.981-4.777c-0.925-7.088-9.67-3.522-14.297-2.906C1208.924,730.362,1198.104,733.899,1188.297,739.544z
			"/>
		<path d="M1180.307,782.32c-2.423,3.416-8.513,7.525-6.813,12.154c0.923,2.31,3.772,3.331,5.986,2.368
			c2.447-1.323,3.454-4.157,5.44-6.024c5.028-5.744,10.655-10.93,16.897-15.331c11.855-8.427,25.801-13.451,40.148-15.526
			c2.457-0.328,4.184-2.778,3.814-5.192c-0.385-2.486-2.731-4.138-5.192-3.81c-8.603,1.277-17.07,3.586-25.187,6.702
			C1202.1,763.175,1190.035,771.712,1180.307,782.32z"/>
		<path d="M1219.898,781.944c-8.717,3.816-16.637,9.306-23.392,15.996c-2.678,3.079-6.758,6.049-7.803,10.095
			c-0.199,2.472,1.553,4.736,4.064,4.997c2.616,0.362,4.159-1.808,5.516-3.641c5.813-6.793,12.74-12.681,20.67-16.858
			c6.262-3.299,12.928-5.718,19.83-7.278c3.506-0.757,7.049-1.436,10.622-1.787c2.468-0.242,4.159-2.874,3.785-5.213
			c-1.083-5.645-7.711-3.43-11.669-2.827C1234.088,776.755,1226.809,778.884,1219.898,781.944z"/>
		<path d="M1214.327,812.455c-3.058,3.029-9.719,9.034-9.993,13.317c0.141,2.478,2.158,4.503,4.68,4.427
			c1.746-0.051,3.35-1.175,4.055-2.728c2.079-2.923,4.485-5.589,7.098-8.043c10.908-10.061,25.278-15.127,39.838-16.802
			c2.755,0.179,5.308-1.872,5.222-4.729c-0.827-7.101-9.57-3.633-14.176-3.002C1237.456,797.24,1224.597,803.191,1214.327,812.455z"
			/>
		<path d="M1239.984,823.416c-5.874,3.746-11.044,8.527-15.184,14.134c-2.677,3.206-5.224,7.757-0.22,10.217
			c5.093,1.818,6.764-4.73,9.7-7.496c4.002-4.684,8.946-8.501,14.393-11.363c4.774-2.477,9.927-4.056,15.16-5.221
			c3.966-1.354,11.1,0.25,11.177-5.732c-0.394-5.685-6.715-4.496-10.637-3.675C1255.83,815.962,1247.321,818.609,1239.984,823.416z"
			/>
		<path d="M1240.518,862.241c0.424,3.886,5.962,5.185,8.148,2.008c2.738-4.874,6.811-8.916,11.388-12.09
			c4.206-2.721,8.753-4.952,13.4-6.809c3.766-1.897,9.966-0.369,10.098-6.117c-1.414-10.543-20.073,0.852-25.272,3.311
			C1252.673,845.619,1240.458,855.529,1240.518,862.241z"/>
		<path d="M1273.033,866.561c-4.652,2.357-17.549,9.076-9.924,14.797c2.509,1.44,5.161-0.04,6.758-2.071
			c1.672-1.435,3.51-2.66,5.436-3.728c2.901-1.432,5.917-2.69,9.066-3.463c3.809-0.913,4.382-6.596,0.933-8.347
			C1281.368,862.077,1276.747,865.257,1273.033,866.561z"/>
		<path d="M1280.905,887.011c-3.357,1.754-8.744,4.614-6.876,9.184c0.922,2.308,3.792,3.31,5.997,2.34
			c1.237-0.534,1.886-1.632,3.001-2.302c3.296-1.877,7.386-2.912,5.706-7.74C1287.344,885.28,1283.489,885.277,1280.905,887.011z"/>
		<path d="M871.436,1214.512c12.982,0.756,25.969-1.013,38.497-4.387c5.684-1.789,3.072-10.364-2.674-8.702
			c-11.664,3.083-23.785,4.802-35.859,3.941C864.217,1204.517,864.275,1214.864,871.436,1214.512z"/>
		<path d="M882.968,1229.176c9.404,0.286,18.801-0.53,28.01-2.461c2.436-0.47,4.102-2.849,3.647-5.306
			c-0.449-2.422-2.867-4.12-5.303-3.646c-3.697,0.715-7.43,1.348-11.164,1.801c-6.777,0.771-13.628,0.518-20.411,0.403
			c-3.308,0.647-5.041,4.693-2.617,7.461C877.064,1229.679,880.331,1228.966,882.968,1229.176z"/>
		<path d="M881.29,1241.349c3.116,1.141,6.581,0.968,9.857,1.179c8.311,0.258,16.731-0.428,24.766-2.632
			c5.633-1.99,2.865-10.364-2.856-8.646c-9.233,2.347-18.974,2.777-28.423,1.663c0.219,0.074,0.469,0.182,0.679,0.276
			C879.956,1230.725,876.095,1238.661,881.29,1241.349z"/>
		<path d="M925.567,1252.454c3.793-0.739,7.561-1.956,6.421-6.677c-1.252-3.828-5.3-3.316-8.343-2.209
			c-2.529,0.645-5.155,1.313-7.838,1.879c-5.734,1.208-11.593,1.797-17.453,1.706c-2.671-0.089-5.335-0.262-7.986-0.618
			c-1.449-0.354-2.963-0.752-4.37,0.013c-2.147,1.04-3.304,3.91-2.108,6.086c1.789,3.426,6.324,2.91,9.611,3.387
			C904.31,1256.942,915.148,1255.298,925.567,1252.454z"/>
		<path d="M939.166,1258.541c-10.332,2.921-21.051,5.046-31.831,4.217c-5.404-0.315-10.708-1.378-15.965-2.526
			c-3.882-0.159-6.138,5.146-3.219,7.774c1.829,1.602,4.362,1.715,6.627,2.265c15.541,3.399,31.678,1.545,46.809-2.949
			C947.316,1265.57,944.94,1257.075,939.166,1258.541z"/>
		<path d="M927.008,1281.314c-0.32-2.35-2.695-4.376-5.131-3.895c-2.81,0.555-5.673,0.915-8.529,1.111
			c-4.57,0.6-10.276-0.395-14.881-1.596c-4.89-0.055-6.279,7.022-1.716,8.782c4.025,1.423,8.3,1.99,12.556,2.062
			c2.961,0.025,5.939-0.217,8.877-0.57C921.888,1286.787,927.608,1286.435,927.008,1281.314z"/>
		<path d="M899.461,1303.504c7.388,1.561,15.099,0.332,22.366-1.349c2.408-0.447,4.159-2.85,3.678-5.284
			c-0.413-2.326-2.873-4.273-5.284-3.678c-5.797,1.293-11.813,2.462-17.756,1.624c-2.446-0.495-5.136-2.062-7.356-0.032
			C891.154,1298.646,894.888,1302.997,899.461,1303.504z"/>
		<path d="M919.587,1309.85c-2.38,0.553-4.803,0.851-7.228,1.121c-3.266,0.392-6.563,0.545-9.821-0.009
			c-2.096-0.229-3.648-1.349-5.897-0.316c-3.548,1.512-3.369,7.198,0.349,8.383c2.087,0.666,4.309,1,6.484,1.232
			c6.224,0.478,12.547-0.337,18.624-1.67c2.847-0.339,4.916-3.229,3.999-6.012C925.23,1309.811,922.138,1308.833,919.587,1309.85z"
			/>
		<path d="M901.07,1335.246c7.174,0.729,14.686,0.6,21.672-1.325c2.354-0.773,3.704-3.351,2.945-5.726
			c-2.035-5.187-6.686-2.259-10.661-2.044c-5.655,0.75-11.845,0.453-17.474-0.798c-2.425,0.1-4.537,2.262-4.362,4.736
			C893.315,1334.145,897.857,1334.873,901.07,1335.246z"/>
		<path d="M894.05,1350.069c2.969,1.79,6.656,2.012,10.02,2.425c5.096,0.192,10.21-0.619,15.12-1.941
			c2.4-0.634,3.671-3.457,2.945-5.726c-0.36-1.122-1.161-2.08-2.201-2.632c-1.298-0.713-2.731-0.579-4.095-0.168
			c-5.672,1.33-11.823,2.228-17.417,0.129c0.14,0.062,0.279,0.125,0.419,0.189c0.062,0.039,0.125,0.078,0.189,0.117
			C894.039,1339.578,889.39,1346.667,894.05,1350.069z"/>
		<path d="M900.514,1369.312c6.302,0.346,12.822-0.245,18.859-2.164c2.329-0.844,3.725-3.294,2.945-5.727
			c-0.733-2.293-3.393-3.792-5.726-2.945c-2.595,0.914-5.343,1.237-8.063,1.572c-2.737,0.286-5.509,0.485-8.245,0.06
			c-2.956-0.757-6.282-1.922-8.141,1.495C889.686,1367.343,896.103,1368.98,900.514,1369.312z"/>
		<path d="M892.605,1384.288c2.567,1.972,6.249,1.755,9.332,2.229c5.279-0.263,20.81,1.138,18.905-7.467
			c-1.319-3.589-4.676-3.607-7.746-2.323c-4.694,0.852-9.609,0.999-14.322,0.222c-2.388-0.611-5.179-1.052-6.805,1.356
			C890.655,1380.161,890.96,1382.776,892.605,1384.288z"/>
		<path d="M896.92,1403.193c5.032,0.736,24.544,1.729,22.245-6.805c-1.65-4.755-5.805-3.14-9.461-2.212
			c-4.707,0.739-9.483,0.436-14.152-0.37c-2.482,0-4.551,2.069-4.551,4.551C890.941,1401.602,894.069,1403.124,896.92,1403.193z"/>
		<path d="M891.785,1418.105c3.024,1.812,7.283,1.646,10.768,1.906c4.41-0.062,8.832-0.89,13.019-2.287
			c2.355-0.661,3.879-3.222,3.179-5.601c-2.17-5.64-6.778-2.454-10.961-1.771c-3.896,0.844-7.913,0.588-11.804-0.149
			c-1.757-0.54-3.778,0-4.978,1.553C889.517,1413.681,889.843,1416.609,891.785,1418.105z"/>
		<path d="M890.216,1432.787c0.748,0.83,1.848,1.157,2.888,1.424c2.848,0.694,5.762,1.123,8.689,1.282
			c5.205-0.316,19.16,0.808,16.647-7.759c-2.497-5.111-7.088-1.34-11.316-1.504c-3.518,0.294-7.056,0.209-10.513-0.54
			c-2.133-0.665-4.656-1.188-6.395,0.659C888.435,1428.063,888.49,1431.053,890.216,1432.787z"/>
		<path d="M890.421,1451.734c4.408,1.05,8.958,1.526,13.489,1.578c3.649-0.263,12.627-0.046,14.846-2.909
			c2.513-2.976-0.344-8.045-4.22-7.293c-2.518,0.507-5.101,0.813-7.659,1.013c-5.209,0.307-10.341-0.374-15.434-1.38
			C886.091,1442.806,885.224,1450.481,890.421,1451.734z"/>
		<path d="M886.992,1469.597c4.748,2.531,10.46,2.86,15.753,3.305c4.398,0.141,17.335,0.264,20.088-3.044
			c2.512-2.978-0.346-8.052-4.22-7.297c-2.655,0.543-5.365,0.986-8.069,1.214c-4.956,0.241-9.947,0.106-14.827-0.839
			c-2.072-0.263-3.903-1.321-5.966-1.533C885.504,1461.302,883.568,1467.107,886.992,1469.597z"/>
		<path d="M889.66,1489.68c6.956,1.621,32.523,2.525,36.785-3.187c2.14-3.273-1.336-7.961-5.096-6.727
			c-3.114,0.937-6.359,1.464-9.597,1.754c-6.854,0.384-13.813,0.598-20.573-0.807c-2.921-0.263-5.72-2.621-8.634-1.51
			c-2.478,0.989-3.61,4.201-2.212,6.478C882.338,1488.658,886.485,1488.793,889.66,1489.68z"/>
		<path d="M900.665,1496.73c-1.634,0.245-3.282,0.388-4.93,0.465c-6.039-0.384-12.251-1.372-17.679-4.164
			c-3.081-1.483-6.849,1.131-6.449,4.576c0.207,4.975,11.462,6.908,15.501,7.716c4.744,0.695,13.68,2.336,17.467-1.118
			C907.224,1501.324,904.578,1496.149,900.665,1496.73z"/>
		<path d="M891.183,1512.221c-6.993-0.88-14.003-2.714-19.795-6.886c-3.766-4.092-10.259,0.845-7.215,5.572
			c6.621,6.527,16.382,8.954,25.354,10.27C895.44,1522.166,897.022,1513.35,891.183,1512.221z"/>
		<path d="M883.688,1526.169c-6.764-2.148-13.822-4.86-19.046-9.812c-5.19-4.885-12.261,2.882-4.512,8.209
			c6.083,4.928,13.601,8.075,21.031,10.353C886.951,1536.483,889.386,1527.88,883.688,1526.169z"/>
		<path d="M868.947,1538.212c-2.077-1.011-3.971-2.346-5.784-3.772c-3.008-2.656-5.902-5.475-8.371-8.648
			c-1.133-1.509-1.58-3.48-3.593-4.185c-3.696-1.547-7.55,2.557-5.815,6.164c4.655,8.014,11.999,14.843,20.308,18.952
			c3.565,1.611,7.542-2.551,5.837-6.062C871.024,1539.502,870.092,1538.703,868.947,1538.212z"/>
		<path d="M851.902,1544.637c-1.836-1.593-3.46-3.46-4.927-5.39c-1.828-2.729-3.806-5.445-5.049-8.503
			c-0.422-2.442-2.102-4.73-4.823-4.667c-6.18,0.581-4.687,7.068-2.339,10.835c3.088,5.576,6.803,10.988,11.754,15.071
			C851.398,1555.418,856.624,1548.305,851.902,1544.637z"/>
		<path d="M827.275,1532.442c-0.156-6.916-10.142-5.78-9.042,1.098c0.758,6.748,3.203,13.307,7.909,18.303
			c4.123,4.322,10.621-1.638,6.708-6.157C829.446,1542.084,827.755,1537.314,827.275,1532.442z"/>
		<path d="M813.519,1531.033c-0.072,0.662-0.284,1.296-0.65,1.863c3.555-7.729-8.721-10.055-8.555-1.364
			c-0.329,7.302,0.786,15.216,4.85,21.423c3.428,4.933,10.792,0.1,7.642-4.947C813.686,1543.091,813.012,1536.745,813.519,1531.033z
			"/>
		<path d="M799.568,1528.576c-0.042,0.146-0.085,0.295-0.128,0.444c-0.027,0.061-0.053,0.122-0.08,0.183
			c2.138-5.333-5.505-8.931-8.224-3.874c-2.812,8.685-2.078,18.598,1.274,27.042c1.521,3.608,7.216,3.275,8.39-0.417
			c0.879-2.316-0.768-4.449-1.205-6.679C798.301,1539.839,798.11,1533.998,799.568,1528.576z"/>
		<path d="M780.795,1517.139c-7.241,5.46-5.824,24.538-3.661,32.515c1.974,5.641,10.347,2.878,8.65-2.849
			c-1.609-7.854-2.399-16.61,1.256-24.008C788.509,1519.168,784.277,1515.275,780.795,1517.139z"/>
		<path d="M769.865,1511.761c-3.686-0.293-5.19,3.675-6.156,6.569c-3.136,9.576-2.947,19.954-1.189,29.788
			c1.287,5.862,9.93,4.159,8.945-1.71c-0.229-1.15-0.401-2.312-0.549-3.474c-0.79-6.781-0.856-13.754,0.991-20.377
			c0.448-2.288,2.284-4.182,2.265-6.531C774.082,1513.756,772.115,1511.832,769.865,1511.761z"/>
		<path d="M756.56,1510.315c-5.742-2.614-7.379,4.636-8.361,8.732c-2.12,8.275-1.855,17.007,0.403,25.222
			c1.824,5.519,10.231,3.007,8.701-2.647c-1.983-7.259-1.916-14.985,0.205-22.204
			C758.592,1515.941,760.587,1512.813,756.56,1510.315z"/>
		<path d="M736.141,1510.65c-3.852,2.728-3.52,13.431-2.383,17.634c1.005,3.767,6.727,4.166,8.365,0.68
			c0.82-1.563,0.431-2.869,0.075-4.565c-0.181-2.69-0.094-5.437,0.572-8.06C744.768,1512.432,739.729,1508.126,736.141,1510.65z"/>
		<path d="M726.995,1518.963c0.125-1.412-0.399-2.896-1.458-3.863c-3.989-3.288-8.799,0.771-7.51,5.423
			c0.603,3.332,1.594,6.603,2.952,9.704c2.701,5.336,10.644,1.518,8.211-3.932C728.158,1523.961,727.476,1521.466,726.995,1518.963z
			"/>
		<path d="M715.159,1527.381c-1.635-1.933-4.48-2.079-6.417-0.534c-2.149,1.709-1.867,4.76-0.605,6.915
			c1.244,2.542,2.632,5.117,4.836,6.959c4.545,3.889,10.48-2.624,6.143-6.724C717.005,1532.324,716.566,1529.513,715.159,1527.381z"
			/>
		<path d="M711.239,1543.177c-1.037-0.763-1.38-1.013-2.576-2.075c-3.978-4.579-10.857,1.198-6.949,5.9
			c1.293,1.359,2.787,2.531,4.302,3.636C710.983,1553.941,716.055,1546.724,711.239,1543.177z"/>
		<path d="M702.797,1552.207c-5.887-3.219-10.083,6.141-3.665,8.265c-0.067-0.019-0.135-0.038-0.202-0.058
			c-0.166-0.073-0.332-0.143-0.499-0.217c0.424,0.224,0.833,0.488,1.243,0.733C705.927,1563.603,709.225,1554.772,702.797,1552.207z
			"/>
		<path d="M910.529,1504.68c1.577,0.646,3.292,0.211,4.925,0.075c5.711-0.611,11.301-2.352,16.17-5.438
			c5.139-3.086,0.627-10.803-4.555-7.884c-2.613,1.65-5.517,2.947-8.546,3.587c-2.054,0.383-4.114,0.728-6.197,0.903
			c-0.999-0.01-2.053,0.299-2.872,0.941C906.717,1498.896,907.378,1503.469,910.529,1504.68z"/>
		<path d="M940.39,1507.045c0.923-3.754-3.791-7.024-6.951-4.715c-7.112,4.739-15.424,8.522-24.048,9.013
			c-7.426-0.714-7.057,9.942,0.322,9.091c8.559-0.257,16.771-3.64,24.215-7.67C936.294,1511.23,939.677,1510.079,940.39,1507.045z"
			/>
		<path d="M946.201,1521.511c2.687-3.211,7.375-7.453,2.617-11.142c-2.383-1.609-5.351-0.48-6.742,1.842
			c-2.64,3.454-5.587,6.703-9.005,9.406c-3.152,2.33-6.498,4.504-10.223,5.793c-4.224,0.847-4.906,6.628-1.108,8.548
			c3.042,1.389,6.253-0.882,9.002-2.079C936.633,1530.796,941.936,1526.62,946.201,1521.511z"/>
		<path d="M962.057,1516.167c0.269-5.984-8.427-6.61-9.084-0.648c-1.277,6.885-4.808,13.353-9.667,18.369
			c-2.27,2.237-6.113,3.791-4.841,7.697c5.024,10.163,16.743-7.323,19.243-12.254
			C959.801,1525.225,961.448,1520.756,962.057,1516.167z"/>
		<path d="M975.385,1517.906c0.265-5.991-8.438-6.607-9.081-0.648c-0.332,3.04-1.004,6.034-1.744,8.999
			c-1.169,4.286-3.29,8.221-6.012,11.716c-0.727,0.926-1.458,1.852-2.305,2.672c-2.327,1.638-2.596,5.316-0.38,7.162
			c3.887,3.264,7.509-1.111,9.749-4.109c2.126-2.767,4.11-5.687,5.505-8.899C973.499,1529.474,974.708,1523.678,975.385,1517.906z"
			/>
		<path d="M984.687,1515.673c-2.411,0.135-4.512,2.333-4.288,4.804c0.117,1.277-0.084,2.56-0.228,3.83
			c-0.96,7.439-3.805,14.621-8.288,20.644c-2.47,2.414-4.372,5.46-1.341,8.366c2.538,2.224,5.873,0.855,7.599-1.639
			c2.661-3.22,4.839-6.855,6.606-10.633c2.86-6.62,4.932-13.829,4.743-21.084C989.266,1517.489,987.226,1515.531,984.687,1515.673z"
			/>
		<path d="M997.899,1523.711c-2.393-0.171-4.8,1.738-4.864,4.217c-0.026,0.886-0.093,1.77-0.203,2.647
			c-0.429,3.151-1.302,6.243-2.919,8.999c-1.829,2.739-4.53,5.111-1.845,8.459c6.304,5.714,10.862-5.492,12.499-10.277
			C1001.619,1533.349,1004.625,1524.691,997.899,1523.711z"/>
		<path d="M1013.059,1541.958c1.626-5.757-6.8-8.356-8.7-2.699c-0.952,3.015-2.833,5.705-5.089,7.893
			c-3.431,1.651-4.456,6.175-1.032,8.434C1004.339,1559.156,1011.639,1546.797,1013.059,1541.958z"/>
		<path d="M1018.837,1559.284c6.01-6.235-1.967-12.981-6.357-6.82c-1.245,2.101-3.044,3.797-4.983,5.254
			c-2.086,1.325-4.53,2.449-4.361,5.398c0.091,2.5,2.175,4.276,4.558,4.354C1012.07,1566.915,1016.063,1562.495,1018.837,1559.284z"
			/>
		<path d="M1007.656,1567.478c0.072,0.001,0.143,0.004,0.21,0.006c-0.058,0-0.113-0.014-0.171-0.015
			C1007.682,1567.471,1007.669,1567.477,1007.656,1567.478z"/>
		<path d="M1017.701,1566.585c-0.786,0.747-1.638,1.446-2.606,1.945c-1.345,0.745-2.917,0.863-3.882,2.272
			c-1.453,1.926-1.14,4.957,0.89,6.381c2.549,1.972,5.752,0.29,8.147-1.111c3.409-1.954,7.458-5.733,3.888-9.547
			C1022.344,1564.762,1019.467,1564.851,1017.701,1566.585z"/>
		<path d="M1015.704,1587.349c3.361,3.231,10.795-0.033,9.294-4.979C1022.565,1575.241,1010.169,1581.06,1015.704,1587.349z"/>
		<path d="M1046.067,1301.284c-15.246,6.278-30.914,11.868-47.233,14.561c-3.245,0.709-6.75,0.221-9.881,1.249
			c-3.56,1.743-3.097,7.32,0.759,8.408c20.602-0.059,40.446-8.321,59.432-15.642
			C1054.722,1307.65,1051.689,1299.37,1046.067,1301.284z"/>
		<path d="M1052.723,1331.747c5.606-2.047,2.487-10.583-3.077-8.576c-13.343,5.048-26.716,11.01-40.986,12.727
			c0.191-0.003,0.379-0.006,0.57-0.01c0.042,0.007,0.084,0.015,0.126,0.022c-1.23-0.099-2.495,0.288-3.459,1.185
			c-1.806,1.677-1.937,4.636-0.232,6.435C1010.776,1349.146,1045.152,1334.495,1052.723,1331.747z"/>
		<path d="M1139.253,1306.877c-21.351,12.033-43.357,23.036-66.462,31.297c-15.401,5.39-31.129,9.95-47.136,13.155
			c-4.958,0.771-4.967,8.134-0.024,8.966c41.679-7.066,81.135-24.637,117.807-45.328
			C1148.702,1312.043,1144.554,1304.247,1139.253,1306.877z"/>
		<path d="M1156.155,1332.681c5.257-2.933,1.115-10.728-4.185-8.09c-25.824,14.01-52.185,27.581-80.498,35.821
			c-7.069,1.913-14.118,4.02-21.353,5.201c-4.913-0.049-6.296,6.864-1.806,8.747c2.217,0.868,4.656-0.097,6.913-0.417
			c7.504-1.625,14.925-3.648,22.284-5.826C1105.11,1359.712,1130.859,1346.352,1156.155,1332.681z"/>
		<path d="M1048.37,1374.389c-0.02-0.008-0.036-0.02-0.056-0.029c-0.042-0.016-0.085-0.023-0.127-0.04
			C1048.187,1374.32,1048.369,1374.389,1048.37,1374.389z"/>
		<path d="M1099.494,1381.157c35.067-12.081,68.022-29.84,99.013-50.085c4.861-3.558-0.326-10.717-5.242-7.446
			c-35.885,23.467-74.542,43.41-115.985,54.925c-4.182,1.148-8.35,2.389-12.625,3.148c-5.478-0.022-6.248,8.102-0.831,9.069
			c5.954-0.13,11.73-2.486,17.484-3.92C1087.411,1385.092,1093.483,1383.205,1099.494,1381.157z"/>
		<path d="M1215.915,1341.738c-1.457-2.065-4.284-2.482-6.346-1.104c-6.057,4.059-12.182,8.03-18.414,11.819
			c-21.546,13.239-45.065,25.743-69.158,34.21c-14.563,5.019-29.312,9.808-44.526,12.399c-5.72,0.251-5.626,8.93,0.114,9.092
			c49.73-8.576,95.631-32.193,137.225-60.074C1216.877,1346.699,1217.318,1343.729,1215.915,1341.738z"/>
		<path d="M1151.371,1410.531c44.491-16.375,86.078-40.22,123.323-69.493c4.891-3.586-0.437-10.797-5.245-7.446
			c-36.175,28.455-76.533,51.74-119.716,67.836c-18.04,6.63-36.65,11.86-55.64,14.908c-4.545-0.279-7.161,5.077-3.618,8.161
			c3.223,2.605,11.927-0.824,16.145-1.222C1121.835,1420.18,1136.788,1415.852,1151.371,1410.531z"/>
		<path d="M1201.069,1413.723c33.372-14.472,63.345-35.503,92.29-57.293c4.817-3.591-0.576-10.797-5.335-7.382
			c-1.292,0.99-2.581,1.987-3.874,2.973c-20.82,15.415-41.344,29.956-64.283,42.44c-22.533,11.905-46.256,21.52-70.656,28.861
			c-11.51,3.427-23.137,6.506-34.982,8.539c-3.617,0.95-8.964-0.804-9.944,4.306c-0.385,2.39,1.31,4.907,3.771,5.221
			c6.268,0.396,12.431-1.587,18.556-2.681C1152.182,1432.867,1177.122,1424.399,1201.069,1413.723z"/>
		<path d="M1330.312,1360.569c2.982-2.577,0.849-7.858-2.999-7.845c-1.253-0.039-2.357,0.448-3.287,1.257
			c-3.215,2.799-6.488,5.537-9.767,8.261c-42.393,34.869-91.211,62.307-143.797,78.569c-11.156,3.368-22.526,6.019-34.027,7.912
			c-4.554,0.675-9.115,1.395-13.682,1.941c-3.929,0.184-5.601,5.676-2.435,8.076c1.531,1.315,3.581,1.038,5.419,0.719
			c9.505-1.305,19.008-2.707,28.356-4.903C1219.525,1438.761,1279.646,1404.446,1330.312,1360.569z"/>
		<path d="M1219.67,1456.033c49.315-16.605,92.323-47.313,129.776-82.925c4.376-4.055,8.789-8.119,12.791-12.559
			c2.618-2.921-0.203-7.896-3.996-7.378c-1.907,0.122-3.072,1.646-4.28,2.931c-5.003,5.224-10.402,10.085-15.743,14.96
			c-27.809,25.583-58.011,48.749-92.55,64.649c-16.049,7.173-32.565,13.377-49.382,18.522c-13.858,4.151-27.981,7.389-42.274,9.634
			c-5.562,0.824-12.511,1.783-18.415,2.283c-4.38-0.41-6.598,5.382-3.206,8.093c2.741,2.031,6.384,0.485,9.507,0.402
			c7.1-0.778,14.176-1.809,21.203-3.102C1182.392,1468.166,1201.27,1462.7,1219.67,1456.033z"/>
		<path d="M1372.374,1381.265c4.309-4.207-2.055-10.603-6.289-6.587c-0.883,0.872-1.762,1.748-2.642,2.62
			c-42.935,43.091-94.773,78.481-153.37,96.159c-12.205,3.615-24.578,6.67-37.137,8.782c-5.759,0.895-11.567,1.833-17.395,2.119
			c-4.377-1.087-8.295,2.989-5.653,7.087c3.946,7.073,58.2-7.584,66.921-10.555
			C1276.359,1462.124,1328.794,1425.418,1372.374,1381.265z"/>
		<path d="M1266.774,1484.516c18.683-7.825,36.969-16.738,54.234-27.359c19.146-12.027,36.202-26.998,52.699-42.376
			c2.844-2.697,0.468-7.882-3.362-7.688c-3.18,0.171-4.909,3.382-7.256,5.153c-12.159,11.11-24.628,21.928-38.136,31.384
			c-33.083,22.234-70.478,37.758-108.68,48.773c-14.795,4.037-29.787,7.671-45.07,9.205c-5.896-1.007-7.935,7.333-2.188,8.97
			c14.227-0.16,28.348-4.113,42.154-7.388C1230.135,1498.35,1248.698,1492.014,1266.774,1484.516z"/>
		<path d="M1242.964,1518.88c53.703-13.876,103.003-42.282,143.6-79.884c4.676-3.794-1.198-10.797-5.712-7.09
			c-2.417,2.183-4.834,4.367-7.285,6.513c-31.339,27.563-67.532,49.691-106.931,63.638c-15.986,5.609-32.273,10.061-48.893,13.432
			c-10.166,2.037-20.995,3.961-31.917,4.991c-4.43-0.712-8.001,3.506-5.177,7.42c2.817,3.8,14.556,0.16,19.264,0
			C1214.608,1525.694,1228.284,1522.713,1242.964,1518.88z"/>
		<path d="M1235.799,1546.318c61.838-11.027,119.357-40.516,166.628-81.572c4.625-3.836-1.144-10.758-5.712-7.089
			c-4.07,3.497-8.257,6.851-12.459,10.184c-35.26,28.551-76.087,50.16-119.805,62.438c-23.058,6.686-46.871,10.112-70.691,12.695
			c-3.714,0.008-5.68,4.561-3.405,7.389c1.782,2.411,4.93,1.639,7.474,1.296C1210.544,1550.319,1223.207,1548.544,1235.799,1546.318
			z"/>
		<path d="M1267.927,1563.713c51.753-11.876,100.407-35.94,143.565-66.579c4.674-3.777-1.027-10.755-5.641-7.151
			c-2.163,1.739-4.442,3.336-6.725,4.909c-36.454,24.028-75.738,44.535-118.058,56.094c-24.346,6.676-49.391,10.845-74.563,12.731
			c-2.536,0.553-7.273-0.71-9.262,2.079c-1.46,1.955-1.104,4.932,0.915,6.378c3.866,2.04,8.545,0.23,12.73,0.35
			C1230.078,1571.011,1249.137,1567.855,1267.927,1563.713z"/>
		<path d="M1405.669,1520.385c-2.451,1.824-4.972,3.53-7.503,5.239c-34.378,23.423-72.243,41.584-112.399,52.616
			c-19.515,5.459-39.608,8.758-59.825,10.071c-4.817,0.43-9.797,0.111-14.528,1.043c-3.974,1.561-3.48,7.65,0.642,8.622
			c70.686-0.974,139.12-28.261,196.558-68.499C1416.721,1525.623,1412.258,1516.601,1405.669,1520.385z"/>
		<path d="M1232.913,1625.962c14.526-0.69,29.01-2.466,43.28-5.278c53.166-10.664,104.098-33.207,146.645-66.961
			c4.657-3.786-1.037-10.771-5.645-7.15c-2.019,1.695-4.138,3.276-6.256,4.839c-54.18,40.308-120.979,64.438-188.721,65.821
			c-3.964-0.883-7.132,4.807-3.846,7.745C1222.51,1627.864,1228.178,1625.673,1232.913,1625.962z"/>
		<path d="M1431.132,1582.683c4.701-3.739-1.001-10.718-5.644-7.149c-3.108,2.234-5.946,4.117-9.322,6.345
			c-33.423,22.809-69.149,41.472-108.5,51.915c-24.821,6.556-50.546,10.675-76.265,10.192c-8.267-0.841-7.595,10.3,1.314,9.166
			C1304.739,1653.656,1373.49,1624.357,1431.132,1582.683z"/>
		<path d="M1442.663,1605.496c4.731-3.777-0.739-10.751-5.474-7.276c-44.056,33.93-96.566,56.386-151.127,66.66
			c-9.822,1.733-19.748,2.802-29.71,3.255c-6.241,0.219-12.533,0.346-18.767-0.11c-1.045-0.201-2.146-0.028-3.083,0.496
			c-2.073,1.154-3.091,4.099-1.755,6.193c2.057,3.448,6.616,2.25,10.003,2.632
			C1313.033,1677.83,1387.139,1647.603,1442.663,1605.496z"/>
		<path d="M1428.144,1646.41c3.422-2.08,6.745-4.337,10.053-6.591c3.34-2.389,9.752-5.296,6.406-10.23
			c-1.506-2.005-4.376-2.361-6.378-0.901c-3.935,2.875-8,5.576-12.079,8.237c-4.174,2.696-8.505,5.149-12.791,7.66
			c-25.58,15.221-52.43,28.157-81.004,37.233c-15.602,4.713-31.523,8.436-47.722,10.338c-11.725,1.287-23.558,2.013-35.345,1.286
			c-1.836-0.094-3.654-0.906-5.399,0.157c-2.179,1.214-2.956,4.02-1.759,6.192c2.597,3.82,8.277,2.484,12.307,3.01
			C1316.845,1703.943,1375.769,1678.62,1428.144,1646.41z"/>
		<path d="M1443.952,1663.448c4.749-3.733-0.652-10.753-5.43-7.31c-2.304,1.784-4.782,3.376-7.193,5.003
			c-38.542,26.891-82.562,46.333-128.924,55.096c-10.923,1.849-21.948,3.006-33.02,3.393c-3.244,0.557-9.757-0.994-11.96,1.912
			c-1.573,1.924-1.159,4.869,0.752,6.4c0.958,0.851,2.181,1.015,3.414,1.015c2.803-0.08,5.568-0.146,8.361-0.254
			c16.345-0.515,33.349-2.833,49.395-6.74C1364.331,1711.099,1406.558,1690.583,1443.952,1663.448z"/>
		<path d="M1449.267,1688.668c4.244-4.271-2.012-10.539-6.353-6.528c-3.043,2.658-6.453,4.896-9.778,7.175
			c-26.294,18.171-54.548,34.003-85.337,43.257c-23.421,7.219-47.845,11.615-72.376,12.043c-6.776-0.472-6.62,9.41,0.066,9.108
			c40.179-0.861,80.041-11.148,116.084-28.815C1411.739,1714.52,1431.316,1702.532,1449.267,1688.668z"/>
		<path d="M1453.368,1714.89c4.746-3.725-0.636-10.752-5.431-7.311c-31.947,25.049-68.872,44.554-108.741,53.838
			c-11.892,2.833-23.985,4.87-36.211,5.395c-2.453,0.26-5.141-0.897-7.144,1.14c-1.745,1.695-1.859,4.704-0.086,6.438
			c4.738,4.068,27.792-0.781,34.737-1.783C1375.552,1764.095,1417.403,1743.034,1453.368,1714.89z"/>
		<path d="M1453.727,1743.746c2.871-2.66,9.514-5.911,10.37-9.654c0.769-3.834-4.178-6.863-7.212-4.359
			c-3.599,2.977-7.335,5.787-11.088,8.564c-18.918,14.528-40.553,25.263-63.226,32.551c-15.834,4.72-32.09,9.102-48.706,9.363
			c-7.496-1.085-7.4,9.691,0.093,9.125c38.685-1.963,77.428-16.461,109.432-38.027
			C1446.89,1748.863,1450.312,1746.306,1453.727,1743.746z"/>
		<path d="M1461.558,1754.815c-3.408,3.168-7.296,5.734-11.106,8.393c-6.68,4.538-13.226,9.363-20.589,12.761
			c-1.922,0.866-3.865,1.696-5.86,2.378c-2.306,0.522-5.014,1.057-5.706,3.735c-0.712,2.45,0.751,4.857,3.101,5.644
			c10.702,0.953,37.879-18.97,46.514-26.379C1472.131,1757.149,1465.853,1750.73,1461.558,1754.815z"/>
	</g>
</g>
</svg>
