<?xml version="1.0" encoding="utf-8"?>
<!-- Generator: Adobe Illustrator 27.5.0, SVG Export Plug-In . SVG Version: 6.00 Build 0)  -->
<svg version="1.1" xmlns="http://www.w3.org/2000/svg" xmlns:xlink="http://www.w3.org/1999/xlink" x="0px" y="0px"
	 viewBox="0 0 2000 2000" style="enable-background:new 0 0 2000 2000;" xml:space="preserve">
<g id="Layer_2">
	<rect style="fill:#FFFFFF;" width="1999.989" height="1999.989"/>
</g>
<g id="Layer_3">
	<g>
		<path d="M537.14,311.018c-6.4-1.461-8.006,9.607-1.54,10.151C541.362,321.767,542.751,312.246,537.14,311.018z"/>
		<path d="M550.562,299.729c-8.508-4.186-8.566,9.396-6.751,14.437c1.871,5.717,10.348,3.129,8.765-2.665
			C550.697,307.662,554.657,302.552,550.562,299.729z"/>
		<path d="M566.538,298.883c0.217-1.515,0.666-2.916,0.682-4.469c-0.377-5.861-9.223-5.519-9.142,0.39
			c0.001-0.129,0.002-0.258,0.004-0.387c0.009-0.061,0.017-0.122,0.026-0.182c-1.422,6.852-1.362,14.335,0.874,21.001
			c1.527,3.604,7.296,3.181,8.421-0.516c0.431-1.186,0.246-2.333-0.162-3.469C566.409,307.205,566.096,302.997,566.538,298.883z"/>
		<path d="M580.326,297.694c-0.189-4.047,0.943-7.934,1.483-11.884c-0.382-5.555-8.188-5.491-9.059-0.608
			c0.003-0.017,0.001-0.034,0.004-0.052c-2.735,10.625-1.62,21.928,0.566,32.563c1.377,5.891,10.046,4.081,8.984-1.798
			C580.955,309.948,580.305,303.815,580.326,297.694z"/>
		<path d="M595.563,298.785c0.374-7.425,1.767-14.781,3.825-21.918c1.373-5.842-7.349-8.009-8.894-2.195
			c-4.514,15.476-5.456,32.053-2.392,47.886c1.235,5.766,9.744,4.295,9.032-1.536C595.646,313.741,595.377,306.204,595.563,298.785z
			"/>
		<path d="M603.234,332.561c2.143,3.675,8.116,2.296,8.461-1.902c-0.933-8.693-1.801-17.473-1.293-26.263
			c0.399-10.454,2.373-22.022,5.635-32.261c1.125-2.44,0.213-5.566-2.419-6.534c-2.231-0.867-5.151,0.24-5.924,2.615
			c-1.58,4.85-2.926,9.789-3.915,14.797c-2.326,11.719-3.102,23.623-2.429,35.583C601.848,323.235,601.7,328.147,603.234,332.561z
			 M603.116,327.966c0.298-0.519,0.667-0.966,1.125-1.358c0,0,0,0-0.004,0.004c0.078-0.055,0.156-0.11,0.233-0.165
			c-0.643,0.492-1.142,1.12-1.467,1.817c0.039-0.101,0.078-0.201,0.117-0.301C603.12,327.962,603.12,327.962,603.116,327.966z"/>
		<path d="M627.263,335.453c-1.489-9.446-1.373-19.076-0.758-28.595c1.137-14.012,3.637-27.944,8.28-41.237
			c1.262-3.776-3.409-7.268-6.712-5.175c-3.427,1.856-6.524,18.84-7.673,23.407c-3.306,17.922-5.148,36.72-1.759,54.739
			C620.995,343.938,628.835,340.963,627.263,335.453z"/>
		<path d="M636.383,348.136c2.471,0.03,4.629-2.041,4.628-4.535c-0.112-1.414-0.309-2.826-0.368-4.247
			c-0.611-20.778,1.749-41.845,8.165-61.663c2.089-5.684,4.436-11.275,6.949-16.783c1.697-3.582-2.41-7.622-5.967-5.999
			c-2.908,1.32-3.356,4.966-4.736,7.543c-1.207,2.837-2.418,5.674-3.524,8.55c-7.374,19.802-9.973,41.149-10.169,62.189
			c-0.028,3.647,0.129,7.29,0.52,10.918C632.118,346.277,634.038,348.112,636.383,348.136z"/>
		<path d="M644.406,348.783c-0.313,2.422,1.821,4.66,4.149,4.875c5.592,0.105,5.054-5.032,5.025-9.044
			c0.131-4.378,0.325-8.816,0.72-13.221c1.376-14.067,4.023-28.006,7.941-41.585c1.51-4.907,3.117-9.803,5.167-14.511
			c2.149-4.737,4.452-9.448,7.051-13.956c1.246-2.167,0.207-5.058-1.934-6.183c-5.523-2.545-7.507,4.698-9.589,8.339
			c-5.508,10.384-9.252,21.616-11.992,33.022C646.808,313.61,644.3,331.175,644.406,348.783z"/>
		<path d="M656.615,354.099c-0.2,1.902,1.719,4.155,4.202,4.352c2.68,0.241,5.103-2.093,4.945-4.799
			c0.365-6.899,1.229-13.778,2.126-20.625c1.36-9.306,3.478-19.032,6.182-28.667c3.745-12.686,8.736-25.04,15.464-36.448
			c0.522-0.864,1.06-1.721,1.64-2.547c3.3-5.054-4.043-10.024-7.551-5.183c-13.496,21.197-20.844,45.872-24.636,70.567
			C658.025,337.924,656.852,346.533,656.615,354.099z"/>
		<path d="M667.744,360.574c-0.499,2.463,1.525,4.875,3.913,5.199c3.293,0.524,5.612-2.67,5.274-5.73
			c0.298-3.958,0.898-7.889,1.539-11.804c2.928-18.443,7.629-36.755,16.027-53.511c4.265-8.281,9.629-15.979,15.638-23.086
			c1.788-1.747,1.877-4.778,0.056-6.54c-5.34-4.6-9.069,3.543-12.092,6.981c-7.982,10.3-14.194,21.948-18.565,34.218
			C673.286,323.764,669.397,342.113,667.744,360.574z"/>
		<path d="M688.431,368.324c0.012,0.112,0.024,0.223,0.036,0.334c-0.007,0.202-0.01,0.404-0.018,0.606
			c4.998-33.903,16.51-68.795,40.979-93.89c1.779-1.477,2.11-4.541,0.511-6.353c-3.408-3.534-6.645-0.913-9.13,2.085
			c-2.432,2.647-4.732,5.423-6.992,8.217c-19.918,25.819-30.595,58.23-34.437,90.329
			C680.469,375.394,688.98,374.144,688.431,368.324z"/>
		<path d="M697.124,383.131c2.388,0.378,4.941-1.327,5.24-3.811c0.784-6.493,1.999-12.929,3.437-19.307
			c2.223-9.566,5.145-18.965,8.551-28.173c5.243-14.069,12.12-27.513,20.843-39.751c2.75-3.783,5.638-7.48,8.794-10.932
			c1.085-1.123,2.815-2.381,2.729-4.488c0.166-4.227-5.49-6.278-8.079-3.025c-26.233,28.249-39.895,66.563-45.324,104.246
			C693.019,380.369,694.591,382.73,697.124,383.131z"/>
		<path d="M738.964,273.28c-0.134,0.156-0.296,0.296-0.407,0.458c0.026-0.035,0.057-0.06,0.084-0.094
			C738.751,273.525,738.852,273.398,738.964,273.28z"/>
		<path d="M708.596,380.4c-0.982,3.571-1.173,7.79,3.409,8.573c4.224,0.479,5.273-3.774,5.613-7.11
			c1.859-9.888,4.122-19.742,7.21-29.323c9.084-25.858,21.57-51.364,39.884-71.953c4.589-4.992-3.228-11.109-7.303-5.652
			c-20.434,23.716-34.791,52.754-43.643,82.677C711.757,365.146,710.031,372.737,708.596,380.4z"/>
		<path d="M720.487,395.363c-0.498,2.418,1.129,4.943,3.571,5.401c2.361,0.484,5.018-1.103,5.405-3.571
			c0.519-3.313,1.135-6.601,1.823-9.882c2.168-11.149,5.525-22.009,9.055-32.793c8.265-26.284,21.871-50.953,40.719-71.133
			c6.917-4.98,0.865-13.127-4.837-8.186c-23.15,23.778-38.529,54.022-47.517,85.774
			C725.107,372.208,722.319,383.706,720.487,395.363z"/>
		<path d="M734.928,411.078c-2.201-5.16-9.524-2.465-8.758,2.398c-0.002-0.013-0.005-0.026-0.007-0.038
			c2.007,27.268,11.418,53.347,22.863,77.989c12.29,26.531,25.443,53.237,45.075,75.195c4.397,4.154,10.565-2.27,6.419-6.537
			c-5.366-5.901-9.959-12.495-14.59-18.98c-7.389-10.999-13.635-22.619-19.513-34.487c-13.38-27.161-26.25-55.259-30.267-85.544
			C735.507,417.776,735.77,414.324,734.928,411.078z M726.281,414.035c-0.02-0.102-0.04-0.202-0.06-0.303
			c0.061,0.285,0.135,0.573,0.254,0.87C726.412,414.416,726.347,414.225,726.281,414.035z"/>
		<path d="M719.885,437.964c-2.425,0.417-4.175,2.822-3.738,5.261c1.33,12.311,4.399,24.44,8.377,36.146
			c11.037,31.444,27.344,61.295,49.101,86.618c4.049,4.492,10.75-1.343,6.963-5.954c-10.86-12.55-20.256-26.302-28.243-40.845
			c-12.833-23.81-23.686-49.285-27.043-76.32C725.385,439.952,722.843,437.437,719.885,437.964z"/>
		<path d="M736.867,524.935c-10.771-18.715-18.051-39.26-22.313-60.405c-0.589-2.902-1.221-5.82-1.598-8.761
			c-0.152-2.706-2.71-4.814-5.412-4.295c-2.393,0.442-4.163,2.866-3.68,5.295c0.973,7.13,2.667,14.156,4.41,21.133
			c7.303,31.604,24.15,60.42,44.176,85.701c3.982,4.482,10.776-1.468,6.88-6.046C751.389,547.102,743.564,536.287,736.867,524.935z"
			/>
		<path d="M691.971,466.854c0.002,0.009,0.004,0.018,0.006,0.027c-0.013-0.196-0.037-0.389-0.049-0.585
			C691.942,466.481,691.958,466.668,691.971,466.854z"/>
		<path d="M726.035,557.327c3.324,5.074,10.838,0.364,7.823-4.771c-4.634-7.249-9.19-14.562-13.256-22.148
			c-7.548-14.57-13.441-30.008-17.058-46.027c-1.412-6.419-2.066-12.946-2.64-19.457c-1.672-5.526-9.857-3.519-8.897,2.104
			c-0.01-0.049-0.021-0.098-0.031-0.146C694.089,499.541,708.255,530.293,726.035,557.327z"/>
		<path d="M677.933,472.982c1.317,29.308,11.007,58.214,27.015,82.778c2.177,3.27,7.761,1.764,8.181-2.074
			c0.194-1.268-0.182-2.4-0.874-3.449c-3.749-5.76-7.19-12.11-10.313-18.572c-8.522-17.693-13.67-38.195-14.859-57.975
			C687.54,467.32,678.328,466.657,677.933,472.982z"/>
		<path d="M685.701,556.738c3.113,5.178,10.791,0.733,7.962-4.531c-2.521-4.549-4.82-9.234-7.088-13.914
			c-5.835-12.331-10.796-25.179-13.158-38.661c-1.161-6.582-1.886-13.231-2.222-19.907c-0.091-2.003,0.17-4.279-1.41-5.8
			c-2.802-2.982-7.988-0.569-7.823,3.29C662.275,505.954,671.978,531.843,685.701,556.738z M661.987,477.681
			c-0.007-0.137-0.013-0.277-0.02-0.416c0.009,0.169,0.013,0.336,0.043,0.509C662.002,477.743,661.994,477.712,661.987,477.681z"/>
		<path d="M672.67,557.27c0.762-2.735-1.385-5.093-2.245-7.554c-2.85-6.33-5.588-12.723-7.827-19.299
			c-4.637-13.702-6.951-28.292-6.115-42.804c0.085-1.519,0.45-2.999,0.624-4.502c0-2.493-1.934-4.628-4.474-4.685
			c-2.296-0.05-4.403,1.73-4.659,4.009c-1.04,5.131-0.891,10.402-0.721,15.606c0.742,21.13,7.831,41.338,17.032,60.183
			C666.007,561.744,671.734,561.021,672.67,557.27z"/>
		<path d="M643.209,528.456c-2.528-12.43-3.536-25.222-1.556-37.805c0.596-4.038,1.57-9.213-4.037-9.66
			c-5.891,0.27-4.497,7.445-5.423,11.523c-2.806,22.205,2.45,44.551,10.388,65.223c2.482,5.515,10.626,1.992,8.439-3.564
			C647.802,545.829,645.138,537.31,643.209,528.456z"/>
		<path d="M625.898,534.08c-1.784-9.492-2.731-19.216-2.162-28.873c0.241-3.847,0.925-7.912,1.731-12.271
			c0.615-2.383-0.838-4.907-3.217-5.563c-3.785-1.003-6.011,2.432-6.139,5.799c-0.701,3.589-1.18,7.218-1.455,10.866
			c-1.174,17.55,2,35.19,7.884,51.699c1.328,3.693,7.075,3.629,8.439,0c1.11-3.338-1.439-6.611-2.009-9.883
			C627.824,541.96,626.737,538.056,625.898,534.08z"/>
		<path d="M608.262,522.266c-0.489-8.536-0.326-17.205,1.606-25.561c0.76-5.753-7.793-7.227-9.011-1.549
			c-3.926,17.812-1.613,36.692,2.553,54.3c1.714,5.773,10.257,3.389,8.829-2.436C610.331,538.868,608.878,530.621,608.262,522.266z"
			/>
		<path d="M593.753,526.523c-0.866-8.525-0.466-17.138,0.911-25.588c1.589-5.172-5.911-8.205-8.426-3.451
			c-4.011,16.139-1.84,33.254,1.741,49.305c0.951,3.802,6.698,4.288,8.403,0.816c1.386-3.26-0.676-6.344-0.917-9.964
			C594.818,533.946,594.18,530.248,593.753,526.523z"/>
		<path d="M578.769,529.708c-0.771-7.349-0.76-14.786,0.422-22.091c0.598-2.953,1.568-6.82-1.727-8.546
			c-2.949-1.732-6.92,0.783-6.792,4.14c-0.583,3.464-1.193,6.919-1.404,10.431c-0.497,5.206,0.191,29.625,4.119,32.13
			c3.093,2.436,8.081-0.621,7.196-4.499C579.766,537.458,579.253,533.579,578.769,529.708z"/>
		<path d="M564.81,528.863c-0.482-5.561-0.916-11.184-0.087-16.732c0.411-1.95,0.856-4.175-0.613-5.811
			c-1.605-1.909-4.503-2.224-6.448-0.627c-0.99,0.811-1.527,1.984-1.647,3.196c-0.57,2.861-0.892,5.758-0.888,8.678
			c0.054,4.926,0.357,23.38,4.036,25.915c3.089,2.435,8.089-0.619,7.196-4.499C565.575,535.661,565.177,532.252,564.81,528.863z"/>
		<path d="M550.938,516.921c1.143-6.848-8.862-7.702-9.137-0.759c-1.182,7.018-0.763,14.279,0.655,21.23
			c0.954,3.8,6.701,4.292,8.4,0.813c1.262-2.632-0.23-5.074-0.273-8.029C550.126,525.761,550.19,521.299,550.938,516.921z"/>
		<path d="M536.788,525.497c1.045-5.809-7.432-7.666-8.951-1.951c-0.702,4.028-0.083,8.202,0.81,12.157
			c0.949,3.799,6.701,4.291,8.4,0.817C538.506,533.21,535.967,529.276,536.788,525.497z"/>
		<path d="M739.242,401.15c-0.315,2.479,1.827,4.736,4.22,4.918c2.934,0.297,5.044-2.369,5.038-5.13
			c0.698-4.679,1.708-9.305,2.788-13.908c1.848-7.843,3.942-15.622,6.25-23.347c9.508-32.86,26.526-63.51,49.502-88.889
			c5.466-4.579-1.772-12.025-6.314-6.648c-26.02,28.408-44.441,63.404-54.174,100.62
			C743.658,379.439,740.716,390.171,739.242,401.15z"/>
		<path d="M759.748,412.052c-0.215,2.482,1.752,4.725,4.22,4.918c5.182,0.309,5.047-5.486,5.497-9.195
			c1.648-11.261,4.071-22.417,7.185-33.361c9.876-36.21,26.326-70.262,51.313-98.683c5.672-4.751,0.155-12.55-5.51-7.802
			c-25.396,28.975-43.603,63.921-53.771,101.147C764.626,383.138,761.276,397.478,759.748,412.052z"/>
		<path d="M782.543,418.26c-0.129,2.493,1.684,4.724,4.22,4.918c2.427,0.193,4.789-1.721,4.918-4.216
			c0.879-12.165,2.463-23.406,4.943-35.565c8.209-38.444,26.139-75.025,53.341-103.777c6.347-4.065,0.045-12.651-5.39-7.477
			c-29.912,30.641-49.113,70.778-57.597,112.547C785.017,395.793,783.302,407.004,782.543,418.26z"/>
		<path d="M809.182,399.772c-1.176,8.07-2.035,16.835-2.476,25.589c-0.125,2.49,1.68,4.721,4.219,4.918
			c2.424,0.189,4.795-1.725,4.918-4.216c0.426-8.489,1.247-16.989,2.447-25.4c1.793-12.413,4.091-25.353,7.581-38.033
			c8.787-28.186,23.697-54.839,44.235-76.142c1.827-1.463,3.88-3.007,3.305-5.729c-0.451-2.414-2.894-4.173-5.337-3.668
			c-4.096,1.29-6.572,5.421-9.55,8.296c-9.284,10.523-17.325,22.162-24.196,34.39C820.125,344.288,812.75,371.826,809.182,399.772z"
			/>
		<path d="M843.902,344.149c-1.619,3.846-5.449,9.427,0.167,11.82c6.622,1.874,7.145-7.699,9.797-11.68
			c3.379-7.091,7.122-13.963,11.18-20.685c6.894-11.007,14.269-21.869,23.156-31.374c1.473-1.045,2.385-2.816,2.027-4.704
			c-0.455-2.446-2.883-4.13-5.337-3.668c-2.085,0.39-3.568,2.253-4.911,3.743c-4.397,4.906-8.424,10.136-12.275,15.477
			C858.464,315.949,850.323,329.658,843.902,344.149z"/>
		<path d="M830.812,388.047c-3.9,13.49-3.841,27.652-4.388,41.568c-0.089,2.493,1.651,4.721,4.216,4.918
			c2.406,0.187,4.83-1.722,4.918-4.216c0.56-13.686,0.307-27.722,4.431-40.923C841.001,383.064,832.045,381.699,830.812,388.047z"/>
		<path d="M857.578,365.701c-0.852,2.346,0.412,5.015,2.758,5.86c2.303,0.843,5.01-0.396,5.86-2.758
			c2.187-6.025,4.48-12.03,7.036-17.915c6.02-13.738,14.684-26.142,23.869-37.934c2.886-3.543,5.884-6.976,9.158-10.167
			c1.063-0.968,2.388-1.955,2.823-3.358c1.762-4.851-4.791-8.343-7.932-4.395c-13.974,13.685-25.267,30.182-34.185,47.546
			C863.416,350.102,860.415,357.886,857.578,365.701z"/>
		<path d="M850.926,388.639c-0.014,0.059-0.028,0.118-0.039,0.177c0.012-0.047,0.023-0.093,0.035-0.14
			C850.924,388.665,850.923,388.651,850.926,388.639z"/>
		<path d="M850.839,389.519c-0.021-0.239,0.005-0.472,0.048-0.703c-3.801,14.646-3.647,30.109-3.781,45.157
			c0.023,3.932,5.417,5.806,7.938,2.862c2.142-2.569,0.874-6.258,1.229-9.327c0.052-4.491,0.131-9.092,0.419-13.683
			c0.337-5.402,0.834-10.815,1.564-16.181c0.151-3.047,1.762-5.872,1.639-8.892c-0.854-4.907-7.706-4.684-8.869-0.482
			c-0.036,0.135-0.067,0.271-0.102,0.407C850.874,388.945,850.84,389.222,850.839,389.519z"/>
		<path d="M850.926,388.639c0.025-0.109,0.055-0.218,0.085-0.326C850.982,388.422,850.947,388.525,850.926,388.639z"/>
		<path d="M851.011,388.313c0.004-0.015,0.009-0.029,0.013-0.043c0.019-0.071,0.035-0.143,0.054-0.214
			C851.053,388.141,851.035,388.228,851.011,388.313z"/>
		<path d="M864.671,436.166c0.094,6.017,9.128,5.898,9.159-0.086c0.703-12.741,1.076-25.568,3.471-38.132
			c6.831-29.675,19.448-58.855,39.201-82.238c1.856-2.212,4.153-4.076,5.878-6.376c2.893-5.003-4.385-9.555-7.688-4.997
			c-22.107,22.44-35.219,52.26-44.1,82.101C865.994,402.6,865.576,419.495,864.671,436.166z"/>
		<path d="M892.096,440.235c0.484-11.221,2.065-22.388,3.932-33.453c6.439-29.897,18.34-59.083,38.212-82.761
			c6.072-4.453,0.002-12.612-5.458-7.534c-29.392,33.807-43.789,79.348-45.848,123.831
			C883.112,446.358,891.995,446.205,892.096,440.235z"/>
		<path d="M911.643,444.942c0.922-13.646,2.174-27.302,4.776-40.744c4.721-24.294,15.345-47.708,31.212-66.756
			c5.975-4.701-0.671-12.626-5.799-7.243c-28.415,32.659-37.378,72.655-39.35,114.826
			C902.578,451.039,911.608,450.925,911.643,444.942z"/>
		<path d="M953.433,345.652c-22.843,28.692-32.492,65.808-33.215,102.02c0.165,6.033,9.051,5.897,9.162-0.083
			c0.41-11.639,1.416-23.282,3.69-34.716c2.675-13.131,6.861-25.942,12.775-37.974c2.909-5.772,6.087-11.38,9.661-16.765
			c1.107-1.627,2.228-3.252,3.464-4.788c1.193-1.476,2.726-2.891,2.672-4.954c-0.024-4.602-6.385-6.223-8.552-2.201
			c0.005-0.02,0.01-0.04,0.016-0.059C953.214,345.971,953.325,345.811,953.433,345.652z"/>
		<path d="M936.357,451.766c0.17,6.029,9.052,5.896,9.159-0.083c0.409-10.701,1.505-21.394,3.461-31.922
			c3.214-16.801,9.047-33.267,18.468-47.62c1.14-1.878,3.032-3.487,3.04-5.832c0.136-2.496-2.249-4.56-4.62-4.542
			c-1.569,0.004-3.123,0.892-3.895,2.251c-4.361,6.126-8.173,12.648-11.207,19.538C940.938,404.886,937.219,428.448,936.357,451.766
			z"/>
		<path d="M952.299,457.805c0.225,6.029,9.098,5.898,9.163-0.083c-0.111-3.754,0.09-7.51,0.305-11.258
			c1.361-18.205,5.488-36.823,13.727-53.275c1.472-3.966,6.981-8.934,2.495-12.729c-2.239-1.885-5.958-0.833-7.023,1.825
			c-2.512,4.438-4.829,8.983-6.846,13.67C955.963,415.435,952.214,436.725,952.299,457.805z"/>
		<path d="M966.711,463.304c0.164,6.015,9.041,5.914,9.163-0.083c0.486-14.835,1.611-29.877,6.338-44.069
			c1.18-3.389,2.405-6.804,4.315-9.86c2.274-2.624,1.39-6.915-2.103-7.873c-5.749-1.568-8.442,8.915-10.23,12.941
			C968.543,430.028,967.256,446.778,966.711,463.304z"/>
		<path d="M979.39,467.488c-0.299,2.445,1.5,4.847,3.98,5.111c2.379,0.296,4.935-1.491,5.111-3.979
			c0.915-11.976,2.557-23.037,6.333-34.717c0.515-1.764,1.564-3.374,1.881-5.181c0.544-5.646-7.469-7.126-8.993-1.722
			C982.508,440.045,980.573,453.252,979.39,467.488z"/>
		<path d="M992.477,456.514c-1.163,5.562-1.458,11.251-1.666,16.917c0.155,6.003,9.028,5.93,9.162-0.083
			c0.053-6.517,0.937-13.071,2.454-19.45c-0.037-2.465-2.123-4.604-4.621-4.539C993.84,449.386,993.111,453.415,992.477,456.514z"/>
		<path d="M739.145,413.423c8.318,57.126,44.515,115.141,79.446,160.237c2.495,3.044,7.893,1.004,7.946-2.855
			c0.157-1.883-1.117-3.275-2.232-4.627c-2.794-3.489-5.491-7.059-8.152-10.65c-30.315-42.187-58.169-88.669-67.744-140.39
			C748.676,409.155,740.629,407.484,739.145,413.423z"/>
		<path d="M767.106,420.317c-1.118-2.232-3.965-3.113-6.168-1.981c-3.953,2.131-2.001,6.994-1.705,10.517
			c1.064,6.59,2.758,13.062,4.753,19.428c8.595,27.343,22.932,52.408,38.366,76.406c12.899,19.802,26.281,39.487,41.847,57.304
			c4.252,4.347,10.696-1.79,6.741-6.205c-1.515-1.538-2.905-3.162-4.264-4.84c-31.722-41.591-69.019-92.757-78.609-144.837
			C767.715,424.187,767.927,422.122,767.106,420.317z"/>
		<path d="M782.039,430.682c0.005,0.013,0.009,0.026,0.014,0.038c-0.018-0.19-0.046-0.382-0.063-0.572
			C782.007,430.325,782.023,430.505,782.039,430.682z"/>
		<path d="M791.301,432.065c-0.12-1.524-0.053-3.107-0.829-4.478c-2.489-4.3-9.424-1.661-8.406,3.17
			c-0.004-0.012-0.009-0.025-0.013-0.037c5.187,55.532,50.254,115.168,88.793,153.57c4.507,4.048,10.507-2.532,6.258-6.692
			c-10.194-9.648-18.914-19.615-27.982-30.808c-20.553-25.416-39.075-53.088-50.447-83.957
			C795.153,452.874,792.41,442.589,791.301,432.065z"/>
		<path d="M815.491,435.685c-1.825-5.781-10.423-3.187-8.773,2.581c-0.007-0.006-0.014-0.012-0.021-0.017
			c-0.001-0.001-0.002-0.002-0.003-0.003c0.002,0,0.003,0.001,0.003,0.002c-0.041-0.185-0.082-0.371-0.124-0.552
			c3.308,22.823,13.526,44.062,24.208,64.276c16.25,30.836,40.16,56.745,65.216,80.647c4.531,4.027,10.519-2.559,6.258-6.692
			c-7.388-6.928-14.468-14.167-21.422-21.531c-25.64-26.494-45.684-58.13-58.547-92.694
			C819.368,453.224,816.534,444.618,815.491,435.685z"/>
		<path d="M836.23,439.401c-2.599-3.063-7.91-1.146-7.991,2.841c6.863,51.236,47.96,99.544,86.968,131.169
			c4.726,3.81,10.422-3.037,5.965-6.953c-8.254-6.683-16.188-13.754-23.806-21.151c-27.551-28.123-52.534-61.856-59.85-101.314
			C837.231,442.323,837.709,441.068,836.23,439.401z"/>
		<path d="M850.732,442.044c-2.45,0.735-3.707,3.643-2.815,5.969c2.063,7.663,4.554,15.193,7.612,22.522
			c15.555,37.656,45.367,67.258,77.438,91.422c5.113,3.204,9.901-4.29,4.989-7.683c-11.027-8.221-22.157-17.997-32.251-27.63
			c-22.603-22.025-40.629-49.222-48.686-79.953C856.719,443.553,853.913,440.989,850.732,442.044z"/>
		<path d="M866.557,449.32c-0.118-0.186-0.176-0.413-0.271-0.62c11.75,44.136,45.625,78.234,82.18,103.665
			c5.121,3.192,9.908-4.306,4.986-7.687c-13.105-9.171-25.384-19.188-37.032-30.545c-10.84-10.762-20.279-22.89-27.962-36.093
			c-5.555-10.007-10.562-20.481-13.321-31.632C873.536,439.623,863.671,443.052,866.557,449.32z"/>
		<path d="M892.853,450.266c-2.477-3.091-7.914-1.132-7.995,2.769c3.259,12.896,11.12,24.38,19.041,34.941
			c15.823,21.371,36.374,38.574,57.992,53.829c5.113,3.205,9.907-4.294,4.989-7.683c-12.681-9.102-24.795-18.36-36.358-29.548
			c-13.524-13.991-26.6-29.157-34.56-47.084C894.855,455.112,894.373,452.42,892.853,450.266z"/>
		<path d="M914.574,456.187c-0.753-1.931-1.877-3.895-4.105-4.262c-4.148-0.779-6.393,3.618-4.904,6.607
			c-0.01-0.019-0.025-0.037-0.035-0.056c14.903,31.064,41.403,54.566,69.278,73.924c5.109,3.193,9.913-4.282,4.986-7.687
			c-7.65-5.454-15.206-11.066-22.498-16.996c-10.63-8.674-20.16-18.63-28.628-29.417c-3.872-5.051-7.467-10.282-10.699-15.769
			C916.778,460.454,915.593,458.357,914.574,456.187z M906.478,459.746c0.104,0.095,0.218,0.184,0.334,0.272
			C906.699,459.928,906.582,459.846,906.478,459.746z M907.045,460.2c0.25,0.163,0.523,0.31,0.826,0.435
			C907.576,460.53,907.304,460.376,907.045,460.2z"/>
		<path d="M925.75,457.074c-1.704,1.512-2.065,4.286-0.679,6.117c4.007,6.982,8.845,13.412,14.14,19.472
			c13.799,15.955,29.952,29.664,47.443,41.41c5.108,3.181,9.925-4.284,4.989-7.683c-4.678-3.206-9.27-6.543-13.819-9.927
			c-16.9-13.254-32.856-28.512-44.26-46.836C932.44,456.445,928.505,454.618,925.75,457.074z"/>
		<path d="M997.715,512.309c3.454,1.86,7.686-2.093,6.246-5.677c-0.426-1.211-1.293-2.034-2.392-2.633
			c-2.5-1.376-5.333-3.127-8.124-4.936c-12.637-7.91-24.363-17.157-35.003-27.6c-2.628-2.527-5.13-5.176-7.399-8.029
			c-1.879-2.921-6.631-2.636-8.027,0.588c-1.05,2.161,0.023,4.512,1.63,6.046c1.852,2.294,3.857,4.456,5.96,6.523
			C964.596,490.571,980.49,502.595,997.715,512.309z"/>
		<path d="M974.956,470.755c-3.425-4.155-10.137,0.539-7.421,5.203c3.53,4.419,8.685,7.531,13.23,10.888
			c5.845,3.978,11.47,7.373,17.824,10.66c5.481,2.426,9.238-5.618,3.854-8.314c-9.712-5.207-19.308-11.018-27.481-18.458
			C974.962,470.734,974.956,470.755,974.956,470.755z"/>
		<path d="M746.581,577.791c2.497-2.986,5.292-6.598,4.986-10.696c-1.046-5.108-7.959-4.576-8.932-0.201
			c-0.992,4.096-6.767,6.756-2.527,11.197C741.939,579.759,744.913,579.648,746.581,577.791z M742.528,567.508
			c-0.025,0.294-0.034,0.597-0.006,0.919C742.486,568.124,742.494,567.815,742.528,567.508z"/>
		<path d="M760.321,567.813c-2.928,3.978,1.83,5.92-3.73,13.41c-2.484,3.239-5.462,4.913-9.19,6.795
			c-3.174,0.991-6.216,2.205-5.534,6.201c2.523,9.054,17.358-1.984,20.743-5.903c2.779-3.167,4.814-7.006,5.745-11.125
			c0.538-3.24,0.924-7.324-1.572-9.861C764.906,565.718,761.929,565.908,760.321,567.813z"/>
		<path d="M776.196,571.723c-0.946,1.362-0.678,2.992-0.804,4.545c-0.398,3.188-1.574,6.229-3.036,9.073
			c-4.671,8.597-13.156,14.223-22.529,16.542c-3.877,1.352-9.06,0.205-9.041,5.96c0.804,5.947,7.803,4.026,11.745,2.776
			c16.449-3.91,31.528-18.29,32.027-35.794C785.2,570.479,779.076,567.413,776.196,571.723z M784.425,575.461
			c0.048-0.164,0.072-0.323,0.101-0.484C784.5,575.141,784.469,575.302,784.425,575.461z M783.996,576.502
			c0.161-0.296,0.281-0.588,0.378-0.878C784.277,575.929,784.159,576.227,783.996,576.502z M784.581,574.005
			c0.017,0.254,0.005,0.507-0.022,0.759C784.566,574.51,784.581,574.259,784.581,574.005z"/>
		<path d="M791.374,575.747c-3.419,23.303-20.881,38.57-43.821,41.672c-1.124,0.152-2.256,0.319-3.392,0.252
			c-6.021-0.109-6.367,8.739-0.379,9.155c29.049-1.213,53.131-21.305,56.745-50.627C802.23,567.669,790.74,567.145,791.374,575.747z
			"/>
		<path d="M807.668,576.092c-0.048,2.826-0.593,5.605-1.223,8.353c-5.636,23.713-25.79,43.67-50.383,46.436
			c-4.406,0.651-8.845,1.355-13.307,1.405c-6.037-0.066-6.356,8.775-0.379,9.155c8.331-0.204,16.654-1.539,24.754-3.474
			c27.022-7.456,47.622-33.299,49.674-61.14C816.877,571.003,808.448,570.399,807.668,576.092z"/>
		<path d="M825.055,581.908c-2.506,13.398-8.242,26.25-16.267,37.253c-7.873,10.295-18.236,18.736-30.092,24.025
			c-8.632,3.776-18.038,5.211-27.407,5.348c-3.188,0.066-6.394,0.074-9.57-0.233c-1.138-0.147-2.261-0.024-3.393,0.732
			c-3.336,2.087-2.144,7.819,1.802,8.292c48.159,5.407,85.674-28.486,94.075-74.683c-0.138,0.686-0.412,1.345-0.848,1.893
			C837.685,577.462,825.812,573.655,825.055,581.908z"/>
		<path d="M848.782,586.175c-2.146-1.397-4.908-0.709-6.337,1.336c-1.181,2.27-0.897,5.009-1.73,7.425
			c-0.976,3.783-2.11,7.489-3.465,11.154c-4.911,12.197-11.855,23.659-20.973,33.179c-14.883,15.422-35.36,24.739-56.392,28.001
			c-8.144,1.395-16.488,1.817-24.646,0.264c-5.98-0.886-7.428,7.83-1.569,9.027c4.001,0.749,8.098,1.039,12.164,1.128
			c38.052-0.477,76.149-20.763,93.774-55.178C842.668,617.518,855.425,589.317,848.782,586.175z"/>
		<path d="M861.025,585.034c-2.933,0.967-3.127,4.06-3.152,6.658c-1.132,8.569-3.571,16.89-6.613,24.963
			c-14.193,38.859-51.496,66.364-91.893,72.812c-11.006,1.405-22.228,2.02-33.269,0.134c-5.936-0.966-7.397,7.891-1.568,9.026
			c3.793,0.774,7.687,1.06,11.551,1.186c54.66,2.743,109.51-32.979,125.857-85.791c2.212-6.564,3.881-13.326,4.89-20.18
			C867.859,589.381,866.87,583.583,861.025,585.034z"/>
		<path d="M869.688,624.865c-16.448,40.267-52.281,74.291-95.23,83.914c-17.801,3.453-36.092,3.607-54.102,1.909
			c-3.92-0.377-6.279,4.848-3.603,7.629c2.961,2.631,7.55,1.551,11.233,2.16c23.481,1.176,47.906,0.077,69.733-9.428
			c36.083-15.733,65.737-46.052,80.389-82.614c2.535-6.755,12.029-35.869,3.242-39.061c-2.979-1.096-6.304,1.653-5.95,4.771
			c0.656,2.683,0.167,5.479-0.017,8.211C874.385,610.061,872.383,617.584,869.688,624.865z"/>
		<path d="M783.248,731.183c-22.974,5.204-47.073,6.047-70.337,2.309c-2.453-0.452-4.904,1.053-5.427,3.539
			c-0.509,2.396,1.086,4.971,3.539,5.426c7.078,1.311,14.278,1.959,21.466,2.235c69.414,4.454,133.625-31.714,160.369-96.878
			c6.878-17.243,13.074-36.245,12.65-54.856c-1.956-4.558-9.267-2.607-8.701,2.277c0,0-0.016-0.022-0.016-0.022
			C891.767,658.385,846.241,717.39,783.248,731.183z"/>
		<path d="M737.857,770.795c58.41,2.942,105.854-17.58,143.04-62.857c25.92-33.261,42.813-74.663,44.8-116.956
			c0.029-1.9-0.017-3.807-0.176-5.703c0.391-3.857-4.696-6.288-7.515-3.746c-1.983,1.605-1.667,3.987-1.493,6.311
			c0.199,6.273-0.486,12.512-1.307,18.72c-3.586,22.111-10.684,43.689-20.775,63.682c-18.247,35.489-48.251,65.588-85.268,81.112
			c-20.247,7.499-42.088,10.377-63.602,10.661c-15.167-0.91-30.346-1.634-45.103-5.885c-2.368-0.792-5,0.408-5.849,2.79
			C689.763,769.051,730.98,769.659,737.857,770.795z"/>
		<path d="M689.646,784.784c-1.566,6.131,6.07,6.507,10.269,7.526c8.4,1.77,16.971,2.722,25.536,3.159
			c70.839,4.256,146.515-23.25,185.819-84.832c26.935-41.147,39.218-91.771,34.093-140.682c0.011,0.424,0.032,0.858-0.083,1.27
			c0.716-8.414-11.283-6.326-8.832,1.456c1.828,18.262,0.831,36.745-2.185,54.828c-8.558,48.081-33.547,95.109-74.267,123.297
			c-47.156,32.704-108.703,43.223-164.589,31.013C693.045,781.07,690.384,782.395,689.646,784.784z"/>
		<path d="M684.939,813.552c-3.792,9.762,34.923,11.447,42.148,12.631c57.946,4.979,119.478-11.024,164.977-47.876
			c36.98-33.545,57.935-81.729,70.514-129.24c5.272-21.856,6.379-45.643,4.58-68.158c-1.448-5.425,0.133-27.596-7.833-26.32
			c-8.117,0.686-1.069,16.841-1.689,22.667c1.821,19.404,1.559,39.097-1.632,58.342c-10.633,50.358-33.364,104.25-73.06,138.426
			c-45.721,34.63-105.941,49.008-162.618,42.332c-7.677-0.859-15.313-2.028-22.827-3.844
			C693.345,811.789,687.123,807.786,684.939,813.552z"/>
		<path d="M678.42,839.155c-3.804,10.832,44.012,12.688,52.389,13.372c106.683,3.747,211.427-42.938,244.469-151.055
			c10.799-33.209,15.696-68.253,14.128-103.151c-1.727-17.681-1.788-37.927-10.755-53.561c-4.473-3.777-10.073,2.847-6.284,6.912
			c2.891,7.039,4.063,14.611,5.351,22.071c3.55,21.839,3.337,44.098,1.463,66.094c-6.885,65.003-36.047,131.682-94.135,166.068
			c-57.382,34.584-135.841,47.61-200.867,30.282C681.805,835.426,679.179,836.78,678.42,839.155z"/>
		<path d="M668.318,874.915c-3.313,9.418,31.324,9.969,38.384,11.123c93.241,9.664,192.162-25.981,251.222-100.159
			c30.646-39.891,43.719-90.29,47.811-139.737c1.884-24.458,1.703-49.335-2.94-73.487c-3.032-12.963-4.963-27.3-12.321-38.556
			c-3.023-2.588-8.024,0.323-7.38,4.202c1.111,3.167,2.854,6.155,3.845,9.413c2.58,7.581,4.539,15.346,6.184,23.178
			c3.67,16.803,4.614,34.063,4.52,51.226c-1.093,59.793-14.986,123.049-55.715,168.755c-45.723,49.73-111.109,80.894-178.35,86.395
			c-29.824,1.517-60.502,1.752-89.625-5.55C671.564,870.985,668.967,872.561,668.318,874.915z"/>
		<path d="M674.314,912.162c10.756,1.845,21.628,2.851,32.506,3.568c75.729,7.26,160.653-21.402,220.872-67.067
			c59.311-46.405,94.178-119.129,99.215-193.73c2.008-40.708-4.933-94.374-26.228-129.354c-4.422-2.586-9.016,3.413-5.726,7.107
			c3.794,7.621,6.933,15.533,9.758,23.559c6.167,18.532,9.899,37.456,12.178,57.034c6.217,63.586-11.862,129.894-49.472,181.532
			c-43.341,58.527-111.721,91.964-181.523,107.466c-25.497,5.316-51.601,6.564-77.534,4.393c-10.61-0.701-21.796-1.693-32.868-3.592
			c-2.461-0.423-4.818,1.555-5.129,3.951C670.03,909.579,671.86,911.739,674.314,912.162z"/>
		<path d="M858.201,920.133c58.539-25.671,113.32-66.969,144.008-124.038c16.465-30.109,27.743-62.904,35.554-96.258
			c0.679-4.085,2.178-8.324,1.497-12.479c-1.452-5.277-9.299-3.33-8.973,1.496c-8.426,45.82-25.818,90.873-52.628,129.137
			c-25.367,34.564-60.539,60.74-97.617,81.628c-60.145,33.209-131.964,35.722-198.795,26.858c-3.017-0.515-6.083-1.096-9.123-1.795
			c-5.851-1.374-7.763,7.565-2.102,8.915c9.509,2.189,19.227,3.407,28.938,4.299C752.333,942.487,807.977,940.313,858.201,920.133z
			 M1030.443,689.794c-0.056-0.2-0.087-0.406-0.102-0.614C1030.37,689.383,1030.385,689.582,1030.443,689.794z"/>
		<path d="M985.743,858.745c33.667-41.244,54.125-91.299,65.19-143.043c1.159-4.247-4.004-7.654-7.36-4.878
			c-2.788,3.328-2.38,8.355-3.891,12.371c-4.096,16.911-8.924,33.656-15.057,49.947C977.464,896.2,857.902,969.315,727.167,961.361
			c-15.302-0.545-30.77-1.132-45.746-4.563c-2.428-0.58-4.939,0.978-5.509,3.403c-0.573,2.436,0.978,4.932,3.406,5.509
			c13.53,3.174,27.478,3.936,41.318,4.567C820.242,977.833,923.607,938.393,985.743,858.745z"/>
		<path d="M737.371,1002.327c53.663,2.641,108.03-8.421,157.358-29.4c48.845-24.342,91.426-62.659,120.403-108.933
			c24.129-41.338,42.277-87.116,49.81-134.484c0.348-3.59-3.834-6.236-6.889-4.388c-1.561,0.898-2.477,2.763-2.285,4.527
			c-0.783,6.646-2.386,13.165-3.857,19.682c-5.04,20.763-12.037,41-19.998,60.814c-25.515,65.722-75.634,121.103-138.39,153.221
			c-41.063,18.233-86.194,28.42-131.075,30.135c-10.897,0.336-21.795-0.119-32.671-0.771c-11.063-0.705-22.296-1.551-33.337-3.553
			c-2.457-0.448-4.818,1.58-5.126,3.958c-0.371,2.463,1.529,4.804,3.958,5.126C709.176,1000.692,723.291,1001.568,737.371,1002.327z
			"/>
		<path d="M1048.821,829.938c-35.62,92.669-108.705,165.764-206.524,189.577c-40.738,8.771-93.186,10.911-133.569,0.415
			c-2.382-0.747-4.993,0.743-5.684,3.104c-4.84,10.33,46.705,12.368,54.807,12.71c115.029,5.856,215.182-50.053,273.526-148.93
			c26.954-44.655,41.572-95.871,48.911-147.306c1.23-5.52-7.562-7.443-8.894-2.087c-1.913,12.843-4.226,25.629-7.024,38.315
			C1060.336,794.053,1055.288,812.293,1048.821,829.938z"/>
		<path d="M661.172,463.05c-0.667,3.125-0.279,6.904,3.496,7.558c5.424,0.439,5.444-4.231,5.766-8.292
			c2.622-25.544,4.271-51.472-0.322-76.893c-1.09-5.1-2.995-21.394-6.744-23.999c-4.053-2.584-8.344,1.986-6.667,5.685
			c7.081,24.222,8.258,50.158,6.316,75.353C662.523,449.331,661.874,456.194,661.172,463.05z M657.089,367.805
			c0.173,0.249,0.375,0.491,0.613,0.724C657.458,368.323,657.26,368.074,657.089,367.805z"/>
		<path d="M676.78,368.574c-2.129-3.281-7.78-2.044-8.253,1.874c-0.243,2.029,0.663,3.022,1.197,5.099
			c6.448,23.756,5.87,47.786,6.476,72.392c0.093,4.66,0.222,9.331,0.071,13.995c-0.082,2.493,1.927,4.642,4.424,4.728
			c3.469,0.151,5.173-3.28,4.774-6.355c0.076-5.452-0.082-10.907-0.207-16.358c-0.438-21.593-0.408-43.399-5.115-64.589
			C679.28,375.695,678.59,371.93,676.78,368.574z"/>
		<path d="M681.771,376.475c-0.773,1.198-0.939,2.763-0.424,4.091c0.866,2.986,1.6,6.018,2.329,9.036
			c3.497,14.941,5.521,30.253,5.953,45.594c0.186,5.96,0.211,12.544,0.14,19.117c-0.025,2.497,1.888,4.642,4.427,4.732
			c2.443,0.084,4.705-1.93,4.728-4.427c0.104-9.897,0.022-19.826-0.605-29.708c-1.19-15.286-3.661-30.504-7.751-45.29
			C690.072,374.815,684.934,372.24,681.771,376.475z"/>
		<path d="M695.235,392.485c3.867,11.161,5.701,22.922,6.863,34.645c0.324,3.884,0.472,7.778,0.598,11.672
			c0.208,3.732-0.918,10.17,4.549,10.45c2.412,0.086,4.75-1.927,4.728-4.424c-0.036-4.549-0.197-9.102-0.422-13.644
			c-0.962-14.558-3.215-29.087-8.102-42.964C700.999,380.829,691.473,385.54,695.235,392.485z"/>
		<path d="M716.28,392.772c-2.227-5.613-10.639-2.381-8.575,3.224c0.856,2.793,1.974,5.504,2.832,8.302
			c2.615,9.134,3.87,18.63,4.482,28.094c0.092,2.495,2.641,4.336,5.015,4.101c3.121-0.24,4.573-3.449,4.04-6.258
			C723.259,417.444,720.854,404.756,716.28,392.772z"/>
		<path d="M718.971,1046.755c-5.866-1.37-7.748,7.539-2.116,8.912c19.794,4.275,39.927,7.038,60.043,9.267
			c89.474,6.315,180.131-33.389,235.991-103.598c48.4-60.193,74.473-136.442,81.565-212.833c1.653-6.388-7.196-9.308-9.042-3.098
			c-0.518,11.64-2.299,23.166-4.197,34.683c-4.806,28.266-12.42,56.046-22.623,82.836
			C1002.871,1008.257,872.129,1083.528,718.971,1046.755z"/>
		<path d="M974.213,1028.873c-62.114,46.846-121.147,67.698-199.294,56.933c-7.754-0.942-15.492-2.026-23.182-3.412
			c-4.981-0.926-9.93-1.999-14.811-3.353c-2.407-0.67-4.961,0.931-5.566,3.31c-1.024,6.851,8.173,6.4,12.794,7.87
			c19.896,4.017,40.072,6.294,60.363,7.081c49.531,3.216,98.285-11.665,140.268-37.515c42.968-25.302,80.571-60.037,106.15-103.076
			c15.706-25.162,27.982-52.33,36.865-80.618c7.548-23.767,13.381-48.181,16.23-72.978c-0.075-3.917,1.929-8.923-0.838-12.197
			c-1.767-1.766-4.74-1.716-6.48,0.05C1086.084,880.656,1048.464,972.969,974.213,1028.873z"/>
		<path d="M1071.916,945.497c-38.747,82.13-114.798,146.065-203.196,167.877c-36.021,8.071-73.459,8.589-110.011,4.157
			c-2.471-0.344-4.789,1.601-5.065,4.037c-0.287,2.525,1.565,4.724,4.037,5.065c10.819,1.44,21.734,2.001,32.628,2.532
			c69.311,4.247,137.875-19.06,192.81-60.969c43.17-31.174,76.331-74.864,98.998-122.797c9.359-19.218,16.91-39.557,22.713-60.18
			c5.735-21.434,10.663-43.629,11.872-65.764c-1.291-5.159-9.347-3.693-8.96,1.427c0,0-0.017-0.027-0.017-0.027
			c-4.41,43.345-16.616,86.174-36.117,125.285c0.07-0.148,0.142-0.296,0.212-0.444
			C1071.853,945.63,1071.885,945.563,1071.916,945.497z"/>
		<path d="M774.904,1161.925c8.037,1.25,16.218,1.576,24.342,1.713c89.438,3.802,175.754-40.168,236.45-104.04
			c34.331-37.192,59.786-82.223,76.478-129.891c7.927-23.216,14.108-47.112,17.222-71.47c-0.156-5.214,4.329-15.78-3.628-16.595
			c-7.127,0.723-3.991,11.732-5.654,16.978c-2.751,21.159-8.104,41.886-14.57,62.189c-26.386,80.74-77.87,149.217-151.52,192.489
			c-48.946,29.005-106.069,44.805-163.104,40.929c-5.014-0.247-10.027-0.631-14.988-1.402
			C769.849,1152.23,769.138,1161.098,774.904,1161.925z"/>
		<path d="M803.151,1198.296c93.937,1.635,187.443-40.553,250.727-109.768c53.509-61.761,84.725-141.531,94.388-222.244
			c1.589-5.106-1.639-10.795-7.062-7.554c-1.118,0.874-1.748,2.283-1.751,3.681c-1.043,10.796-2.782,21.493-4.691,32.166
			c-3.412,18.615-8.203,36.972-14.088,54.954c-19.965,58.796-50.628,115.768-98.023,156.999c0.145-0.131,0.293-0.262,0.437-0.391
			c-42.625,37.212-94.404,63.993-149.771,76.047c-12.275,2.832-25.135,4.672-38.242,5.835c-10.664,0.886-21.41,1.421-32.11,1.115
			C796.993,1189.153,797.277,1198.48,803.151,1198.296z"/>
		<path d="M1017.165,1165.373c69.209-48.927,114.292-127.4,135.233-208.486c4.852-19.208,8.327-38.721,10.501-58.408
			c0.798-7.033,1.599-14.075,2.074-21.14c1.4-5.035-2.612-10.32-7.455-6.913c-2.983,3.272-1.139,8.51-2.192,12.597
			c-0.902,9.59-2.026,19.164-3.344,28.707c-2.657,18.957-6.809,37.664-11.974,56.089c-19.177,65.523-54.8,127.416-106.051,173.021
			c-37.309,31.752-83.003,52.944-129.935,66.162c-18.041,4.97-36.602,7.446-55.258,8.545c-8.013,0.549-16.04,0.978-24.074,1.053
			c-3.965,0.066-5.719,5.446-2.79,7.966C890.096,1229.5,960.473,1202.619,1017.165,1165.373z"/>
		<path d="M845.785,1259.677c58.521,0.522,117.635-17.027,166.068-49.971c75.76-52.531,129.937-132.294,155.813-220.383
			c6.033-19.135,10.721-38.666,14.103-58.442c1.251-7.101,2.423-14.218,3.331-21.373c1.037-3.89,0.881-9.345-4.303-9.316
			c-6.419,0.826-4.157,10.228-5.752,15.226c-3.474,22.864-8.145,45.583-15.043,67.673c-19.024,64.328-51.387,125.109-99.077,172.766
			c-33.612,34.644-73.746,63.818-119.886,79.103c-20.357,6.959-41.573,11.066-62.852,14.005c-10.53,1.278-21.144,2.112-31.753,1.573
			C840.419,1250.161,840.006,1259.226,845.785,1259.677z"/>
		<path d="M1070.552,1188.25c-29.613,29.963-66.626,51.541-106.337,65.439c-20.097,6.878-40.938,11.552-61.932,14.687
			c-10.661,1.392-21.441,1.984-32.19,1.579c-6.107-0.218-6.386,8.641-0.573,9.145c60.42,0.59,120.911-19.818,170.771-53.527
			c71.559-51.711,122.148-136.926,148.704-220.077c5.803-18.985,10.376-38.336,13.789-57.892c0.168-5.464,6.907-27.151,0.971-29.1
			c-8.188-2.757-6.354,7.595-7.562,12.598c-4.358,29.601-11.19,58.873-20.976,87.159
			C1152.655,1081.255,1117.677,1140.509,1070.552,1188.25z"/>
		<path d="M1096.425,1218.711c51.563-48.228,86.402-111.713,109.127-178.011c9.713-28.079,16.752-57.054,21.345-86.403
			c-0.027-5.011,5.484-19.148-1.629-20.424c-5.343-0.911-5.734,4.955-5.936,8.804c-0.463,3.537-0.972,7.081-1.541,10.606
			c-4.999,31.84-12.97,63.208-24.117,93.456c-36.667,105.764-114.283,205.254-226.282,234.964
			c-21.044,5.236-41.831,8.118-63.833,8.348c-6.154-0.045-12.345-0.219-18.414-1.307c-7.336-0.728-6.999,9.19-0.193,9.255
			C962.73,1305.547,1040.287,1271.299,1096.425,1218.711z"/>
		<path d="M1253.674,947.914c-4.636,35.837-15.094,70.847-27.233,104.879c-24.264,65.071-60.932,126.434-110.873,175.045
			c-27.594,26.636-59.877,48.738-95.75,62.587c-33,13.25-68.886,17.627-104.256,17.584c-4.631-0.035-9.452-0.179-14.273-0.645
			c-2.486-0.24-4.717,1.812-4.889,4.252c0.147,7.899,13.537,4.65,19.133,5.535c156.928,5.104,265.181-119.889,317.553-255.98
			C1236.177,1055.138,1279.56,925.283,1253.674,947.914z"/>
		<path d="M915.544,1317.151c-0.004,0-0.008-0.001-0.012-0.001c-0.032-0.001-0.064-0.001-0.096-0.002
			C915.437,1317.149,915.544,1317.15,915.544,1317.151z"/>
		<path d="M1281.775,956.749c-3.715,3.206-1.803,9.157-3.136,13.538c-4.832,31.935-13.426,63.173-24.197,93.665
			c-20.096,54.775-47.367,108.013-87.37,150.989c-49.425,51.899-112.051,96.037-183.114,110.89
			c-18.621,2.975-36.772,5.302-55.782,3.369c-2.486-0.225-4.717,1.802-4.889,4.252c-0.362,7.922,15.838,4.761,21.484,5.621
			c67.096-0.647,129.067-33.153,180.987-73.549c55.563-42.797,97.241-101.031,124.202-165.492
			c11.999-27.581,21.708-56.123,28.947-85.317c3.528-14.128,6.696-28.37,8.736-42.797c0.14-4.513,2.408-9.756,0.349-13.974
			C1286.646,955.964,1283.751,955.433,1281.775,956.749z"/>
		<path d="M1303.977,964.674c-0.447,5.947-1.195,11.903-2.012,17.807c-4.625,34.003-13.623,67.64-24.193,100.358
			c-37.407,111.178-125.398,208.419-235.693,250.303c-16.554,6.113-33.741,11.044-51.323,13.219
			c-5.687,0.866-11.388,1.577-17.12,2.053c-3.904,0.415-10.065-0.555-10.22,5c0.024,2.437,2.172,4.636,4.645,4.517
			c8.181-0.39,16.312-1.329,24.407-2.561c27.479-3.624,53.934-13.006,79.082-24.432c107.904-52.445,190.974-153.238,222.251-269.024
			c7.416-26.244,13.99-52.514,17.43-79.659c-0.12-4.986,4.191-17.989,0.102-21.069
			C1308.553,958.874,1303.909,961.117,1303.977,964.674z"/>
		<path d="M1269.059,1166.996c-9.46,16.767-20.132,32.835-32.084,47.93c-5.474,7.073-11.005,14.133-16.776,20.967
			c-2.564,4.18-11.188,8.674-6.575,14.039c5.237,4.298,9.015-3.445,12.304-6.672c6.007-6.968,11.684-14.235,17.329-21.496
			c51.723-65.819,80.756-147.947,91.96-230.349c0.007-3.836,1.549-8.337-0.581-11.792c-1.495-1.975-4.548-2.265-6.455-0.716
			c-2.239,1.631-1.537,4.419-1.712,6.802C1319.674,1048.811,1299.089,1111.098,1269.059,1166.996z"/>
		<path d="M1249.791,1258.435c9.715-11.368,18.603-23.412,27.05-35.741c41.949-60.267,68.738-130.483,79.877-202.952
			c0.161-4.639,2.555-10.118,0.166-14.385c-1.613-1.902-4.449-2.303-6.438-0.709c-3.094,3.302-1.521,9.751-2.834,14.088
			c-10.225,65.896-33.457,130.019-69.846,186.025c-13.53,20.858-27.834,40.742-44.968,58.957c-1.737,1.794-1.676,4.742,0.118,6.476
			C1238.956,1275.4,1245.512,1262.091,1249.791,1258.435z"/>
		<path d="M1289.255,1233.899c-11.832,15.85-25.031,30.687-39.702,43.967c-3.894,3.543-7.882,6.99-11.914,10.374
			c-1.913,1.601-2.3,4.456-0.713,6.437c1.541,1.918,4.535,2.31,6.44,0.709c13.518-11.356,26.388-23.519,37.89-36.929
			c45.173-52.314,72.94-117.634,89.248-184.293c1.786-7.35,3.409-14.736,4.642-22.201c1.227-4.353,0.452-10.23-5.373-9.052
			c-2.081,0.614-3.284,2.563-3.262,4.605c-1.566,11.877-4.665,23.518-7.634,35.108
			C1344.742,1136.511,1322.542,1188.967,1289.255,1233.899z"/>
		<path d="M1287.906,1274.026c-14.603,14.899-29.96,29.111-46.006,42.439c-3.004,3.04-10.254,4.962-7.739,10.411
			c4.406,6.418,10.93-1.786,15.123-4.623c6.874-5.596,13.432-11.596,19.98-17.567c60.002-51.652,98.837-123.687,120.256-199.169
			c2.341-8.473,4.954-16.95,6.14-25.679c0.814-4.015-3.778-7.326-7.193-4.918c-1.423,0.981-2.056,2.669-1.943,4.302
			c-0.466,3.449-1.3,6.844-2.119,10.223c-3.178,12.582-7.057,24.975-11.182,37.276
			C1355.074,1180.725,1327.377,1232.581,1287.906,1274.026z"/>
		<path d="M1274.403,1317.693c-7.761,6.177-15.224,11.414-23.762,16.796c-2.659,1.704-5.292,3.49-8.108,4.922
			c-3.564,1.602-9.124,2.791-7.243,7.98c3.461,6.791,13.15-1.102,17.676-3.531c11.062-6.888,21.704-14.397,31.775-22.671
			c54.48-42.784,92.846-103.49,115.449-168.483c2.819-8.289,5.683-16.65,7.171-25.295c0.729-4.085-4.095-6.995-7.315-4.505
			c-1.377,0.969-1.781,2.613-1.911,4.192c-3.432,15.724-9.233,30.151-15.253,45.31
			C1359.599,1228.866,1323.311,1280.605,1274.403,1317.693z"/>
		<path d="M1306.875,1323.132c-16.15,14.06-33.471,26.689-51.788,37.775c-5.004,3.117-10.001,6.347-15.27,9.002
			c-3.546,1.805-2.691,7.507,1.096,8.389c4.773,0.433,8.712-3.853,12.844-5.82c10.137-6.271,20.335-12.49,30.038-19.422
			c59.264-42.185,105.757-101.693,133.455-168.881c1.693-3.507-1.557-7.612-5.334-6.562c-1.731,0.466-2.848,1.85-3.267,3.453
			c-1.34,3.767-3.014,7.43-4.691,11.054C1381,1241.792,1348.428,1287.339,1306.875,1323.132z"/>
		<path d="M1411.558,1238.536c-27.661,50.677-69.314,93.33-118.959,122.734c-8.624,4.974-18.02,10.305-27.262,14.469
			c-7.171,3.045-14.424,6.08-21.911,8.258c-3.791,1.134-3.993,6.882-0.448,8.439c4.667,1.417,12.387-3.281,17.229-4.691
			c17.196-6.642,33.232-15.987,48.75-25.862c47.015-30.544,86.426-72.893,112.508-122.592c2.756-3.712,2.17-9.223-3.249-9.216
			C1414.004,1230.561,1413.585,1235.603,1411.558,1238.536z"/>
		<path d="M1095.212,1329.448c-17.999,11.963-37.877,20.908-58.208,28.11c-10.333,3.402-20.921,6.182-31.694,7.756
			c-3.373,0.459-6.763,0.735-10.162,0.892c-2.608,0.051-5.542-0.159-6.781,2.912c-0.924,2.282,0.193,5.069,2.525,5.964
			c33.397,1.093,74.559-17.205,103.077-33.941c2.653-2.082,6.777-3.178,7.981-6.573
			C1103.112,1330.837,1098.498,1327.273,1095.212,1329.448z"/>
		<path d="M1096.259,1349.999c-1.326,0.968-2.67,1.909-4.027,2.837c-12.106,7.793-24.83,14.862-38.498,19.514
			c-10.835,3.554-21.977,6.206-33.275,7.773c-3.921,1.157-11.718-0.255-13.404,4.018c-0.96,2.372,0.244,4.954,2.526,5.968
			c1.573,0.689,3.491,0.176,5.079-0.004c6.266-0.738,12.52-1.641,18.705-2.902c24.772-4.658,48.131-15.3,68.544-29.995
			C1106.613,1353.486,1100.992,1346.397,1096.259,1349.999z"/>
		<path d="M1106.165,1374.251c4.693-3.73-0.911-10.82-5.649-7.214c-5.621,4.062-11.594,7.705-17.755,10.883
			c-12.895,6.574-26.599,11.505-40.806,14.322c-4.039,1.217-11.849-0.166-11.34,6.19c1.43,7.286,11.982,2.524,17.272,1.906
			c17.804-4.057,34.969-11.101,50.434-20.818C1100.989,1377.85,1103.632,1376.124,1106.165,1374.251z"/>
		<path d="M1108.327,1380.341c-3.34,2.828-7.173,5.009-10.95,7.2c-7.391,4.29-15.122,8.01-23.258,10.671
			c-5.643,1.874-11.345,3.631-17.182,4.796c-4.023,0.098-6.859,3.14-4.946,7.074c2.656,5.063,13.568-0.155,18.082-0.97
			c15.668-4.612,30.882-11.639,43.904-21.56C1118.69,1383.829,1112.991,1376.66,1108.327,1380.341z"/>
		<path d="M1117.323,1396.13c-8.451,5.813-16.861,10.217-26.763,13.627c-3.975,1.318-8.028,2.378-12.127,3.233
			c-3.1,0.279-6.962,1.106-6.937,4.986c0.756,7.615,10.048,3.5,14.764,2.597c13.161-3.423,25.584-9.45,36.711-17.233
			C1127.665,1399.619,1122.073,1392.527,1117.323,1396.13z"/>
		<path d="M1128.503,1409.829c-3.001-3.766-7.053-0.467-9.886,1.671c-5.512,3.982-11.565,7.032-17.888,9.307
			c-3.201,2.375-1.625,7.821,2.304,8.189c9.226-1.188,17.121-7.682,24.69-12.733
			C1129.728,1414.775,1130.007,1411.755,1128.503,1409.829z"/>
		<path d="M1134.443,1420.141c-3.665-3.463-6.892,0.738-9.857,2.805c-3.115,1.389-4.793,4.562-2.636,7.579
			c2.559,3.377,6.646,1.1,9.212-1.014C1134.293,1427.529,1137.85,1423.561,1134.443,1420.141z"/>
		<path d="M1140.602,1429.297c-3.991-3.105-9.783,2.385-7.242,6.616C1137.386,1442.224,1146.317,1433.863,1140.602,1429.297z"/>
		<path d="M1303.866,1381.373c-13.567,6.654-27.634,11.678-42.169,15.917c-4.126,1.243-8.267,2.511-12.469,3.475
			c-2.432,0.559-3.875,3.252-3.252,5.602c2.133,7.139,13.53,0.426,18.598-0.383c4.91-1.483,9.81-3.007,14.676-4.636
			c63.253-21.202,114.872-68.654,150.583-124.099c2.233-4.676,11.739-13.825,3.446-17.107c-5.628-1.252-6.9,6.757-9.873,10.151
			c-5.793,9.2-12.113,18.065-18.769,26.664C1377.762,1332.023,1343.74,1361.982,1303.866,1381.373z"/>
		<path d="M1297.318,1407.545c-13.727,4.511-27.767,8.088-41.886,11.142c-3.613,0.732-7.23,1.464-10.911,1.751
			c-2.135,0.076-4.279,2.286-4.169,4.567c0.004,2.379,2.123,4.735,4.596,4.567c7.553-0.608,14.936-2.482,22.308-4.162
			c67.834-13.941,127.662-55.174,169.077-110.163c4.348-5.729,8.391-11.701,12.14-17.84c1.081-1.934,2.585-3.804,2.719-6.089
			c0.005-5.306-7.229-5.878-8.824-1.683C1409.546,1343.211,1356.989,1387.221,1297.318,1407.545z M1442.173,1290.245
			c-0.061,0.271-0.112,0.55-0.127,0.854C1442.058,1290.817,1442.101,1290.528,1442.173,1290.245z"/>
		<path d="M1451.41,1339.669c2.644-4.353,12.935-12.235,6.255-16.838c-2.348-1.381-5.569-0.3-6.61,2.244
			c-4.909,7.025-10.593,13.471-16.229,19.916c-25.303,28.229-55.379,52.43-89.48,69.189c-30.206,15.226-63.495,23.301-97.155,25.683
			c-2.419,0.162-4.978,0.28-7.564,0.193c-6.082,0.152-5.907,8.987,0.025,9.159C1323.718,1447.888,1399.96,1403.491,1451.41,1339.669
			z"/>
		<path d="M1470.82,1353.14c2.156-3.336-1.415-7.862-5.137-6.723c-1.292,0.337-2.272,1.229-2.933,2.36
			c-3.354,4.87-7.252,9.361-11.153,13.796c-36.13,39.098-83.582,68.382-135.129,82.025c-11.041,2.879-22.232,5.175-33.52,6.844
			c-4.904,0.76-9.811,1.483-14.739,2.067c-2.475,0.294-4.263,2.69-3.94,5.14c0.321,2.506,2.704,4.239,5.14,3.94
			c47.273-5.205,93.74-20.004,133.204-46.963C1428.262,1398.891,1452.927,1378.306,1470.82,1353.14z"/>
		<path d="M1481.892,1371.428c-0.962-3.886-6.86-4.462-8.498-0.778c-17.956,23.42-41.933,42.077-67.893,55.906
			c-5.753,2.924-11.58,5.712-17.478,8.329c-5.734,2.547-11.494,5.054-17.365,7.275c-3.71,1.405-3.529,7.165,0.151,8.461
			c3.822,1.361,15.864-5.6,20.496-7.17c26.751-11.375,51.436-27.513,72.222-47.87
			C1467.089,1391.758,1483.962,1375.929,1481.892,1371.428z"/>
		<path d="M1476.345,1416.709c5.39-4.759,10.626-9.702,15.46-15.03c1.377-1.668,3.206-3.157,3.854-5.283
			c1.214-5.259-5.754-7.562-8.27-3.562c0.039-0.059,0.07-0.124,0.11-0.182c-14.866,17.362-33.535,31.228-53.792,41.7
			c-9.079,4.535-18.144,9.184-27.639,12.791c-3.036,0.593-5.991,2.864-4.994,6.291c0.685,2.386,3.334,3.85,5.677,3.123
			c7.324-2.344,14.228-5.815,21.158-9.112C1445.212,1439.205,1461.915,1429.416,1476.345,1416.709z M1487.207,1393.133
			c-0.138,0.26-0.266,0.535-0.366,0.843C1486.923,1393.679,1487.057,1393.402,1487.207,1393.133z"/>
		<path d="M1498.372,1425.249c3.435-3.809,12.905-11.409,4.309-15.012c-2.472-0.65-4.542,1.026-5.705,3.03
			c-4.208,4.818-8.762,9.33-13.476,13.652c-11.356,10.217-24.213,18.662-37.881,25.453c-5.076,2.593-10.186,5.138-15.451,7.326
			c-2.303,0.96-3.356,3.768-2.371,6.028c1.007,2.332,3.768,3.321,6.025,2.371c5.119-2.124,10.097-4.588,15.03-7.11
			C1467.223,1451.981,1484.212,1440.06,1498.372,1425.249z"/>
		<path d="M1508.378,1443.332c2.527-2.912,6.026-5.701,6.917-9.592c0.625-4.477-5.59-6.945-8.221-3.263
			c-2.87,4.686-7.162,8.313-11.114,12.069c-10.492,9.65-23.074,16.511-35.609,23.114c-2.737,1.403-5.473,2.843-8.344,3.949
			c-2.847,0.541-5.181,3.049-4.296,6.057c0.682,2.382,3.335,3.862,5.677,3.124c7.147-2.416,13.654-6.392,20.295-9.922
			C1486.381,1462.039,1498.393,1453.801,1508.378,1443.332z"/>
		<path d="M1528.164,1446.104c-0.896-3.617-6.199-4.462-8.186-1.328c-10.229,11.397-23.625,19.215-37.176,26.017
			c-3.273,2.211-12.184,3.655-9.821,9.664c2.415,5.087,7.811,1.614,11.312-0.172c12.253-6.188,24.552-12.66,34.838-21.882
			C1522.028,1455.2,1529.322,1450.913,1528.164,1446.104z"/>
		<path d="M1529.322,1459.395c-2.928,4.32-6.812,7.794-11.245,10.543c-2.709,1.252-5.117,4.209-3.241,7.329
			c3.231,4.941,8.369,0.281,11.669-2.068c4.515-3.089,8.374-7.302,11.14-11.999
			C1539.681,1457.889,1531.966,1454.404,1529.322,1459.395z"/>
		<path d="M1110.609,1330.586c2.733-1.275,5.441-2.607,8.109-4.008c5.498-2.88,10.825-6.104,16.076-9.409
			c23.042-14.384,44.084-31.765,63.404-50.817c3.775-3.707,7.576-7.411,11.161-11.308c1.691-1.834,1.716-4.71-0.111-6.476
			c-1.762-1.701-4.786-1.723-6.476,0.115c-2.651,2.88-5.434,5.641-8.213,8.4c-5.193,5.154-10.446,10.24-15.866,15.157
			c-11.881,10.749-24.391,20.802-37.628,29.836c-9.1,6.192-18.403,12.184-28.194,17.232c-2.785,1.634-6.044,2.513-8.631,4.412
			c-2.452,2.433-1.11,6.934,2.246,7.644C1107.933,1331.72,1109.277,1331.217,1110.609,1330.586z"/>
		<path d="M1105.678,1347.322c3.312,0.994,6.47-1.354,9.589-2.224c10.189-3.81,20.107-8.298,29.698-13.429
			c16.812-8.895,32.313-20.011,47.074-31.955c11.091-8.976,22.569-17.642,32.273-28.161c4.073-4.49-2.397-10.581-6.587-6.365
			c-9.271,10.125-20.338,18.381-30.958,27.015c-16.313,13.295-33.674,25.338-52.543,34.737c-8.351,4.098-17.458,7.937-26.777,11.29
			C1102.458,1338.776,1100.844,1345.269,1105.678,1347.322z"/>
		<path d="M1223.216,1292.112c-5.965,5.77-12.729,10.796-19.636,15.445c-11.706,8.042-23.614,15.813-36.102,22.599
			c-14.355,7.823-29.293,14.681-44.982,19.364c-4.413,1.376-8.948,2.322-13.378,3.628c-1.294,0.229-2.907,1.958-2.969,4.166
			c-0.068,2.443,1.959,4.7,4.452,4.7c3.511-0.559,6.927-1.735,10.398-2.54c10.59-2.952,20.933-6.725,30.926-11.305
			c21.56-9.723,41.605-22.37,60.957-35.891c4.948-3.457,9.652-7.256,14.192-11.225c1.954-1.707,4.58-3.629,4.284-6.552
			C1231.138,1290.573,1225.508,1288.872,1223.216,1292.112z"/>
		<path d="M1224.253,1326.056c-2.952,1.92-5.969,3.737-9.005,5.521c-20.263,11.196-41.809,20.132-64.216,26.018
			c-12.131,3.233-25.19,5.994-37.778,7.586c-5.098,1.713-3.35,9.398,1.882,8.89c40.251-5.318,79.838-18.741,114.247-40.424
			C1234.312,1330.157,1229.281,1322.83,1224.253,1326.056z"/>
		<path d="M1115.16,1374.07c-0.009,0.001-0.016-0.001-0.025,0c-0.052,0.007-0.104,0.016-0.156,0.022
			C1115.04,1374.085,1115.1,1374.078,1115.16,1374.07z"/>
		<path d="M1229.239,1355.461c-26.508,11.46-54.819,20.287-83.786,22.042c-6.741,0.262-13.491,0.151-20.219-0.343
			c-1.777-0.03-3.649-0.599-5.362,0.072c-4.623,1.862-3.257,8.836,1.679,8.83c4.447,0.333,8.908,0.642,13.369,0.719
			c30.732,0.783,60.638-8.339,89.107-19.081c3.267-1.271,6.584-2.553,9.668-4.234
			C1238.908,1360.406,1234.519,1352.682,1229.239,1355.461z"/>
		<path d="M1165.314,1404.699c20.076,0.097,39.204-3.028,58.969-7.11c4.386-1.358,13.352-0.733,12.25-7.486
			c-2.048-6.466-9.608-1.788-14.21-1.458c-5.301,1.078-10.608,2.121-15.932,3.067c-11,1.924-22.11,3.19-33.263,3.718
			c-14.288,0.599-28.622-0.966-42.391-4.844c-2.464-0.412-4.857,1.333-5.255,3.786c-0.572,6.581,8.373,5.919,12.794,7.44
			C1147.153,1403.751,1156.239,1404.576,1165.314,1404.699z"/>
		<path d="M1240.136,1420.304c2.403-0.675,3.711-3.439,2.973-5.753c-2-5.519-8.243-1.942-12.372-1.713
			c-14.708,2.299-29.616,3.157-44.493,2.813c-16.108-0.59-32.289-2.683-47.562-7.992c-7.093-2.938-9.856,7.933-2.339,8.663
			c-0.411-0.001-0.824-0.06-1.217-0.192c11.636,4.014,23.755,6.563,36.013,7.712
			C1194.101,1425.864,1217.55,1425.04,1240.136,1420.304z"/>
		<path d="M1229.467,1434.291c-13.51,1.197-27.246,0.077-40.716-1.307c-12.744-1.866-25.608-3.619-37.857-7.845
			c0.168,0.079,0.333,0.158,0.497,0.234c0.064,0.047,0.128,0.095,0.193,0.143c-4.497-3.004-9.564,3.51-5.604,7.153
			c5.124,3.061,11.425,3.794,17.157,5.273c15.726,3.252,31.682,5.526,47.761,5.759c6.663,0.138,13.419,0.682,20.034-0.365
			C1236.851,1442.206,1235.4,1433.449,1229.467,1434.291z"/>
		<path d="M1222.969,1452.278c-2.848,0.125-5.828,0.042-8.816-0.08c-22.614-0.338-45.457-5.313-65.161-16.684
			c-3.104-2.184-8.132,0.728-7,4.9c0.884,3.961,11.311,7.313,14.983,9.277c18.28,8.036,38.198,11.436,58.088,11.708
			c4.957-0.252,17.5,2.099,16.13-6.031C1230.08,1451.289,1226.259,1451.878,1222.969,1452.278z M1149.49,1435.913
			c0.199,0.176,0.382,0.369,0.527,0.598C1149.853,1436.287,1149.675,1436.092,1149.49,1435.913z"/>
		<path d="M1214.622,1468.139c-9.88,0.535-19.554-0.366-29.586-3.136c-3.361-0.839-8.148-3.734-10.474,0.654
			c-1.259,2.384-0.066,5.56,2.514,6.426c10.463,3.656,21.513,5.405,32.592,5.337c1.824,0.021,3.65,0.021,5.47-0.132
			C1221.138,1476.77,1220.61,1467.916,1214.622,1468.139z"/>
		<path d="M1212.741,1483.991c-12.587,0.647-25.506-0.834-37.223-6.057c0.257,0.126,0.523,0.236,0.755,0.405
			c-4.934-3.074-9.844,3.926-5.254,7.486c11.162,5.446,23.701,7.491,36.063,7.4c2.975-0.191,6.635,0.792,9.016-1.451
			C1218.961,1489.078,1216.701,1483.733,1212.741,1483.991z"/>
		<path d="M1208.506,1500.063c-10.627,0.302-21.299-1.709-31.414-4.876c-2.919-0.965-5.745-2.165-8.485-3.562
			c-3.603-1.704-7.638,2.546-5.924,6.075c4.442,6.733,31.706,11.328,40.006,11.484c3.022-0.048,6.741,0.925,9.173-1.336
			C1214.724,1505.165,1212.463,1499.772,1208.506,1500.063z"/>
		<path d="M1203.727,1515.858c-7.606-0.403-15.232-1.927-22.501-4.194c-3.747-1.392-7.589-2.701-11.039-4.749
			c-3.011-2.596-8.02,0.325-7.365,4.197c0.724,4.452,7.953,6.035,11.548,7.763c7.43,3.075,15.389,4.5,23.308,5.656
			c1.999,0.269,4.022,0.501,6.042,0.491C1209.742,1524.872,1209.722,1515.998,1203.727,1515.858z"/>
		<path d="M1195.379,1529.581c-9.168-1.324-18.2-4.307-26.474-8.457c-2.643-1.745-6.993,0.477-6.859,3.883
			c0.041,4.77,6.94,6.019,10.43,7.812c7.375,2.593,14.913,5.225,22.742,5.921
			C1201.203,1538.791,1201.403,1529.795,1195.379,1529.581z"/>
		<path d="M1186.546,1542.916c-6.267-0.917-12.377-3.105-17.909-6.171c-5.223-3.008-9.802,4.594-4.76,7.826
			c6.305,3.604,14.034,6.325,21.33,7.411C1191.162,1552.7,1192.479,1543.923,1186.546,1542.916z"/>
		<path d="M1180.522,1555.919c-5.74-0.678-11.226-3.122-16.219-5.946c0.157,0.111,0.31,0.219,0.466,0.329
			c0.039,0.036,0.077,0.071,0.115,0.107c-4.37-3.719-10.241,2.339-6.355,6.571c5.986,4.137,13.419,6.984,20.653,8.002
			C1185.16,1565.764,1186.435,1556.833,1180.522,1555.919z"/>
		<path d="M1175.086,1568.268c-2.57-0.068-5.089-0.727-7.522-1.523c-2.539-0.929-5.09-1.87-7.508-3.08
			c-0.751-0.513-1.622-0.847-2.568-0.841c-2.916-0.047-5.288,2.811-4.521,5.668c-0.002-0.002-0.004-0.003-0.006-0.005
			c0.625,2.668,3.458,3.628,5.677,4.599c5.173,2.205,10.603,4.21,16.287,4.341
			C1180.939,1577.383,1181.085,1568.511,1175.086,1568.268z"/>
		<path d="M1145.239,1579.229c-0.219,6.063,16.488,10.041,21.377,10.101c1.501,0.125,3.009,0.218,4.517,0.193
			c6.013-0.159,5.999-9.035-0.004-9.159c-3.755-0.014-7.572-0.349-11.179-1.451c-1.552-0.548-3.101-1.108-4.592-1.813
			c-1.911-0.826-3.301-2.404-5.537-2.453C1147.323,1574.651,1145.239,1576.732,1145.239,1579.229z"/>
		<path d="M1139.443,1590.334c-1.198,4.843,4.474,6.356,7.934,7.712c6.063,2.228,12.432,3.603,18.898,3.804
			c1.834,0.079,3.664,0.029,5.477-0.326c3.878-0.786,4.591-6.56,1.15-8.382c-1.093-0.637-2.26-0.716-3.474-0.476
			c-1.26,0.104-2.534,0.06-3.795-0.014c-4.81-0.232-9.527-1.25-14.073-2.823c-2.266-0.72-4.34-1.804-6.511-2.745
			C1142.714,1586.463,1139.988,1587.899,1139.443,1590.334z"/>
		<path d="M1167.944,1605.731c-6.344,0.181-12.688-1.223-18.845-2.621c-2.928-0.803-5.827-1.706-8.609-2.924
			c-2.826-1.845-6.789,0.336-6.914,3.664c-1.358,7.217,24.187,10.302,29.569,10.936c1.83,0.164,3.67,0.232,5.502,0.078
			C1174.633,1614.249,1173.937,1605.403,1167.944,1605.731z"/>
		<path d="M1128.314,1613.283c-2.288,3.735,0.683,6.754,4.324,7.865c8.697,4.07,17.992,6.751,27.477,8.185
			c2.074,0.276,4.154,0.484,6.243,0.312c5.987-0.612,5.287-9.456-0.706-9.134c-5.49,0.12-10.871-1.546-16.177-2.78
			c-4.318-1.185-8.478-2.861-12.557-4.695C1134.109,1611.59,1130.573,1609.958,1128.314,1613.283z"/>
		<path d="M1159.289,1644.004c2.684,0.033,5.373-0.401,7.962-1.078c5.749-1.735,3.38-10.278-2.454-8.826
			c-3.135,0.775-6.362,1.131-9.553,0.24c0.444,0.139,0.879,0.318,1.258,0.592C1148.9,1630.905,1144.073,1644.877,1159.289,1644.004z
			"/>
		<path d="M1171.346,1656.123c3.518-1.807,2.668-7.547-1.139-8.385c-1.763-0.457-2.785,0.207-4.493,0.876
			c-3.119,1.043-6.488,1.208-9.721,0.743c-5.86,0.263-5.976,8.606-0.182,9.206
			C1161.05,1659.145,1166.604,1658.523,1171.346,1656.123z"/>
		<path d="M1175.9,1669.925c5.474-2.496,2.012-10.661-3.564-8.439c-3.766,1.472-7.956,2.106-11.945,1.408
			c-2.515,0.029-4.528,2.138-4.528,4.632c-0.032,3.343,3.38,4.898,6.308,4.821C1166.826,1672.474,1171.59,1671.694,1175.9,1669.925z
			"/>
		<path d="M1176.243,1675.166c-1.774,0.811-3.731,1.259-5.668,1.433c-1.884-0.062-3.79-0.231-5.646-0.553
			c-1.699-0.665-3.785-0.232-5.062,1.13c-1.768,1.863-1.528,4.757,0.208,6.473c1.476,1.457,4.06,1.5,6.043,1.802
			c4.715,0.694,9.634,0.073,13.959-1.963C1185.471,1680.822,1181.747,1672.777,1176.243,1675.166z"/>
		<path d="M1178.359,1697.306c5.431-2.572,1.808-10.661-3.747-8.36c-2.014,0.842-4.186,1.595-6.384,1.108
			c-2.745-0.857-5.87-1.339-7.506,1.668c-2.557,5.712,3.976,7.528,8.385,7.636
			C1172.309,1699.506,1175.43,1698.542,1178.359,1697.306z"/>
		<path d="M1167.213,1703.762c-2.883-0.926-6.112-2.088-8.105,1.094c-2.402,4.399,1.748,7.203,5.724,7.744
			c5.111,1.547,10.173-0.502,14.671-2.866c2.214-1.153,3.059-4.005,1.898-6.193
			C1177.798,1697.411,1172.05,1705.264,1167.213,1703.762z"/>
		<path d="M1173.522,1716.648c-3.599,2.15-7.43,0.316-11.229,0.232c-6.187,1.38-4.56,9.356,1.503,9.358
			c4.463,1.097,9.116,0.844,13.297-1.152C1182.571,1722.613,1179.117,1714.448,1173.522,1716.648z"/>
		<path d="M1168.016,1731.184c-3.069,0.563-6.446-1.806-9.151,0.348c-1.937,1.489-2.364,4.545-0.785,6.433
			c1.891,2.25,5.159,2.07,7.841,2.39c4.138,0.318,10.794-0.591,9.496-6.248C1174.382,1730.602,1171.03,1730.456,1168.016,1731.184z"
			/>
		<path d="M1165.453,1743.127c-1.949,0.283-3.723-0.188-5.613-0.477c-2.521,0.036-4.513,2.15-4.513,4.646
			c-0.03,3.76,4.108,5.095,7.253,5.025c3.809,0.351,9.702-0.323,9.084-5.452C1171.26,1743.938,1168.207,1742.326,1165.453,1743.127z
			"/>
		<path d="M1164.81,1756.458c-2.121-1.378-5.42-1.28-7.272,0.563c-2.055,2.049-1.486,5.752,1.111,7.182
			c1.292,0.712,2.697,0.607,4.094,0.48C1166.701,1764.304,1168.061,1758.665,1164.81,1756.458z"/>
		<path d="M1143.874,1630.302c-4.421-1.28-8.825-3.072-12.302-6.152c-4.485-3.608-10.142,2.83-6.062,6.843
			c4.52,4.069,10.25,6.553,16.058,8.174C1147.395,1640.553,1149.667,1631.968,1143.874,1630.302z"/>
		<path d="M1134.908,1640.13c-4.153-0.996-7.77-3.52-11.176-5.982c-5.024-2.808-9.566,4.271-4.961,7.681
			c4.074,3.029,8.803,5.981,13.834,7.166C1138.504,1650.362,1140.689,1641.722,1134.908,1640.13z"/>
		<path d="M1125.598,1649.8c-3.035-0.883-5.42-3.143-7.651-5.283c-2.659-3.621-8.768-1.118-8.121,3.37
			c0.799,4.246,9.321,9.741,13.368,10.753C1129.034,1660.058,1131.376,1651.602,1125.598,1649.8z"/>
		<path d="M1116.844,1660.199c-2.861-1.432-5.394-3.563-7.325-6.1c-4.612-6.215-12.174,1.607-6.443,6.619
			c2.663,2.958,5.646,5.682,9.252,7.447C1117.625,1670.978,1122.025,1663.262,1116.844,1660.199z"/>
		<path d="M1094.893,1673.763c3.05,2.954,6.209,6.135,10.434,7.257c5.814,1.426,8.135-7.151,2.353-8.851
			c-3.338-1.286-5.661-4.398-8.174-6.832c-2.934-3.594-9.248-0.203-7.82,4.238
			C1092.175,1671.325,1093.706,1672.472,1094.893,1673.763z M1100.534,1667.211c-0.225-0.675-0.536-1.286-0.968-1.804
			C1100.035,1665.921,1100.334,1666.548,1100.534,1667.211z"/>
		<path d="M1098.473,1682.004c-2.668-1.126-5.16-2.641-7.36-4.526c-1.33-1.434-2.711-2.968-5.043-2.609
			c-2.439,0.315-4.32,2.661-3.954,5.129c1.325,4.953,8.536,8.418,12.895,10.485
			C1100.6,1692.638,1103.989,1684.429,1098.473,1682.004z"/>
		<path d="M1087.859,1692.331c-1.528-0.526-3.088-1.447-4.336-2.509c-1.767-1.787-3.946-3.857-6.669-2.583
			c-3.528,1.463-3.603,6.264-0.598,8.346c2.545,2.453,5.587,4.453,8.979,5.505C1090.838,1702.571,1093.4,1694.221,1087.859,1692.331
			z"/>
		<path d="M1077.01,1702.844c-3.726-0.853-6.106-5.92-10.312-4.22c-3.333,1.29-3.746,6.123-0.795,8.059
			c2.363,1.837,4.782,3.651,7.644,4.639C1079.169,1713.504,1082.526,1705.164,1077.01,1702.844z"/>
		<path d="M1068.727,1713.747c-2.417-0.877-4.415-2.61-6.417-4.177c-1.244-1.552-3.462-2.178-5.36-1.379
			c-2.314,0.971-3.403,3.686-2.45,5.993c0.691,1.683,2.332,2.733,3.725,3.793c2.189,1.653,4.427,3.317,7.038,4.248
			C1070.883,1724.406,1074.246,1716.062,1068.727,1713.747z"/>
		<path d="M1060.359,1723.712c-2.375-1.088-4.462-2.736-6.326-4.549c-1-1.743-2.559-3.376-4.782-3.231
			c-3.48,0.074-5.503,4.2-3.716,7.078c2.494,3.922,6.562,6.763,10.647,8.854C1061.604,1734.516,1065.653,1726.495,1060.359,1723.712
			z"/>
		<path d="M1049.302,1732.972c-2.112-0.84-3.783-2.444-5.07-4.288c-0.64-1.35-1.947-2.398-3.444-2.643
			c-2.54-0.416-4.757,1.339-5.262,3.779c-0.425,4.772,6.089,9.764,10.044,11.516
			C1051.093,1743.656,1054.744,1735.564,1049.302,1732.972z"/>
		<path d="M1035.584,1750.406c5.184,3.019,9.826-4.546,4.771-7.82c-2.869-1.541-5.025-3.793-6.64-6.577
			c-3.927-3.86-9.956,0.99-7.193,5.71C1028.615,1745.457,1031.936,1748.251,1035.584,1750.406z"/>
		<path d="M1018.686,1748.428c-0.003,0.085-0.006,0.17-0.009,0.256c0.013-0.175,0.052-0.343,0.083-0.513
			c0.01-0.112,0.01-0.221,0.026-0.334C1018.75,1748.034,1018.718,1748.231,1018.686,1748.428z"/>
		<path d="M1031.362,1751.01c-1.15-0.909-2.4-1.745-3.333-2.888c-0.917-2-2.456-3.939-4.927-3.807
			c-2.249,0.073-3.964,1.749-4.343,3.855c-0.425,4.516,4.063,7.839,7.287,10.301
			C1030.999,1761.861,1036.158,1754.644,1031.362,1751.01z"/>
		<path d="M1021.115,1758.759c-0.785-0.573-1.381-1.218-1.894-2.043c-1.548-1.852-4.603-2.26-6.451-0.58
			c-5.036,4.997,2.631,10.095,6.659,12.501c3.393,2.041,7.851-1.696,6.53-5.405
			C1025.294,1760.913,1022.785,1760.197,1021.115,1758.759z M1019.74,1761.816c-0.251,0.421-0.523,0.823-0.89,1.151
			c0.47-0.479,0.831-1.037,1.071-1.633c-0.062,0.161-0.123,0.323-0.184,0.485L1019.74,1761.816z"/>
		<path d="M1009.302,1767.688c-5.12-1.783-8.448,4.87-4.312,8.178C1011.209,1780.504,1016.169,1770.722,1009.302,1767.688z"/>
		<path d="M1118.164,1618.053c-6.05,0.182-5.828,8.778-0.214,9.65C1124.78,1628.228,1124.637,1618.353,1118.164,1618.053z"/>
		<path d="M1112.877,1626.415c-5.715-4.097-11.061,4.517-4.863,7.817C1113.815,1638.973,1119.369,1630.044,1112.877,1626.415z"/>
		<path d="M1097.585,1639.693c0.875,1.846,3.12,3.519,4.789,5.008c4.821,3.575,10.276-3.426,5.616-7.236
			c-1.016-0.834-1.933-1.655-2.869-2.69c0.009,0.011,0.018,0.022,0.027,0.033C1101.977,1631.299,1095.596,1634.76,1097.585,1639.693
			z M1105.828,1635.739c-0.146-0.259-0.311-0.481-0.481-0.694C1105.528,1635.262,1105.702,1635.487,1105.828,1635.739z"/>
		<path d="M1093.569,1653.762c4.838,3.609,10.3-3.516,5.62-7.236c-3.028-1.52-3.756-5.896-7.583-5.889
			c-4.598,0.161-5.849,5.424-2.887,8.485C1090.058,1650.924,1091.749,1652.457,1093.569,1653.762z"/>
		<path d="M1088.505,1654.77c-3.855-2.708-3.319-9.952-9.951-7.174c-5.689,3.781,0.768,11.403,4.33,14.41
			C1087.733,1665.555,1093.176,1658.552,1088.505,1654.77z"/>
		<path d="M1076.527,1662.348c-3.309-2.386-3.086-7.235-7.625-8.171c-3.116-0.505-6.011,2.735-5.019,5.757
			c1.629,3.369,3.968,7.149,7.028,9.65C1075.715,1673.177,1081.173,1666.176,1076.527,1662.348z"/>
		<path d="M1058.429,1674.569c4.805,3.594,10.26-3.406,5.616-7.235c-2.538-1.811-2.733-5.45-5.279-7.16
			c-2.2-1.289-4.951-0.484-6.272,1.63c-0.917,1.47-0.755,3.35,0.075,4.807C1053.962,1669.531,1055.808,1672.523,1058.429,1674.569z"
			/>
		<path d="M1053.449,1673.248c-1.329-1.203-2.344-2.73-2.987-4.401c-0.182-1.375-0.898-2.661-2.21-3.425
			c-2.099-1.236-5.075-0.559-6.268,1.629c-2.02,4.555,1.947,9.501,4.968,12.655
			C1051.331,1683.843,1057.6,1677.576,1053.449,1673.248z M1050.476,1669.208c0.05,0.766-0.118,1.555-0.465,2.226
			C1050.348,1670.722,1050.501,1669.957,1050.476,1669.208z"/>
		<path d="M1035.944,1685.012c4.326,4.203,10.665-2.159,6.497-6.455c-3.593-2.688-1.365-8.844-7.139-9.044
			c-4.035-0.001-5.431,4.475-4.029,7.712C1032.142,1680.166,1033.652,1682.942,1035.944,1685.012z"/>
		<path d="M1030.733,1683.664c-1.329-1.423-2.798-2.826-3.45-4.709c-0.276-1.264-0.951-2.48-2.224-3.225
			c-2.199-1.293-4.95-0.484-6.272,1.63c-2.18,4.709,2.464,9.52,5.448,12.762C1028.565,1694.29,1034.857,1688.04,1030.733,1683.664z"
			/>
		<path d="M1015.628,1699.581c3.856,0.663,6.79-4.306,4.234-7.326c-1.988-2.479-4.033-5.111-4.976-8.185
			c-0.696-3.773-6.483-4.935-8.406-1.299C1003.686,1686.068,1011.916,1699.478,1015.628,1699.581z M1014.962,1684.512
			c0,0.069,0,0.137,0,0.206c-0.004-0.171-0.034-0.331-0.058-0.493C1014.923,1684.321,1014.942,1684.417,1014.962,1684.512z"/>
		<path d="M1007.726,1695.963c-1.725-1.753-3.382-3.664-4.395-5.93c-1.527-4.995-8.943-3.903-8.973,1.324
			c0.617,4.332,3.968,7.957,6.87,11.065C1005.573,1706.58,1011.859,1700.323,1007.726,1695.963z"/>
		<path d="M996.292,1702.826c-1.363-1.849-2.51-3.865-3.286-6.03c-0.499-4.547-6.994-5.455-8.753-1.213
			c-1.291,4.465,2.448,9.235,4.771,12.816C992.795,1713.082,999.826,1707.683,996.292,1702.826z"/>
		<path d="M986.083,1710.321c-0.038-2.531-2.014-3.686-3.393-5.773c-0.603-2.926-3.556-4.736-6.404-3.615
			c-5.828,2.864-1.166,9.507,1.967,12.641C980.89,1716.541,986.263,1714.232,986.083,1710.321z"/>
		<path d="M966.293,1716.394c3.746,3.851,10-1.18,7.102-5.66C969.644,1704.956,961.488,1711.392,966.293,1716.394z"/>
		<path d="M915.297,1329.79c-2.969,0.425-7.661-1.315-9.685,2.016c-2.279,3.702,1.191,7.655,5.18,7.117
			c4.248-0.095,11.428,1.307,11.272-5.008C921.797,1330.427,918.291,1329.332,915.297,1329.79z"/>
		<path d="M907.914,1342.952c-1.945,1.386-2.633,4.438-1.074,6.387c0.894,1.141,2.172,1.86,3.621,1.977
			c4.37,0.62,8.851,0.902,13.26,0.96c10.142,0.067,20.281-0.769,30.325-2.128c2.457-0.22,4.433-2.462,4.184-4.947
			c-0.201-2.375-2.472-4.538-4.943-4.184c-8.578,1.226-17.247,1.912-25.91,2.103c-4.978,0.062-9.96-0.221-14.91-0.764
			C911.007,1342.032,909.191,1341.935,907.914,1342.952z"/>
		<path d="M906.78,1363.94c2.001,1.54,4.73,1.186,7.106,1.512c11.214,0.649,22.491-0.477,33.545-2.336
			c3.623-1.041,11.427-1.279,13.511-4.363c2.232-3.218-1.053-7.972-4.861-6.927c-4.277,1.173-8.666,2.075-13.043,2.78
			c-10.644,1.431-21.46,2.605-32.185,1.373C906.212,1354.773,903.101,1360.854,906.78,1363.94z"/>
		<path d="M908.795,1376.846c3.863,0.884,7.952,0.695,11.903,0.95c20.642,0.499,40.785-2.857,60.62-8.751
			c5.765-1.802,3.266-10.324-2.515-8.808c-20.251,6.089-41.446,9.436-62.621,8.208c-3.594-0.016-8.889-1.819-10.131,3.007
			C905.557,1373.672,906.638,1375.986,908.795,1376.846z"/>
		<path d="M909.349,1389.739c1.998,1.296,4.439,0.943,6.702,1.135c16.464,0.466,32.999-1.05,49.087-4.592
			c4.32-1.37,17.162-2.801,19.127-6.397c2.044-3.324-1.531-7.924-5.258-6.631c-21.083,6.454-43.351,9.337-65.384,8.35
			C908.543,1380.334,905.175,1386.49,909.349,1389.739z"/>
		<path d="M918.683,1403.722c14.42,0.446,28.883-0.864,43.033-3.697c13.35-2.632,26.682-5.87,39.272-11.114
			c2.303-0.96,3.335-3.783,2.35-6.036c-2.628-5.349-8.394-1.082-12.333,0.124c-17.595,5.893-35.947,9.644-54.429,11.247
			c-4.501,0.307-9.013,0.396-13.523,0.367c-2.079,0.188-4.337-0.484-6.229,0.631C913.149,1397.37,914.492,1403.324,918.683,1403.722
			z"/>
		<path d="M919.143,1415.576c1.549,1.134,3.512,0.946,5.33,1.096c32.967,0.915,66.398-5.588,97.715-16.165
			c3.722-1.361,3.617-7.127-0.047-8.464c-1.699-0.755-3.414-0.04-5.027,0.572c-5.349,1.796-10.784,3.33-16.231,4.786
			c-19.18,5.419-38.9,8.81-58.808,9.904c-6.46,0.49-13.76,0.423-20.772,0.065C917.38,1407.719,915.848,1413.353,919.143,1415.576z"
			/>
		<path d="M923.387,1427.71c0.702,0.448,1.449,0.609,2.243,0.709c6.181,0.727,12.596,1.268,19.022,1.407
			c34.339,0.745,68.08-7.461,100.659-17.598c5.607-2.214,2.46-10.512-3.206-8.582c-37.254,11.545-76.453,20.642-115.626,15.673
			c0.124,0.014,0.246,0.033,0.359,0.075C921.944,1418.21,919.133,1425.043,923.387,1427.71z"/>
		<path d="M926.48,1419.319c-0.129-0.014-0.261-0.023-0.392-0.042C926.219,1419.294,926.349,1419.303,926.48,1419.319z"/>
		<path d="M922.889,1439.041c0.898,0.76,1.727,1.042,2.895,1.165c6.07,0.998,12.156,1.878,18.277,2.496
			c34.907,2.878,70.646-1.57,103.844-12.705c5.186-1.763,10.416-3.532,15.463-5.682c5.613-3.011,1.039-11.083-4.495-8.032
			c-35.602,14.155-74.554,20.309-112.777,17.407c-6.849-0.53-13.607-1.822-20.406-2.647
			C921.705,1431.049,919.861,1436.555,922.889,1439.041z"/>
		<path d="M929.519,1452.941c6.808,1.747,13.697,3.148,20.664,4.076c41.301,5.24,83.435-2.474,122.093-17.19
			c3.907-1.411,10.076-2.416,8.138-8.038c-2.251-4.908-7.399-1.812-11.061-0.63c-40.383,15.346-84.883,23.167-127.767,15.168
			c-4.489-0.79-8.854-2.23-13.329-3.005c-2.952-0.034-5.241,2.966-4.417,5.799C924.405,1451.78,927.22,1452.483,929.519,1452.941z"
			/>
		<path d="M929.271,1464.063c18.802,6.619,39.307,7.923,59.137,8.299c22.637-0.098,45.348-2.861,67.172-8.938
			c2.203-0.577,4.402-1.15,6.594-1.755c3.795-1.051,4.163-6.761,0.666-8.414c-1.128-0.584-2.346-0.612-3.553-0.283
			c-2.641,0.729-5.298,1.415-7.95,2.109c-37.808,9.851-79.767,11.549-117.722,0.98
			C928.585,1454.091,924.91,1460.922,929.271,1464.063z"/>
		<path d="M1029.292,1485.33c2.407-0.659,3.811-3.309,3.12-5.677c-0.706-2.422-3.27-3.779-5.677-3.12
			c-29.522,7.073-61.377,3.912-89.723-6.683c-2.58-1.336-5.93,0.474-6.409,3.26c-0.953,5.998,7.523,6.482,11.587,8.22
			c13.465,4.125,27.42,7.057,41.497,7.887c11.174,0.65,22.367,0.098,33.437-1.519
			C1021.24,1487.266,1025.292,1486.377,1029.292,1485.33z"/>
		<path d="M972.869,1504.975c7.639,0.284,15.26-0.543,22.831-1.502c3.898-0.541,4.994-6.195,1.726-8.263
			c-1.271-0.916-2.799-0.871-4.277-0.626c-5.711,0.71-11.456,1.305-17.219,1.308c-8.259,0.125-16.256-1.952-24.17-3.863
			c-3.406,0.058-5.525,4.331-3.557,7.09C951.002,1502.974,967.8,1504.736,972.869,1504.975z"/>
		<path d="M1001.175,1513.667c-0.455-2.35-2.951-4.227-5.373-3.618c-2.769,0.695-5.57,1.153-8.399,1.511
			c-6.735,0.599-14.656,1.002-21.557,0.086c-4.293-0.715-8.549-1.805-12.696-3.125c-4.129-2.207-8.531,2.63-6,6.557
			c2.027,3.253,16.355,5.498,20.524,5.975c9.97,0.604,20.131,0.262,29.884-2.013
			C999.974,1518.565,1001.697,1516.104,1001.175,1513.667z"/>
		<path d="M991.308,1526.458c-8.574,0.899-17.301,0.836-25.859-0.224c-4.239-0.505-8.433-1.289-12.545-2.438
			c-2.663-1.068-5.87,0.41-6.418,3.327c-0.674,4.11,2.897,5.482,6.243,6.075c8.342,2.053,16.954,2.975,25.539,2.995
			c5.581,0.003,11.249-0.007,16.745-1.075c2.447-0.476,4.051-3.005,3.546-5.42C997.868,1526.266,994.229,1525.569,991.308,1526.458z
			"/>
		<path d="M991.544,1541.684c-5.419,0.885-10.966,0.59-16.438,0.584c-6.785-0.241-13.497-1.551-20-3.458
			c-1.889-0.406-3.604-1.606-5.556-1.614c-2.486,0.074-4.478,2.329-4.363,4.789c0.256,4.513,5.721,4.92,9.087,6.103
			c8.266,2.314,16.824,3.548,25.411,3.381c4.502-0.034,9.052,0.04,13.497-0.77C999.076,1549.466,997.466,1540.739,991.544,1541.684z
			"/>
		<path d="M984.931,1556.29c-9.917,0.949-20.206,0.251-29.847-2.644c-2.992-0.556-6.061-3.319-9.038-1.368
			c-2.952,1.807-2.741,6.499,0.434,7.98c7.561,3.196,15.795,4.87,23.977,5.349c5.364,0.234,10.775,0.461,16.108-0.301
			C992.453,1564.175,990.873,1555.325,984.931,1556.29z"/>
		<path d="M981.677,1571.938c-7.095,0.237-14.167-0.588-21.157-1.915c-4.508-1.044-8.998-2.328-13.174-4.348
			c-3.244-1.954-7.707,1.514-6.556,5.185c1.407,4.29,9.112,5.479,12.988,6.913c7.461,2.214,15.265,2.925,23.01,3.313
			c2.002,0.09,4.016,0.129,6.014-0.054C988.762,1580.125,987.691,1571.428,981.677,1571.938z"/>
		<path d="M981.37,1587.904c-2.284-1.695-4.594-0.632-7.481-1.062c-4.964-0.45-9.885-1.252-14.775-2.211
			c-4.762-1.135-9.491-2.582-13.93-4.67c-3.909-2.214-8.403,2.356-6.169,6.259c2.132,2.961,6.283,3.492,9.463,4.889
			c7.765,2.707,15.953,3.921,24.103,4.796c2.167,0.197,4.322,0.254,6.49,0.122C982.992,1595.76,984.486,1590.195,981.37,1587.904z"
			/>
		<path d="M945.08,1606.293c7.365,2.762,15.256,3.713,23.071,4.09c1.88,0.097,3.765,0.175,5.649,0.147
			c6.024-0.106,6.082-8.988,0.089-9.159c-6.453,0.028-12.927-0.509-19.258-1.784c-4.88-1.052-9.478-2.977-13.874-5.28
			c-3.717-1.248-7.398,3.286-5.265,6.641C937.727,1603.918,941.79,1604.875,945.08,1606.293z"/>
		<path d="M946.173,1621.186c4.46,1.321,9,2.379,13.665,2.521c4.834,0.305,9.761,0.426,14.596,0.018
			c5.958-0.895,4.891-9.592-1.125-9.091c-12.585,1.001-25.397-1.023-36.603-6.992c-0.039-0.022-0.077-0.04-0.116-0.06
			c-0.057-0.03-0.115-0.057-0.171-0.088c0.043,0.022,0.084,0.047,0.127,0.069c-4.26-2.157-8.976,3.476-5.248,7.332
			C935.7,1617.927,941.084,1619.615,946.173,1621.186z M937.512,1608.188c-0.241-0.198-0.486-0.354-0.733-0.496
			C937.037,1607.835,937.288,1607.989,937.512,1608.188z"/>
		<path d="M969.414,1627.35c-9.539,0.104-19.182-0.387-28.428-3.646c-3.202-1.197-6.279-2.615-9.349-4.107
			c-4.521-2.471-9.061,3.565-5.45,7.231c11.039,6.937,24.431,9.34,37.338,9.645c2.971-0.129,6.59,0.899,9.027-1.25
			C975.485,1632.62,973.376,1627.172,969.414,1627.35z"/>
		<path d="M965.306,1643.109c-8.923,0.157-17.9-1.254-26.212-4.55c-4.478-1.718-8.987-3.531-12.995-6.195
			c-2.833-2.896-8.284-0.14-7.609,3.914c0.706,5.039,13.049,8.98,17.47,10.866c5.858,2.354,12.451,3.974,18.836,4.583
			c3.965,0.096,10.357,1.876,13.615-0.72C971.369,1648.42,969.283,1642.939,965.306,1643.109z M926.209,1632.469
			c0.353,0.294,0.606,0.68,0.847,1.067c-0.002-0.002-0.003-0.004-0.005-0.005c0.107,0.24,0.251,0.47,0.301,0.733
			C927.104,1633.577,926.71,1632.965,926.209,1632.469z"/>
		<path d="M965.238,1664.713c5.971-0.967,4.901-9.664-1.089-9.098c-4.646,0.486-9.449,0.3-14.045-0.546
			c-4.505-2.368-8.969,3.484-5.472,7.216c3.304,2.843,8.36,2.258,12.451,2.644C959.775,1665.013,962.569,1665.153,965.238,1664.713z
			"/>
		<path d="M941.312,1670.429c-0.881,6.298,9.51,6.615,13.848,7.555c3.729,0.539,7.528,0.585,11.219-0.259
			c5.743-1.481,3.666-10.176-2.165-8.895c-3.487,0.778-7.701,0.206-11.263-0.447c-1.754-0.446-3.586-0.771-5.245-1.504
			C945.055,1665.681,941.618,1667.425,941.312,1670.429z M950.416,1670.984c0.021,0.613-0.094,1.215-0.322,1.788
			C950.296,1672.176,950.415,1671.581,950.416,1670.984z"/>
		<path d="M960.75,1681.738c-4.064,0.643-8.448,0.927-12.319-0.688c-1.65-0.608-3.588-1.285-5.414-2.173
			c-1.835-1.051-3.512-2.87-5.854-2.125c-2.328,0.591-4.051,3.177-3.317,5.567c0.922,2.837,3.854,4.176,6.365,5.351
			c4.994,2.256,10.226,3.999,15.771,3.693c1.974,0.018,3.902-0.244,5.853-0.526C967.791,1689.951,966.718,1681.145,960.75,1681.738z
			"/>
		<path d="M947.004,1694.394c-5.555-0.514-10.437-3.596-14.546-7.201c-0.974-0.945-1.668-2.096-3.17-2.431
			c-4.262-1.206-7.569,4.03-4.739,7.411c5.591,5.86,13.067,10.387,21.216,11.297
			C951.725,1704.147,952.947,1695.352,947.004,1694.394z"/>
		<path d="M936.997,1704.907c-4.098-2.354-7.945-5.536-11.663-8.586c-2.555-1.881-3.644-5.614-6.995-6.239
			c-4.189-0.582-6.772,4.433-4.083,7.63c4.929,6.152,11.431,11.019,18.121,15.105C937.639,1715.7,942.132,1708.038,936.997,1704.907
			z"/>
		<path d="M924.624,1709.152c-3.7-1.917-6.767-4.728-9.448-7.885c-0.747-1.192-1.964-2.079-3.378-2.256
			c-2.353-0.319-4.979,1.426-5.158,3.919c-0.324,2.542,1.578,4.34,3.184,6.028c2.912,3.287,6.312,6.019,10.18,8.102
			C925.253,1719.965,929.749,1712.31,924.624,1709.152z"/>
		<path d="M907.023,1710.97c0.151,0.137,0.302,0.274,0.453,0.408c0.128,0.152,0.258,0.304,0.389,0.456
			c-0.001,0.008,0.005,0.024,0.012,0.04c-4.302-5.484-11.828,1.946-6.441,6.36c1.27,1.036,2.661,1.904,4.022,2.815
			c3.28,2.158,7.864-1.353,6.748-5.083C911.6,1713.381,908.784,1712.604,907.023,1710.97z"/>
		<path d="M937.451,1652.474c-6.123-1.666-11.465-5.024-16.869-8.302c-3.222-2.918-8.741,0.661-7.319,4.799
			c0.734,2.517,3.453,3.435,5.434,4.796c5.296,3.04,10.677,6.097,16.638,7.622C941.221,1662.616,943.279,1654.093,937.451,1652.474z
			"/>
		<path d="M926.722,1660.496c-4.422-1.663-8.881-3.492-12.773-6.208c0.15,0.126,0.296,0.252,0.442,0.374
			c0.06,0.066,0.119,0.131,0.178,0.197c-3.431-3.759-9.595,0.206-7.572,4.91c2.359,4.064,12.01,7.443,16.444,9.281
			C929.085,1671.049,932.302,1662.771,926.722,1660.496z"/>
		<path d="M916.414,1668.441c-3.654-1.047-6.956-2.978-9.807-5.459c-2.12-1.307-5.013-0.504-6.272,1.612
			c-1.771,2.702,0.231,5.734,2.644,7.178c3.203,2.604,7.081,4.242,10.986,5.498C919.764,1678.758,922.173,1670.213,916.414,1668.441
			z"/>
		<path d="M904.015,1685.753c5.535,2.41,9.226-5.793,3.811-8.332c-3.425-1.266-5.955-4.042-8.113-6.878
			c-2.546-2.939-7.924-0.999-7.916,2.927c-0.095,2.149,1.433,3.755,2.78,5.244C897.175,1681.708,900.296,1684.29,904.015,1685.753z"
			/>
		<path d="M896.515,1683.841c-2.546-1.72-4.198-4.058-5.678-6.795c-2.853-5.413-10.806-1.223-8.106,4.266
			c2.183,4.026,5.066,7.771,8.937,10.302C896.828,1694.681,901.541,1687.155,896.515,1683.841z"/>
		<path d="M879.876,1697.496c4.648,3.816,10.458-2.893,6.003-6.921c-3.036-2.46-4.721-6.064-6.658-9.334
			c-3.768-4.081-10.097,0.643-7.361,5.455C873.83,1690.73,876.471,1694.546,879.876,1697.496z"/>
		<path d="M869.949,1703.55c3.905,0.512,6.628-4.648,3.894-7.541c-2.212-2.338-3.76-5.224-4.821-8.245
			c-1.415-6.611-10.991-3.751-8.779,2.621C861.936,1694.714,864.967,1702.513,869.949,1703.55z"/>
		<path d="M862.311,1700.074c-2.029-2.512-3.836-5.247-4.981-8.28c-0.459-1.832-2.156-3.302-4.06-3.475
			c-2.565-0.229-4.646,1.677-4.975,4.152c0.446,5.096,4.085,9.561,7.056,13.558C859.363,1710.509,866.097,1704.739,862.311,1700.074
			z"/>
		<path d="M849.706,1706.357c-0.766-1.009-1.381-2.121-1.869-3.288c-1.518-2.842-0.87-6.893-3.543-8.941
			c-2.078-1.439-4.911-0.87-6.372,1.153c-2.695,3.055,2.8,17.638,6.945,18.05C848.662,1714.353,852.069,1709.574,849.706,1706.357z"
			/>
		<path d="M832.625,1702.159c-2.885-6.622-11.69-1.766-8.12,4.466c1.516,3.791,3.638,7.393,6.365,10.441
			c4.071,4.45,10.78-1.343,6.96-5.957C835.548,1708.519,833.681,1705.451,832.625,1702.159z"/>
		<path d="M827.065,1718.986c-0.258-2.028-2.175-2.911-3.268-4.425c-1.435-2-2.558-3.967-3.634-6.245
			c-1.463-5.238-9.141-4.094-9.037,1.332c1.358,5.199,4.684,10.419,8.822,13.916C823.077,1725.969,827.91,1722.81,827.065,1718.986z
			"/>
		<path d="M812.727,1720.402c-1.319-1.573-2.492-3.298-3.28-5.202c-0.467-1.204-0.794-2.507-1.799-3.377
			c-2.642-2.556-7.471-0.618-7.651,3.037c-0.119,1.296,0.425,2.391,0.885,3.546c0.977,2.619,2.651,5.413,4.886,7.948
			C809.803,1730.822,816.533,1725.04,812.727,1720.402z"/>
		<path d="M800.3,1724.488c-2.276-2.516-2.366-6.328-4.915-8.548c-2.598-1.846-6.464-0.34-7.107,2.808
			c-0.712,3.411,5.376,14.632,9.248,14.589C802.69,1733.567,804.079,1727.502,800.3,1724.488z"/>
		<path d="M785.425,1722.933c-1.758-5.011-9.393-3.316-8.929,1.946c0.667,4.865,2.729,9.652,6.469,12.937
			c4.619,3.834,10.427-2.87,5.989-6.931C786.604,1728.92,785.945,1725.787,785.425,1722.933z"/>
		<path d="M773.597,1729.386c-0.373-1.158-0.702-2.371-1.711-3.166c-3.692-3.16-9.022,0.88-7.257,5.316
			c1.346,3.874,3.622,7.408,6.476,10.351c4.146,4.37,10.738-1.555,6.831-6.104C776.123,1733.922,774.606,1731.788,773.597,1729.386z
			"/>
		<path d="M761.731,1734.53c-0.734-1.717-1.666-3.445-3.807-3.824c-4.463-0.836-6.939,4.252-4.491,7.744
			c1.981,3.64,4.607,6.943,7.848,9.535c4.669,3.79,10.464-2.927,5.989-6.927C764.968,1739.307,763.194,1737.004,761.731,1734.53z"/>
		<path d="M756.171,1746.802c-3.178-1.72-2.641-6.236-5.809-7.895c-2.185-1.074-5.097-0.179-6.129,2.092
			c-1.854,4.129,3.417,11.313,6.88,13.44C756.179,1757.65,761.102,1750.259,756.171,1746.802z M752.783,1742.027
			c0.125,0.427,0.131,0.874,0.125,1.316c-0.043,0.264-0.044,0.535-0.144,0.781C752.927,1743.425,752.93,1742.707,752.783,1742.027z"
			/>
		<path d="M743.74,1750.285c-1.605-1.643-2.035-4.136-3.893-5.507c-4.173-2.712-8.949,2.278-6.426,6.434
			c1.714,3.227,3.967,6.248,7.049,8.271c3.164,2.364,7.954-0.944,7.017-4.732C747.16,1752.581,745.039,1751.761,743.74,1750.285z"/>
		<path d="M736.43,1759.516c-2.347-1.615-3.981-3.975-5.165-6.532c-1.826-5.382-9.875-3.305-8.847,2.309
			c1.588,4.732,4.835,9.008,8.955,11.856C736.433,1770.365,741.357,1762.974,736.43,1759.516z"/>
		<path d="M720.919,1760.073c-0.885-1.867-1.799-4.035-4.121-4.386c-4.932-0.755-6.892,4.569-4.212,8.231
			c1.769,3.241,4.509,5.898,7.289,8.285c4.638,3.866,10.479-2.974,5.993-6.928C724.019,1763.768,722.283,1762.033,720.919,1760.073z
			"/>
		<path d="M708.685,1765.186c-2.149-1.06-5.147-0.204-6.129,2.088c-1.619,3.375,1.421,6.321,3.367,8.783
			c1.612,1.903,4.647,1.994,6.469,0.362c2.374-2.095,1.66-5.457-0.444-7.447C710.849,1767.7,710.332,1765.902,708.685,1765.186z"/>
		<path d="M694.948,1780.735c4.088,4.355,10.677-1.467,6.87-6.054C697.814,1769.457,690.404,1775.928,694.948,1780.735z"/>
		<path d="M1136.578,1659.795c4.699,1.066,9.631,2.645,13.39,5.751c2.304,2.771,6.511-0.636,4.287-3.435
			c-3.868-3.978-9.544-5.791-14.764-7.289c-3.183-0.872-12.633-2.189-9.578,3.797
			C1131.615,1660.504,1134.385,1659.134,1136.578,1659.795z"/>
		<path d="M1143.693,1673.124c-4.929-2.856-10.49-4.474-16.122-5.19c-2.431-0.103-5.128-0.881-7.457,0.003
			c-1.315,0.717-1.77,2.454-1.043,3.744c0.559,0.997,1.648,1.468,2.709,1.375c2.967-0.003,5.917,0.37,8.824,0.952
			c8.523,1.876,16.44,6.719,22.28,13.168c1.557,1.768,4.751,0.454,4.706-1.866
			C1156.876,1681.119,1147.364,1675.329,1143.693,1673.124z"/>
		<path d="M1113.621,1685.778c2.806,0.012,5.578,0.536,8.323,1.068c11.219,2.411,21.625,8.282,29.906,16.173
			c1.008,1.102,2.849,1.051,3.886,0.029c2.804-3.39-2.615-6.073-4.749-8.059c-4.604-3.602-9.597-6.758-14.89-9.241
			c-7.437-3.098-15.643-5.829-23.771-5.293C1109.155,1681.555,1110.338,1686.269,1113.621,1685.778z"/>
		<path d="M1096.095,1699.108c2.6-0.163,5.22,0.025,7.813,0.215c19.091,1.621,37.501,11.66,48.695,27.28
			c0.89,1.209,2.672,1.427,3.85,0.537c3.281-2.924-2.028-6.604-3.639-9.095c-2.885-3.585-6.649-6.708-10.402-9.438
			c-13.199-10.28-30.235-15.781-46.941-14.896C1092.452,1694.366,1092.956,1699.1,1096.095,1699.108z"/>
		<path d="M1144.663,1731.251c-4.452-3.534-8.926-7.079-13.819-9.993c-13.741-8.319-29.728-12.652-45.745-13.11
			c-1.279,0-2.762-0.129-3.743,0.852c-1.057,1.057-1.085,2.816-0.029,3.887c0.689,0.709,1.649,0.905,2.575,0.766
			c1.887-0.049,3.776,0.079,5.654,0.223c15.051,1.253,29.467,5.865,42.084,14.388c6.419,4.86,13.295,9.471,18.718,15.449
			c1.324,1.953,4.648,1.069,4.91-1.243C1155.494,1738.802,1147.344,1733.806,1144.663,1731.251z"/>
		<path d="M1140.26,1749.817c-3.4-3.177-6.865-6.296-10.463-9.245c-6.77-5.491-14.364-9.977-22.394-13.357
			c-8.178-3.331-16.816-5.546-25.586-6.58c-2.588-0.167-5.316-0.813-7.873-0.261c-3.022,1.229-1.679,5.464,1.156,5.281
			c-0.055,0.003-0.106,0.012-0.164,0.013c25.98,0.846,47.552,13.103,65.116,31.671c0.994,1.119,2.86,1.04,3.887,0.028
			C1146.552,1754.381,1142.088,1751.817,1140.26,1749.817z M1075.317,1725.638c0.176-0.025,0.356-0.06,0.542-0.121
			C1075.678,1725.581,1075.5,1725.615,1075.317,1725.638z"/>
		<path d="M1123.263,1757.151c-6.157-5.468-12.605-10.656-19.59-15.03c-11.833-7.017-25.587-10.587-39.211-11.781
			c-3.294,0.355-3.166,5.302,0.17,5.479c23.984,2.387,40.303,10.955,57.37,27.819c1.557,1.774,4.746,0.446,4.707-1.87
			C1126.634,1759.709,1124.557,1758.516,1123.263,1757.151z"/>
		<path d="M1085.949,1749.559c-9.835-5.375-21.248-9.16-32.502-8.919c-1.39,0.556-2.095,2.174-1.54,3.568
			c0.678,1.843,2.653,1.721,4.255,1.858c16.864,1.113,32.02,9.786,44.319,20.995c2.574,2.522,6.403-1.295,3.919-3.859
			C1098.718,1758.091,1092.498,1753.499,1085.949,1749.559z"/>
		<path d="M1081.516,1764.177c-3.99-3.002-8.37-5.46-12.737-7.863c-7.091-3.966-14.749-6.573-22.978-6.913
			c-3.915,0.053-3.706,5.757,0.159,5.495c11.83,0.615,22.618,6.988,32.172,13.611c1.177,0.911,2.927,0.716,3.857-0.473
			C1082.906,1766.86,1082.702,1765.094,1081.516,1764.177z"/>
		<path d="M1049.347,1763.18c-4.27-1.945-8.635-4.003-13.35-4.503c-4.458-0.328-3.879,6.419,0.38,5.349
			c-0.276,0.078-0.401,0.099-0.523,0.117c-0.104,0.003-0.226,0.007-0.347,0.007c5.387,0.797,10.389,3.388,15.169,5.889
			c1.264,0.772,2.979,0.427,3.789-0.863C1056.339,1765.748,1051.661,1764.376,1049.347,1763.18z"/>
		<path d="M1087.218,1668.632c-0.619-2.083-2.587-4.666-5.047-4.139c-1.111,0.271-2.039,1.306-2.067,2.6
			c-0.024,1.069,0.614,2.065,1.537,2.531c0.21,0.227,0.299,0.531,0.397,0.818c-0.015-0.048-0.019-0.06-0.023-0.072
			c-0.015-0.047-0.031-0.095-0.047-0.143C1083.096,1673.762,1088.313,1672.121,1087.218,1668.632z"/>
		<path d="M1069.845,1685.18c0.759,2.228,4.213,2.247,5.065,0.082c0.761-2.679-1.566-5.797-3.216-7.772
			c-2.122-2.172-7.39-5.398-8.174-0.433c-0.095,2.094,2.04,2.684,3.457,3.619C1068.481,1681.73,1069.276,1683.487,1069.845,1685.18z
			"/>
		<path d="M1060.19,1694.651c0.519,3.582,5.804,2.948,5.459-0.627c-0.4-2.901-1.542-5.756-3.6-7.877
			c-1.687-1.911-6.48-6.2-8.908-3.764c-1.422,1.254-0.887,3.886,0.904,4.531C1057.198,1688.318,1059.769,1691.135,1060.19,1694.651z
			"/>
		<path d="M1040.158,1692.078c0.009,0.004,0.017,0.009,0.026,0.014c-0.104-0.067-0.2-0.143-0.306-0.208
			C1039.971,1691.95,1040.065,1692.015,1040.158,1692.078z"/>
		<path d="M1049.397,1703.148c0.56,1.066,0.615,2.319,1.797,3.007c1.959,1.302,4.796-0.761,4.08-3.031
			c-2.301-6.271-6.411-12.017-12.099-15.627c-3.107-2.173-6.248,2.603-2.963,4.609c-0.009-0.005-0.018-0.009-0.027-0.014
			C1044.335,1694.743,1047.292,1698.744,1049.397,1703.148z"/>
		<path d="M1029.317,1700.893c5.205,4.128,7.63,8.841,8.907,15.297c0.344,1.455,1.995,2.296,3.389,1.905
			c1.483-0.419,2.246-1.93,1.906-3.389c-0.835-3.514-1.882-7.019-3.636-10.194c-1.316-2.63-9.827-11.836-12.755-10.782
			c-1.418,0.473-2.325,1.895-1.906,3.389C1025.856,1698.953,1028.066,1699.527,1029.317,1700.893z"/>
		<path d="M1030.109,1731.002c3-0.907,1.814-4.283,0.942-6.38c-1.396-3.661-3.217-7.109-5.194-10.506
			c-1.631-3.271-11.069-14.104-14.851-12.544c-1.39,0.556-2.031,2.25-1.454,3.604c0.364,0.95,1.224,1.303,1.998,1.791
			c2.44,1.683,4.661,3.649,6.647,5.846c3.827,4.776,6.72,10.442,8.524,16.284C1027.07,1730.553,1028.711,1731.396,1030.109,1731.002
			z"/>
		<path d="M1020.908,1741.113c1.465-0.409,2.271-1.935,1.905-3.385c-1.102-4.151-3.086-8.004-5.083-11.784
			c-4.033-7.301-9.719-14.24-16.924-18.526c-3.196-0.847-4.839,3.742-1.892,5.14c3.122,2.226,5.845,4.957,8.411,7.797
			c4.565,5.517,8.047,12.03,10.195,18.853C1017.886,1740.662,1019.506,1741.51,1020.908,1741.113z"/>
		<path d="M988.425,1717.084c3.243,2.335,6.046,5.209,8.726,8.159c3.995,4.541,7,9.835,9.355,15.389
			c1.35,3.134,2.728,6.361,3.002,9.8c0.035,1.498,1.263,2.734,2.776,2.722c6.383-0.5-0.412-13.563-1.68-16.849
			c-4.016-9.097-10.419-17.081-18.261-23.175c-1.179-0.858-2.629-1.991-4.158-1.369c-1.312,0.464-2.057,1.981-1.68,3.317
			C986.763,1716.119,987.589,1716.62,988.425,1717.084z"/>
		<path d="M1006.145,1763.23c1.225-1.895,0.081-4.332-0.093-6.401c-0.853-5.23-3.03-10.17-5.23-14.958
			c-4.166-8.403-10.142-15.993-17.562-21.825c-1.68-1.141-3.192-2.975-5.297-3.203c-1.497,0-2.733,1.286-2.723,2.773
			c0.002,1.231,0.79,2.03,1.763,2.607c1.645,1.121,3.468,2.602,5.238,4.14c10.147,9.093,17.494,21.955,19.005,35.58
			C1001.457,1764.297,1004.797,1765.125,1006.145,1763.23z"/>
		<path d="M930.004,1668.059c-0.419,1.429,0.423,2.998,1.863,3.41c0.508,0.181,1.12,0.085,1.594,0.333
			c2.515,2.559,6.423-1.188,3.969-3.804C935.593,1666.169,931.137,1664.785,930.004,1668.059z"/>
		<path d="M921.001,1679.183c0.839,0.258,1.705,0.603,2.221,1.354c2.123,2.892,6.508-0.296,4.445-3.227
			c-1.318-1.768-3.547-3.388-5.82-3.385C919.061,1674.228,918.442,1678.064,921.001,1679.183z M924.594,1677.827
			c-0.235,0.491-0.603,0.934-1.085,1.175C923.956,1678.725,924.335,1678.322,924.594,1677.827z"/>
		<path d="M916.621,1684.514c-0.745-0.838-1.669-1.468-2.737-1.823c-2.396-0.941-4.718,1.943-3.268,4.059
			c0,0.007,0.027,0.046,0.056,0.084c0.13,0.189,0.31,0.342,0.487,0.496c0.247,0.207,0.516,0.381,0.81,0.494
			c-0.003,0.005-0.005,0.01-0.008,0.015c0.239,0.059,0.445,0.18,0.605,0.369l-0.061-0.065
			C914.916,1690.669,918.835,1687.196,916.621,1684.514z"/>
		<path d="M911.059,1687.284c0.093,0.075,0.186,0.15,0.276,0.225c-0.07-0.05-0.112-0.123-0.176-0.179
			c-0.06-0.05-0.126-0.09-0.182-0.146C911.004,1687.218,911.031,1687.25,911.059,1687.284z"/>
		<path d="M901.119,1696.462c-0.007-0.008-0.014-0.016-0.021-0.024c-0.046-0.053-0.092-0.107-0.139-0.16
			c0.03,0.035,0.061,0.07,0.091,0.105c0.335,0.385,0.704,0.844,1.051,1.32c2.188,2.848,6.503-0.426,4.384-3.313
			c-1.619-1.938-3.82-5.66-6.723-3.679c-1.218,0.874-1.418,2.679-0.534,3.85C899.853,1695.235,900.59,1695.699,901.119,1696.462z"/>
		<path d="M886.517,1699.796c-1.413,0.006-2.671,1.25-2.667,2.735c-0.007,2.74,3.153,2.777,4.974,3.826
			c1.253,0.753,2.397,1.716,3.197,2.951c0.597,0.885,0.788,1.795,1.976,2.278c2.121,0.979,4.616-1.471,3.575-3.604
			C895.499,1703.707,891.196,1700.531,886.517,1699.796z"/>
		<path d="M880.403,1708.099c-1.991-1.85-5.747-5.292-7.69-1.5c-0.616,1.415,0.189,3.127,1.638,3.634
			c1.836,1.315,3.605,2.873,4.34,5.078c1.424,3.301,6.407,1.195,5.072-2.125C883.011,1711.291,881.922,1709.482,880.403,1708.099z"
			/>
		<path d="M866.383,1711.065c-2.595-3.639-7.759-0.738-4.925,2.97c1.646,1.409,3.221,3.028,4.116,5.072
			c1.436,3.3,6.413,1.19,5.068-2.125C869.707,1714.705,868.091,1712.804,866.383,1711.065z"/>
		<path d="M856.035,1715.262c-1.085-1.243-2.76-2.556-4.458-1.732c-1.332,0.571-1.922,2.245-1.373,3.555
			c1.721,2.169,3.851,3.769,4.477,6.738c0.976,3.468,6.195,2.049,5.312-1.415C859.31,1719.728,857.814,1717.35,856.035,1715.262z"/>
		<path d="M842.406,1717.778c-1.495-0.003-2.756,1.242-2.762,2.74c-0.002,0.967,0.521,1.837,1.294,2.331
			c1.135,1.143,2.049,2.523,2.646,4.02c1.41,3.309,6.397,1.2,5.068-2.12C847.361,1722.13,845.58,1718.268,842.406,1717.778z"/>
		<path d="M834.803,1723.997c0.008,0.009,0.016,0.019,0.024,0.028c0.024,0.028,0.048,0.054,0.073,0.082
			c-2.242-3.012-6.744,0.333-4.405,3.3c0.885,1.025,2.246,2.265,2.792,3.748c1.434,3.301,6.419,1.191,5.069-2.124
			C837.58,1727.094,836.254,1725.469,834.803,1723.997z"/>
		<path d="M825.392,1727.588c-1.688-1.659-4.707-0.448-4.675,1.96c0.228,1.977,1.938,3.435,2.554,5.333
			c1.451,3.303,6.422,1.185,5.072-2.121C827.509,1730.978,826.589,1729.134,825.392,1727.588z"/>
		<path d="M814.405,1730.577c-2.344,0.619-2.459,3.297-1.135,4.918c0.995,3.469,6.206,2.042,5.312-1.415
			C818.02,1732.178,816.784,1730.05,814.405,1730.577z"/>
		<path d="M1101.212,785.023c6.946,1.223,6.381-9.513,7.687-14.026c0.81-5.285,1.846-10.781,1.093-16.108
			c-1.696-5.241-9.51-3.526-8.91,1.906c0.064,7.336-1.455,15.499-3.344,22.766C1097.047,781.96,1098.887,784.508,1101.212,785.023z"
			/>
		<path d="M1110.798,811.179c6.27,1.843,6.931-6.609,8.568-10.717c3.373-9.823,5.497-20.022,6.211-30.389
			c2.05-9.788-8.741-10.176-8.97-3.119c-0.395,8.007-1.602,16.011-3.807,23.723c-1.449,4.911-2.911,9.856-4.753,14.638
			C1107.151,807.643,1108.487,810.344,1110.798,811.179z"/>
		<path d="M1121.915,828.419c-1.267,2.232-0.498,5.283,1.857,6.435c6.178,2.683,7.388-5.431,9.098-9.499
			c5.865-15.954,8.186-33.181,7.558-50.136c0.184-7.963-11.478-6.084-8.78,1.286c-0.234-0.529-0.381-1.083-0.415-1.666
			c0.729,13.622-1.045,27.375-4.648,40.515C1125.21,819.767,1123.636,824.131,1121.915,828.419z"/>
		<path d="M1137.79,853.563c2.174,1.183,4.992,0.341,6.204-1.859c2.017-3.65,3.979-7.365,5.72-11.154
			c6.988-15.601,9.126-33.212,8.339-50.187c-0.18-2.113-0.154-4.742-1.562-6.473c-1.576-1.934-4.542-2.192-6.451-0.612
			c-2.237,1.738-1.548,4.404-1.191,6.756c0.672,8.971-0.086,17.987-1.555,26.847c-1.249,6.747-2.939,13.453-5.821,19.703
			c-1.73,3.647-3.593,7.243-5.545,10.774C1134.72,849.544,1135.608,852.388,1137.79,853.563z"/>
		<path d="M1162.167,834.296c-2.124,7.889-5.012,15.578-8.07,23.149c-1.394,3.165-3.771,7.222,0.617,9.621
			c6.332,2.513,7.554-6.232,9.495-10.33c6.709-16.443,10.809-33.171,10.989-51.147c-0.376-3.906,1.158-13.022-2.997-14.765
			c-3.247-1.626-6.997,1.346-6.531,4.694C1166.79,808.509,1165.31,821.665,1162.167,834.296z"/>
		<path d="M1173.751,872.31c-1.806,4.424-3.766,8.767-5.906,13.04c-1.114,2.231-0.086,5.044,2.138,6.114
			c2.223,1.088,4.994,0.113,6.114-2.139c2.367-4.728,4.506-9.546,6.476-14.453c5.238-13.165,8.237-27.179,9.531-41.267
			c0.647-7.333,1.985-27.667-1.536-33.498c-3.346-3.658-8.962-0.06-7.82,4.185c-0.012-0.044-0.027-0.087-0.039-0.131
			c2.512,17.926,0.156,37.208-4.452,54.829C1177.115,863.147,1175.559,867.758,1173.751,872.31z M1182.848,804.625
			c0.087,0.247,0.184,0.495,0.32,0.743C1183.023,805.141,1182.929,804.885,1182.848,804.625z"/>
		<path d="M1194.567,875.388c-1.549,3.746-3.312,7.411-5.049,11.076c-1.377,3.899-6.52,9.066-1.698,12.494
			c5.598,3.147,7.635-3.872,9.567-7.715c8.114-15.848,13.252-33.112,15.069-50.831c0.774-9.336,1.52-19.082-0.626-28.265
			c-2.537-4.952-9.785-1.752-8.532,3.126C1205.62,835.579,1201.915,856.414,1194.567,875.388z M1203.35,815.418
			c0.074,0.256,0.152,0.512,0.274,0.776C1203.509,815.945,1203.418,815.684,1203.35,815.418z"/>
		<path d="M1203.33,900.941c-1.915,3.835-7.279,8.307-2.278,12.053c5.267,3.078,7.965-4.019,10.247-7.547
			c7.403-12.185,13.682-25.2,16.753-39.193c2.139-9.627,3.595-19.43,3.553-29.311c-0.152-4.537,0.146-9.3-1.289-13.647
			c-2.677-5.083-10.336-1.582-8.335,3.746c-0.016-0.039-0.033-0.077-0.05-0.116c-0.051-0.188-0.104-0.373-0.155-0.561
			c2.148,17.722-1.06,35.982-7.229,52.635C1211.474,886.637,1207.569,893.893,1203.33,900.941z"/>
		<path d="M1227.348,902.1c-3.658,6.363-7.696,12.563-12.051,18.471c-2.217,2.343-3.837,5.774-0.922,8.313
			c5.215,3.919,8.531-3.473,11.175-6.938c6.21-9.04,12.089-18.374,16.108-28.62c5.35-13.579,8.252-28.057,9.36-42.586
			c0.247-4.184,0.465-8.482-0.129-12.644c-0.355-2.471-3.062-4.055-5.402-3.578c-4.742,1.051-3.441,5.834-3.401,9.56
			c-0.116,11.434-2.121,22.762-4.887,33.831C1234.842,886.319,1231.61,894.469,1227.348,902.1z"/>
		<path d="M1249.368,906.944c-2.782,6.871-6.189,13.464-10.209,19.694c-1.99,3.845-7.445,8.281-2.403,12.1
			c5.364,3.131,8.005-4.169,10.423-7.658c7.394-11.498,12.778-24.231,16.083-37.489c3.371-13.57,5.625-27.791,4.911-41.765
			c-1.827-5.053-8.934-3.234-8.882,1.496c0-0.066-0.007-0.123-0.005-0.192C1259.081,871.466,1256.047,889.826,1249.368,906.944z
			 M1259.433,854.505c-0.089-0.308-0.12-0.596-0.134-0.896C1259.32,853.899,1259.356,854.196,1259.433,854.505z"/>
		<path d="M1261.365,926.177c-1.367,2.398-2.858,4.757-4.44,7.021c-2.456,2.219-3.386,5.391-0.719,7.87
			c5.591,4.064,9.212-4.267,11.752-8.07c1.87-2.998,3.518-6.168,5.169-9.295c6.418-12.197,10.009-25.749,12.05-39.326
			c0.577-4.46,1.09-8.946,1.039-13.45c0.139-2.177-0.134-4.687-2.16-5.96c-3.123-2.231-7.865,0.861-7.015,4.622
			c0.194,9.97-1.859,20.469-4.419,30.191C1270.141,909.076,1266.199,917.877,1261.365,926.177z"/>
		<path d="M1275.042,942.343c-2.239,2.743-5.919,5.717-2.801,9.342c4.988,4.753,9.29-2.821,11.967-6.451
			c7.503-10.108,12.968-21.555,15.943-33.796c2.102-9.01,4.428-18.491,3.199-27.756c-1.916-5.199-9.649-3.177-8.848,2.236
			c0.202,12.241-3.036,24.349-7.285,35.747C1284.274,929.159,1279.689,935.817,1275.042,942.343z"/>
		<path d="M1292.493,946.604c-1.734,1.897-1.7,5.025,0.338,6.696c1.821,1.551,4.95,1.472,6.454-0.516
			c3.08-4.069,5.99-8.332,8.506-12.774c5.415-9.836,8.957-20.814,10.159-31.982c0.972-3.987-1.478-8.212-5.95-6.895
			c-3.489,1.14-2.99,4.964-3.373,7.869c-0.393,2.814-0.962,5.582-1.655,8.336c-1.768,6.538-4.202,12.915-7.508,18.836
			C1297.454,939.534,1294.886,943.329,1292.493,946.604z"/>
		<path d="M1309.23,955.791c1.919,1.634,4.792,1.358,6.458-0.516c5.779-6.308,10.291-13.692,12.823-21.875
			c0.808-2.587,2.138-5.152,2.175-7.902c-0.435-5.455-8.345-5.665-9.105-0.292c-2.017,6.437-4.154,13.025-8.281,18.459
			C1311.022,947.274,1304.646,951.472,1309.23,955.791z"/>
		<path d="M1333.559,944.261c-2.007,8.164-7.217,15.048-12.972,20.99c-2.025,1.665-2.504,4.824-0.643,6.798
			c1.607,1.772,4.724,2.1,6.473,0.323c7.465-7.61,14.646-16.833,16.216-27.635c-0.469-5.745-8.919-5.528-9.141,0.208
			c0-0.051,0-0.102,0-0.153C1333.513,944.618,1333.536,944.44,1333.559,944.261z"/>
		<path d="M1336.708,974.367c4.684,4.569,8.815-2.133,11.53-5.538c1.63-2.523,4.338-5.461,2.744-8.615
			c-0.81-1.859-3.57-3.067-5.591-2.242c-2.711,0.993-3.26,4.246-5.086,6.218C1338.048,967.169,1333.225,970.281,1336.708,974.367z"
			/>
		<path d="M1346.507,981.758c-2.629,2.422-6.131,5.544-3.045,9.149c3.736,3.664,7.075-0.026,9.71-2.89
			c1.728-1.955,3.719-4.062,4.424-6.631c0.458-2.454-1.161-4.889-3.622-5.373C1349.947,975.149,1348.801,979.529,1346.507,981.758z"
			/>
		<path d="M1352.339,999.549c1.6,2.333,4.736,2.463,6.863,0.856c-0.083,0.049-0.165,0.098-0.247,0.147
			c-0.017,0.001-0.035,0.003-0.052,0.004c3.672-1.569,3.193-7.309-0.582-8.425C1354.199,990.742,1349.61,995.756,1352.339,999.549z"
			/>
	</g>
</g>
</svg>
